VotoSerifGX-ExtendedDisplay.ufo
<glyph name="percent" format="2">
  <advance width="1084"/>
  <unicode hex="0025"/>
  <outline>
    <contour>
      <point x="306" y="0" type="line"/>
      <point x="319" y="0" type="line"/>
      <point x="771" y="714" type="line"/>
      <point x="758" y="714" type="line"/>
    </contour>
    <contour>
      <point x="253" y="280" type="curve" smooth="yes"/>
      <point x="391" y="280"/>
      <point x="446" y="377"/>
      <point x="446" y="503" type="curve" smooth="yes"/>
      <point x="446" y="632"/>
      <point x="382" y="724"/>
      <point x="254" y="724" type="curve" smooth="yes"/>
      <point x="114" y="724"/>
      <point x="58" y="631"/>
      <point x="58" y="503" type="curve" smooth="yes"/>
      <point x="58" y="373"/>
      <point x="112" y="280"/>
    </contour>
    <contour>
      <point x="250" y="290" type="curve" smooth="yes"/>
      <point x="172" y="290"/>
      <point x="134" y="357"/>
      <point x="134" y="503" type="curve" smooth="yes"/>
      <point x="134" y="627"/>
      <point x="166" y="714"/>
      <point x="252" y="714" type="curve" smooth="yes"/>
      <point x="329" y="714"/>
      <point x="369" y="651"/>
      <point x="369" y="503" type="curve" smooth="yes"/>
      <point x="369" y="373"/>
      <point x="337" y="290"/>
    </contour>
    <contour>
      <point x="833" y="-10" type="curve" smooth="yes"/>
      <point x="972" y="-10"/>
      <point x="1026" y="87"/>
      <point x="1026" y="213" type="curve" smooth="yes"/>
      <point x="1026" y="342"/>
      <point x="963" y="434"/>
      <point x="834" y="434" type="curve" smooth="yes"/>
      <point x="694" y="434"/>
      <point x="638" y="341"/>
      <point x="638" y="213" type="curve" smooth="yes"/>
      <point x="638" y="83"/>
      <point x="693" y="-10"/>
    </contour>
    <contour>
      <point x="830" y="0" type="curve" smooth="yes"/>
      <point x="752" y="0"/>
      <point x="715" y="67"/>
      <point x="715" y="213" type="curve" smooth="yes"/>
      <point x="715" y="337"/>
      <point x="746" y="424"/>
      <point x="832" y="424" type="curve" smooth="yes"/>
      <point x="910" y="424"/>
      <point x="949" y="361"/>
      <point x="949" y="213" type="curve" smooth="yes"/>
      <point x="949" y="83"/>
      <point x="917" y="0"/>
    </contour>
  </outline>
</glyph>
<glyph name="comma" format="2">
  <advance width="290"/>
  <unicode hex="002C"/>
  <outline>
    <contour>
      <point x="50" y="-153" type="line"/>
      <point x="164" y="-124"/>
      <point x="209" y="-62"/>
      <point x="209" y="20" type="curve" smooth="yes"/>
      <point x="209" y="72"/>
      <point x="188" y="116"/>
      <point x="141" y="116" type="curve" smooth="yes"/>
      <point x="105" y="116"/>
      <point x="87" y="91"/>
      <point x="87" y="60" type="curve" smooth="yes"/>
      <point x="87" y="14"/>
      <point x="155" y="13"/>
      <point x="155" y="-35" type="curve" smooth="yes"/>
      <point x="155" y="-86"/>
      <point x="115" y="-125"/>
      <point x="50" y="-142" type="curve"/>
    </contour>
  </outline>
</glyph>
<glyph name="nine" format="2">
  <advance width="681"/>
  <unicode hex="0039"/>
  <outline>
    <contour>
      <point x="280" y="-11" type="curve" smooth="yes"/>
      <point x="505" y="-11"/>
      <point x="601" y="143"/>
      <point x="601" y="397" type="curve" smooth="yes"/>
      <point x="601" y="600"/>
      <point x="503" y="724"/>
      <point x="312" y="724" type="curve" smooth="yes"/>
      <point x="148" y="724"/>
      <point x="68" y="618"/>
      <point x="68" y="485" type="curve" smooth="yes"/>
      <point x="68" y="389"/>
      <point x="143" y="290"/>
      <point x="309" y="290" type="curve" smooth="yes"/>
      <point x="390" y="290"/>
      <point x="464" y="326"/>
      <point x="502" y="362" type="curve"/>
      <point x="501" y="128"/>
      <point x="438" y="-1"/>
      <point x="271" y="-1" type="curve" smooth="yes"/>
      <point x="192" y="-1"/>
      <point x="150" y="34"/>
      <point x="140" y="133" type="curve"/>
      <point x="121" y="133"/>
      <point x="106" y="109"/>
      <point x="106" y="83" type="curve" smooth="yes"/>
      <point x="106" y="31"/>
      <point x="167" y="-11"/>
    </contour>
    <contour>
      <point x="329" y="306" type="curve" smooth="yes"/>
      <point x="222" y="306"/>
      <point x="166" y="378"/>
      <point x="166" y="493" type="curve" smooth="yes"/>
      <point x="166" y="628"/>
      <point x="208" y="714"/>
      <point x="327" y="714" type="curve" smooth="yes"/>
      <point x="450" y="714"/>
      <point x="502" y="606"/>
      <point x="502" y="377" type="curve"/>
      <point x="471" y="344"/>
      <point x="400" y="306"/>
    </contour>
  </outline>
</glyph>
<glyph name="colon" format="2">
  <advance width="305"/>
  <unicode hex="003A"/>
  <outline>
    <contour>
      <point x="144" y="404" type="curve" smooth="yes"/>
      <point x="170" y="404"/>
      <point x="195" y="417"/>
      <point x="195" y="466" type="curve" smooth="yes"/>
      <point x="195" y="516"/>
      <point x="170" y="527"/>
      <point x="144" y="527" type="curve" smooth="yes"/>
      <point x="119" y="527"/>
      <point x="94" y="516"/>
      <point x="94" y="466" type="curve" smooth="yes"/>
      <point x="94" y="417"/>
      <point x="119" y="404"/>
    </contour>
    <contour>
      <point x="144" y="-7" type="curve" smooth="yes"/>
      <point x="170" y="-7"/>
      <point x="195" y="6"/>
      <point x="195" y="55" type="curve" smooth="yes"/>
      <point x="195" y="105"/>
      <point x="170" y="116"/>
      <point x="144" y="116" type="curve" smooth="yes"/>
      <point x="119" y="116"/>
      <point x="94" y="105"/>
      <point x="94" y="55" type="curve" smooth="yes"/>
      <point x="94" y="6"/>
      <point x="119" y="-7"/>
    </contour>
  </outline>
</glyph>
<glyph name="bracketleft" format="2">
  <advance width="422"/>
  <unicode hex="005B"/>
  <outline>
    <contour>
      <point x="122" y="-128" type="line"/>
      <point x="378" y="-128" type="line"/>
      <point x="378" y="-118" type="line"/>
      <point x="299" y="-118" type="line" smooth="yes"/>
      <point x="254" y="-118"/>
      <point x="227" y="-111"/>
      <point x="227" y="-36" type="curve" smooth="yes"/>
      <point x="227" y="668" type="line" smooth="yes"/>
      <point x="227" y="743"/>
      <point x="254" y="750"/>
      <point x="299" y="750" type="curve" smooth="yes"/>
      <point x="378" y="750" type="line"/>
      <point x="378" y="760" type="line"/>
      <point x="122" y="760" type="line"/>
    </contour>
  </outline>
</glyph>
<glyph name="c" format="2">
  <advance width="587"/>
  <unicode hex="0063"/>
  <anchor x="327" y="0" name="bottom"/>
  <anchor x="327" y="536" name="top"/>
  <anchor x="567" y="536" name="topright"/>
  <outline>
    <contour>
      <point x="333" y="-10" type="curve" smooth="yes"/>
      <point x="468" y="-10"/>
      <point x="544" y="60"/>
      <point x="544" y="102" type="curve" smooth="yes"/>
      <point x="544" y="120"/>
      <point x="536" y="133"/>
      <point x="524" y="142" type="curve"/>
      <point x="507" y="62"/>
      <point x="444" y="2"/>
      <point x="347" y="1" type="curve" smooth="yes"/>
      <point x="251" y="0"/>
      <point x="175" y="89"/>
      <point x="175" y="262" type="curve" smooth="yes"/>
      <point x="175" y="461"/>
      <point x="234" y="536"/>
      <point x="329" y="536" type="curve" smooth="yes"/>
      <point x="412" y="536"/>
      <point x="456" y="479"/>
      <point x="456" y="377" type="curve"/>
      <point x="531" y="378"/>
      <point x="543" y="414"/>
      <point x="543" y="429" type="curve" smooth="yes"/>
      <point x="543" y="490"/>
      <point x="477" y="546"/>
      <point x="333" y="546" type="curve" smooth="yes"/>
      <point x="187" y="546"/>
      <point x="67" y="476"/>
      <point x="67" y="261" type="curve" smooth="yes"/>
      <point x="67" y="81"/>
      <point x="182" y="-10"/>
    </contour>
  </outline>
</glyph>
<glyph name="h" format="2">
  <advance width="762"/>
  <unicode hex="0068"/>
  <anchor x="382" y="0" name="bottom"/>
  <anchor x="382" y="268" name="center"/>
  <anchor x="382" y="760" name="top"/>
  <anchor x="648" y="760" name="topright"/>
  <outline>
    <contour>
      <point x="22" y="0" type="line"/>
      <point x="344" y="0" type="line"/>
      <point x="344" y="10" type="line"/>
      <point x="322" y="10" type="line"/>
      <point x="251" y="10"/>
      <point x="240" y="13"/>
      <point x="240" y="78" type="curve" smooth="yes"/>
      <point x="240" y="334" type="line" smooth="yes"/>
      <point x="240" y="426"/>
      <point x="299" y="513"/>
      <point x="401" y="513" type="curve" smooth="yes"/>
      <point x="488" y="513"/>
      <point x="525" y="469"/>
      <point x="525" y="365" type="curve" smooth="yes"/>
      <point x="525" y="0" type="line"/>
      <point x="732" y="0" type="line"/>
      <point x="732" y="10" type="line"/>
      <point x="715" y="10" type="line" smooth="yes"/>
      <point x="639" y="10"/>
      <point x="631" y="10"/>
      <point x="631" y="82" type="curve" smooth="yes"/>
      <point x="631" y="361" type="line" smooth="yes"/>
      <point x="631" y="496"/>
      <point x="566" y="546"/>
      <point x="439" y="546" type="curve" smooth="yes"/>
      <point x="339" y="546"/>
      <point x="268" y="499"/>
      <point x="240" y="406" type="curve"/>
      <point x="238" y="406" type="line"/>
      <point x="240" y="448"/>
      <point x="240" y="481"/>
      <point x="240" y="520" type="curve" smooth="yes"/>
      <point x="240" y="760" type="line"/>
      <point x="30" y="760" type="line"/>
      <point x="30" y="750" type="line"/>
      <point x="57" y="750" type="line" smooth="yes"/>
      <point x="118" y="750"/>
      <point x="133" y="749"/>
      <point x="133" y="677" type="curve" smooth="yes"/>
      <point x="133" y="80" type="line" smooth="yes"/>
      <point x="133" y="12"/>
      <point x="118" y="10"/>
      <point x="48" y="10" type="curve" smooth="yes"/>
      <point x="22" y="10" type="line"/>
    </contour>
  </outline>
</glyph>
<glyph name="j" format="2">
  <advance width="390"/>
  <unicode hex="006A"/>
  <anchor x="122" y="-240" name="bottom"/>
  <anchor x="204" y="756" name="top"/>
  <anchor x="343" y="756" name="topright"/>
  <outline>
    <contour>
      <point x="12" y="-240" type="line"/>
      <point x="37" y="-240" type="line" smooth="yes"/>
      <point x="173" y="-240"/>
      <point x="264" y="-179"/>
      <point x="264" y="-2" type="curve" smooth="yes"/>
      <point x="264" y="536" type="line"/>
      <point x="58" y="536" type="line"/>
      <point x="58" y="526" type="line"/>
      <point x="75" y="526" type="line" smooth="yes"/>
      <point x="136" y="526"/>
      <point x="158" y="524"/>
      <point x="158" y="452" type="curve" smooth="yes"/>
      <point x="158" y="-12" type="line" smooth="yes"/>
      <point x="158" y="-180"/>
      <point x="110" y="-230"/>
      <point x="26" y="-230" type="curve" smooth="yes"/>
      <point x="12" y="-230" type="line"/>
    </contour>
    <contour>
      <point x="206" y="640" type="curve" smooth="yes"/>
      <point x="237" y="640"/>
      <point x="259" y="658"/>
      <point x="259" y="698" type="curve" smooth="yes"/>
      <point x="259" y="739"/>
      <point x="237" y="756"/>
      <point x="206" y="756" type="curve" smooth="yes"/>
      <point x="174" y="756"/>
      <point x="154" y="739"/>
      <point x="154" y="698" type="curve" smooth="yes"/>
      <point x="154" y="658"/>
      <point x="174" y="640"/>
    </contour>
  </outline>
</glyph>
<glyph name="l" format="2">
  <advance width="364"/>
  <unicode hex="006C"/>
  <anchor x="182" y="0" name="bottom"/>
  <anchor x="182" y="268" name="center"/>
  <anchor x="182" y="760" name="top"/>
  <anchor x="274" y="760" name="topright"/>
  <outline>
    <contour>
      <point x="14" y="0" type="line"/>
      <point x="351" y="0" type="line"/>
      <point x="351" y="10" type="line"/>
      <point x="312" y="10" type="line" smooth="yes"/>
      <point x="250" y="10"/>
      <point x="236" y="20"/>
      <point x="236" y="82" type="curve" smooth="yes"/>
      <point x="236" y="760" type="line"/>
      <point x="14" y="760" type="line"/>
      <point x="14" y="750" type="line"/>
      <point x="59" y="750" type="line" smooth="yes"/>
      <point x="103" y="750"/>
      <point x="129" y="745"/>
      <point x="129" y="682" type="curve" smooth="yes"/>
      <point x="129" y="82" type="line" smooth="yes"/>
      <point x="129" y="20"/>
      <point x="114" y="10"/>
      <point x="53" y="10" type="curve" smooth="yes"/>
      <point x="14" y="10" type="line"/>
    </contour>
  </outline>
</glyph>
<glyph name="z" format="2">
  <advance width="615"/>
  <unicode hex="007A"/>
  <anchor x="315" y="0" name="bottom"/>
  <anchor x="315" y="536" name="top"/>
  <anchor x="576" y="536" name="topright"/>
  <outline>
    <contour>
      <point x="53" y="0" type="line"/>
      <point x="562" y="0" type="line"/>
      <point x="568" y="166" type="line"/>
      <point x="558" y="166" type="line"/>
      <point x="556" y="122" type="line" smooth="yes"/>
      <point x="550" y="34"/>
      <point x="531" y="13"/>
      <point x="452" y="13" type="curve" smooth="yes"/>
      <point x="160" y="13" type="line"/>
      <point x="561" y="531" type="line"/>
      <point x="561" y="536" type="line"/>
      <point x="88" y="536" type="line"/>
      <point x="77" y="390" type="line"/>
      <point x="87" y="390" type="line"/>
      <point x="90" y="422" type="line" smooth="yes"/>
      <point x="95" y="502"/>
      <point x="112" y="523"/>
      <point x="188" y="523" type="curve" smooth="yes"/>
      <point x="452" y="523" type="line"/>
      <point x="53" y="5" type="line"/>
    </contour>
  </outline>
</glyph>
<glyph name="cedilla" format="2">
  <advance width="404"/>
  <unicode hex="00B8"/>
  <outline>
    <contour>
      <point x="166" y="-231" type="curve" smooth="yes"/>
      <point x="244" y="-231"/>
      <point x="304" y="-209"/>
      <point x="304" y="-136" type="curve" smooth="yes"/>
      <point x="304" y="-70"/>
      <point x="240" y="-59"/>
      <point x="160" y="-55" type="curve"/>
      <point x="174" y="1" type="line"/>
      <point x="164" y="1" type="line"/>
      <point x="144" y="-78" type="line"/>
      <point x="204" y="-82"/>
      <point x="238" y="-100"/>
      <point x="238" y="-137" type="curve" smooth="yes"/>
      <point x="238" y="-197"/>
      <point x="201" y="-219"/>
      <point x="145" y="-219" type="curve" smooth="yes"/>
      <point x="117" y="-219"/>
      <point x="101" y="-217"/>
      <point x="75" y="-211" type="curve"/>
      <point x="75" y="-222" type="line"/>
      <point x="104" y="-229"/>
      <point x="146" y="-231"/>
    </contour>
  </outline>
</glyph>
<glyph name="onesuperior" format="2">
  <advance width="493"/>
  <unicode hex="00B9"/>
  <outline>
    <contour>
      <point x="83" y="388" type="line"/>
      <point x="412" y="388" type="line"/>
      <point x="412" y="398" type="line"/>
      <point x="329" y="398" type="line" smooth="yes"/>
      <point x="311" y="398"/>
      <point x="285" y="411"/>
      <point x="285" y="431" type="curve" smooth="yes"/>
      <point x="285" y="820" type="line"/>
      <point x="230" y="820" type="line"/>
      <point x="187" y="771" type="line" smooth="yes"/>
      <point x="187" y="773"/>
      <point x="130" y="729"/>
      <point x="61" y="731" type="curve"/>
      <point x="61" y="699"/>
      <point x="79" y="690"/>
      <point x="91" y="690" type="curve" smooth="yes"/>
      <point x="125" y="690"/>
      <point x="180" y="747"/>
      <point x="210" y="785" type="curve"/>
      <point x="210" y="431" type="line" smooth="yes"/>
      <point x="210" y="411"/>
      <point x="181" y="398"/>
      <point x="161" y="398" type="curve" smooth="yes"/>
      <point x="83" y="398" type="line"/>
    </contour>
  </outline>
</glyph>
<glyph name="Eth" format="2">
  <advance width="870"/>
  <unicode hex="00D0"/>
  <anchor x="436" y="0" name="bottom"/>
  <anchor x="436" y="714" name="top"/>
  <outline>
    <contour>
      <point x="48" y="0" type="line"/>
      <point x="414" y="0" type="line" smooth="yes"/>
      <point x="671" y="0"/>
      <point x="799" y="139"/>
      <point x="799" y="358" type="curve" smooth="yes"/>
      <point x="799" y="582"/>
      <point x="660" y="714"/>
      <point x="409" y="714" type="curve" smooth="yes"/>
      <point x="48" y="714" type="line"/>
      <point x="48" y="704" type="line"/>
      <point x="119" y="704" type="line" smooth="yes"/>
      <point x="153" y="704"/>
      <point x="166" y="687"/>
      <point x="166" y="628" type="curve" smooth="yes"/>
      <point x="166" y="378" type="line"/>
      <point x="46" y="378" type="line"/>
      <point x="46" y="368" type="line"/>
      <point x="166" y="368" type="line"/>
      <point x="166" y="82" type="line" smooth="yes"/>
      <point x="166" y="30"/>
      <point x="155" y="10"/>
      <point x="120" y="10" type="curve" smooth="yes"/>
      <point x="48" y="10" type="line"/>
    </contour>
    <contour>
      <point x="274" y="10" type="line"/>
      <point x="274" y="368" type="line"/>
      <point x="490" y="368" type="line"/>
      <point x="490" y="378" type="line"/>
      <point x="274" y="378" type="line"/>
      <point x="274" y="704" type="line"/>
      <point x="388" y="704" type="line" smooth="yes"/>
      <point x="600" y="704"/>
      <point x="684" y="583"/>
      <point x="684" y="357" type="curve" smooth="yes"/>
      <point x="684" y="118"/>
      <point x="603" y="10"/>
      <point x="386" y="10" type="curve" smooth="yes"/>
    </contour>
  </outline>
</glyph>
<glyph name="germandbls" format="2">
  <advance width="774"/>
  <unicode hex="00DF"/>
  <anchor x="387" y="0" name="bottom"/>
  <anchor x="387" y="764" name="top"/>
  <outline>
    <contour>
      <point x="513" y="-10" type="curve"/>
      <point x="628" y="-10"/>
      <point x="717" y="44"/>
      <point x="717" y="142" type="curve" smooth="yes"/>
      <point x="717" y="204"/>
      <point x="672" y="255"/>
      <point x="566" y="305" type="curve" smooth="yes"/>
      <point x="470" y="347"/>
      <point x="441" y="370"/>
      <point x="441" y="413" type="curve" smooth="yes"/>
      <point x="441" y="481"/>
      <point x="480" y="521"/>
      <point x="622" y="521" type="curve" smooth="yes"/>
      <point x="656" y="521" type="line"/>
      <point x="657" y="655"/>
      <point x="599" y="765"/>
      <point x="397" y="765" type="curve" smooth="yes"/>
      <point x="268" y="765"/>
      <point x="141" y="719"/>
      <point x="141" y="563" type="curve" smooth="yes"/>
      <point x="141" y="536" type="line"/>
      <point x="32" y="536" type="line"/>
      <point x="32" y="526" type="line"/>
      <point x="141" y="526" type="line"/>
      <point x="141" y="71" type="line" smooth="yes"/>
      <point x="141" y="12"/>
      <point x="136" y="10"/>
      <point x="85" y="10" type="curve" smooth="yes"/>
      <point x="23" y="10" type="line"/>
      <point x="23" y="0" type="line"/>
      <point x="247" y="0" type="line"/>
      <point x="247" y="612" type="line" smooth="yes"/>
      <point x="247" y="713"/>
      <point x="294" y="755"/>
      <point x="401" y="755" type="curve" smooth="yes"/>
      <point x="524" y="755"/>
      <point x="550" y="687"/>
      <point x="551" y="532" type="curve"/>
      <point x="423" y="532"/>
      <point x="348" y="499"/>
      <point x="348" y="398" type="curve" smooth="yes"/>
      <point x="348" y="329"/>
      <point x="409" y="291"/>
      <point x="498" y="250" type="curve" smooth="yes"/>
      <point x="589" y="206"/>
      <point x="628" y="167"/>
      <point x="628" y="113" type="curve" smooth="yes"/>
      <point x="628" y="32"/>
      <point x="573" y="0"/>
      <point x="516" y="0" type="curve" smooth="yes"/>
      <point x="441" y="0"/>
      <point x="387" y="25"/>
      <point x="382" y="162" type="curve"/>
      <point x="339" y="162"/>
      <point x="317" y="135"/>
      <point x="317" y="108" type="curve" smooth="yes"/>
      <point x="317" y="40"/>
      <point x="393" y="-10"/>
    </contour>
  </outline>
</glyph>
<glyph name="oslash" format="2">
  <advance width="690"/>
  <unicode hex="00F8"/>
  <anchor x="343" y="0" name="bottom"/>
  <anchor x="343" y="536" name="top"/>
  <outline>
    <contour>
      <point x="111" y="-40" type="line"/>
      <point x="123" y="-40" type="line"/>
      <point x="178" y="36" type="line"/>
      <point x="221" y="5"/>
      <point x="277" y="-10"/>
      <point x="343" y="-10" type="curve" smooth="yes"/>
      <point x="525" y="-10"/>
      <point x="620" y="85"/>
      <point x="620" y="269" type="curve" smooth="yes"/>
      <point x="620" y="384"/>
      <point x="583" y="459"/>
      <point x="520" y="501" type="curve"/>
      <point x="575" y="576" type="line"/>
      <point x="563" y="576" type="line"/>
      <point x="511" y="506" type="line"/>
      <point x="468" y="534"/>
      <point x="413" y="546"/>
      <point x="349" y="546" type="curve" smooth="yes"/>
      <point x="168" y="546"/>
      <point x="68" y="458"/>
      <point x="68" y="269" type="curve" smooth="yes"/>
      <point x="68" y="162"/>
      <point x="105" y="86"/>
      <point x="170" y="40" type="curve"/>
    </contour>
    <contour>
      <point x="343" y="0" type="curve" smooth="yes"/>
      <point x="283" y="0"/>
      <point x="241" y="27"/>
      <point x="217" y="89" type="curve"/>
      <point x="476" y="445" type="line"/>
      <point x="501" y="406"/>
      <point x="513" y="348"/>
      <point x="513" y="269" type="curve" smooth="yes"/>
      <point x="513" y="96"/>
      <point x="469" y="0"/>
    </contour>
    <contour>
      <point x="212" y="99" type="line"/>
      <point x="188" y="139"/>
      <point x="177" y="197"/>
      <point x="177" y="269" type="curve" smooth="yes"/>
      <point x="177" y="455"/>
      <point x="227" y="536"/>
      <point x="350" y="536" type="curve" smooth="yes"/>
      <point x="407" y="536"/>
      <point x="447" y="511"/>
      <point x="473" y="453" type="curve"/>
    </contour>
  </outline>
</glyph>
<glyph name="OE" format="2">
  <advance width="1145"/>
  <unicode hex="0152"/>
  <anchor x="573" y="0" name="bottom"/>
  <anchor x="573" y="714" name="top"/>
  <outline>
    <contour>
      <point x="443" y="-6" type="curve" smooth="yes"/>
      <point x="495" y="-6"/>
      <point x="537" y="-3"/>
      <point x="567" y="0" type="curve"/>
      <point x="1084" y="0" type="line"/>
      <point x="1093" y="176" type="line"/>
      <point x="1083" y="176" type="line"/>
      <point x="1078" y="100" type="line" smooth="yes"/>
      <point x="1071" y="22"/>
      <point x="1039" y="10"/>
      <point x="976" y="10" type="curve" smooth="yes"/>
      <point x="673" y="10" type="line"/>
      <point x="672" y="369" type="line"/>
      <point x="954" y="369" type="line"/>
      <point x="954" y="379" type="line"/>
      <point x="672" y="379" type="line"/>
      <point x="672" y="704" type="line"/>
      <point x="936" y="704" type="line" smooth="yes"/>
      <point x="1004" y="704"/>
      <point x="1028" y="688"/>
      <point x="1035" y="619" type="curve" smooth="yes"/>
      <point x="1041" y="538" type="line"/>
      <point x="1051" y="538" type="line"/>
      <point x="1042" y="714" type="line"/>
      <point x="575" y="714" type="line"/>
      <point x="531" y="720"/>
      <point x="481" y="721"/>
      <point x="444" y="721" type="curve" smooth="yes"/>
      <point x="196" y="721"/>
      <point x="68" y="585"/>
      <point x="68" y="359" type="curve" smooth="yes"/>
      <point x="68" y="123"/>
      <point x="193" y="-6"/>
    </contour>
    <contour>
      <point x="443" y="4" type="curve" smooth="yes"/>
      <point x="265" y="4"/>
      <point x="182" y="98"/>
      <point x="182" y="358" type="curve" smooth="yes"/>
      <point x="182" y="610"/>
      <point x="269" y="711"/>
      <point x="444" y="711" type="curve" smooth="yes"/>
      <point x="485" y="711"/>
      <point x="528" y="710"/>
      <point x="564" y="699" type="curve"/>
      <point x="564" y="14" type="line"/>
      <point x="532" y="6"/>
      <point x="496" y="4"/>
    </contour>
  </outline>
</glyph>
<glyph name="oe" format="2">
  <advance width="1083"/>
  <unicode hex="0153"/>
  <anchor x="542" y="0" name="bottom"/>
  <anchor x="542" y="536" name="top"/>
  <outline>
    <contour>
      <point x="343" y="-10" type="curve" smooth="yes"/>
      <point x="458" y="-10"/>
      <point x="533" y="40"/>
      <point x="568" y="134" type="curve"/>
      <point x="605" y="40"/>
      <point x="689" y="-10"/>
      <point x="801" y="-10" type="curve" smooth="yes"/>
      <point x="932" y="-10"/>
      <point x="1009" y="44"/>
      <point x="1009" y="102" type="curve" smooth="yes"/>
      <point x="1009" y="124"/>
      <point x="998" y="136"/>
      <point x="971" y="141" type="curve"/>
      <point x="960" y="53"/>
      <point x="916" y="2"/>
      <point x="818" y="2" type="curve" smooth="yes"/>
      <point x="691" y="2"/>
      <point x="620" y="96"/>
      <point x="622" y="287" type="curve"/>
      <point x="1027" y="287" type="line"/>
      <point x="1027" y="296" type="line" smooth="yes"/>
      <point x="1027" y="451"/>
      <point x="933" y="546"/>
      <point x="779" y="546" type="curve" smooth="yes"/>
      <point x="671" y="546"/>
      <point x="601" y="496"/>
      <point x="568" y="410" type="curve"/>
      <point x="533" y="500"/>
      <point x="459" y="546"/>
      <point x="349" y="546" type="curve" smooth="yes"/>
      <point x="166" y="546"/>
      <point x="68" y="455"/>
      <point x="68" y="269" type="curve" smooth="yes"/>
      <point x="68" y="80"/>
      <point x="176" y="-10"/>
    </contour>
    <contour>
      <point x="343" y="0" type="curve" smooth="yes"/>
      <point x="228" y="0"/>
      <point x="178" y="89"/>
      <point x="177" y="269" type="curve" smooth="yes"/>
      <point x="176" y="456"/>
      <point x="226" y="536"/>
      <point x="350" y="536" type="curve" smooth="yes"/>
      <point x="461" y="536"/>
      <point x="513" y="461"/>
      <point x="513" y="269" type="curve" smooth="yes"/>
      <point x="513" y="97"/>
      <point x="471" y="0"/>
    </contour>
    <contour>
      <point x="623" y="297" type="line"/>
      <point x="630" y="454"/>
      <point x="666" y="536"/>
      <point x="778" y="536" type="curve" smooth="yes"/>
      <point x="868" y="536"/>
      <point x="921" y="460"/>
      <point x="921" y="297" type="curve"/>
    </contour>
  </outline>
</glyph>
<glyph name="Tbar" format="2">
  <advance width="732"/>
  <unicode hex="0166"/>
  <anchor x="366" y="0" name="bottom"/>
  <anchor x="366" y="714" name="top"/>
  <outline>
    <contour>
      <point x="174" y="0" type="line"/>
      <point x="554" y="0" type="line"/>
      <point x="554" y="10" type="line"/>
      <point x="482" y="10" type="line" smooth="yes"/>
      <point x="438" y="10"/>
      <point x="420" y="16"/>
      <point x="420" y="85" type="curve" smooth="yes"/>
      <point x="420" y="362" type="line"/>
      <point x="568" y="362" type="line"/>
      <point x="568" y="372" type="line"/>
      <point x="420" y="372" type="line"/>
      <point x="420" y="698" type="line"/>
      <point x="589" y="698" type="line" smooth="yes"/>
      <point x="664" y="698"/>
      <point x="684" y="674"/>
      <point x="690" y="593" type="curve" smooth="yes"/>
      <point x="694" y="535" type="line"/>
      <point x="704" y="535" type="line"/>
      <point x="697" y="714" type="line"/>
      <point x="34" y="714" type="line"/>
      <point x="26" y="535" type="line"/>
      <point x="36" y="535" type="line"/>
      <point x="40" y="593" type="line" smooth="yes"/>
      <point x="44" y="674"/>
      <point x="67" y="698"/>
      <point x="142" y="698" type="curve" smooth="yes"/>
      <point x="309" y="698" type="line"/>
      <point x="309" y="372" type="line"/>
      <point x="158" y="372" type="line"/>
      <point x="158" y="362" type="line"/>
      <point x="309" y="362" type="line"/>
      <point x="309" y="88" type="line" smooth="yes"/>
      <point x="309" y="17"/>
      <point x="291" y="10"/>
      <point x="247" y="10" type="curve" smooth="yes"/>
      <point x="174" y="10" type="line"/>
    </contour>
  </outline>
</glyph>
<glyph name="uni0180" format="2">
  <advance width="735"/>
  <unicode hex="0180"/>
  <anchor x="367" y="0" name="bottom"/>
  <anchor x="367" y="760" name="top"/>
  <outline>
    <contour>
      <point x="433" y="-10" type="curve" smooth="yes"/>
      <point x="582" y="-10"/>
      <point x="667" y="104"/>
      <point x="667" y="257" type="curve" smooth="yes"/>
      <point x="667" y="432"/>
      <point x="598" y="521"/>
      <point x="447" y="521" type="curve" smooth="yes"/>
      <point x="341" y="521"/>
      <point x="265" y="462"/>
      <point x="240" y="342" type="curve"/>
      <point x="238" y="342" type="line"/>
      <point x="239" y="421"/>
      <point x="240" y="511"/>
      <point x="240" y="554" type="curve" smooth="yes"/>
      <point x="240" y="610" type="line"/>
      <point x="444" y="610" type="line"/>
      <point x="444" y="620" type="line"/>
      <point x="240" y="620" type="line"/>
      <point x="240" y="760" type="line"/>
      <point x="23" y="760" type="line"/>
      <point x="23" y="750" type="line"/>
      <point x="58" y="750" type="line" smooth="yes"/>
      <point x="115" y="750"/>
      <point x="133" y="742"/>
      <point x="133" y="675" type="curve" smooth="yes"/>
      <point x="133" y="620" type="line"/>
      <point x="27" y="620" type="line"/>
      <point x="27" y="610" type="line"/>
      <point x="133" y="610" type="line"/>
      <point x="133" y="82" type="line" smooth="yes"/>
      <point x="133" y="10"/>
      <point x="109" y="10"/>
      <point x="45" y="10" type="curve" smooth="yes"/>
      <point x="23" y="10" type="line"/>
      <point x="23" y="0" type="line"/>
      <point x="239" y="0" type="line"/>
      <point x="239" y="151" type="line"/>
      <point x="241" y="151" type="line"/>
      <point x="269" y="27"/>
      <point x="342" y="-10"/>
    </contour>
    <contour>
      <point x="403" y="18" type="curve" smooth="yes"/>
      <point x="279" y="18"/>
      <point x="239" y="124"/>
      <point x="239" y="260" type="curve" smooth="yes"/>
      <point x="239" y="386"/>
      <point x="294" y="485"/>
      <point x="402" y="485" type="curve" smooth="yes"/>
      <point x="513" y="485"/>
      <point x="560" y="403"/>
      <point x="560" y="263" type="curve" smooth="yes"/>
      <point x="560" y="136"/>
      <point x="504" y="18"/>
    </contour>
  </outline>
</glyph>
<glyph name="uni01A6" format="2">
  <advance width="787"/>
  <unicode hex="01A6"/>
  <anchor x="390" y="-126" name="bottom"/>
  <anchor x="391" y="714" name="top"/>
  <outline>
    <contour>
      <point x="738" y="-120" type="curve" smooth="yes"/>
      <point x="792" y="-120" type="line"/>
      <point x="792" y="-110" type="line"/>
      <point x="779" y="-110" type="line" smooth="yes"/>
      <point x="734" y="-110"/>
      <point x="714" y="-86"/>
      <point x="649" y="5" type="curve" smooth="yes"/>
      <point x="488" y="220" type="line"/>
      <point x="592" y="230"/>
      <point x="676" y="293"/>
      <point x="676" y="400" type="curve" smooth="yes"/>
      <point x="676" y="527"/>
      <point x="586" y="578"/>
      <point x="361" y="578" type="curve" smooth="yes"/>
      <point x="274" y="578" type="line"/>
      <point x="274" y="630" type="line" smooth="yes"/>
      <point x="274" y="690"/>
      <point x="280" y="704"/>
      <point x="329" y="704" type="curve" smooth="yes"/>
      <point x="387" y="704" type="line"/>
      <point x="387" y="714" type="line"/>
      <point x="48" y="714" type="line"/>
      <point x="48" y="704" type="line"/>
      <point x="101" y="704" type="line" smooth="yes"/>
      <point x="157" y="704"/>
      <point x="165" y="690"/>
      <point x="165" y="630" type="curve" smooth="yes"/>
      <point x="165" y="84" type="line" smooth="yes"/>
      <point x="165" y="19"/>
      <point x="147" y="10"/>
      <point x="104" y="10" type="curve" smooth="yes"/>
      <point x="48" y="10" type="line"/>
      <point x="48" y="0" type="line"/>
      <point x="381" y="0" type="line"/>
      <point x="381" y="10" type="line"/>
      <point x="329" y="10" type="line" smooth="yes"/>
      <point x="287" y="10"/>
      <point x="274" y="19"/>
      <point x="274" y="84" type="curve" smooth="yes"/>
      <point x="274" y="220" type="line"/>
      <point x="383" y="220" type="line"/>
      <point x="551" y="-22" type="line" smooth="yes"/>
      <point x="603" y="-98"/>
      <point x="620" y="-120"/>
    </contour>
    <contour>
      <point x="274" y="230" type="line"/>
      <point x="274" y="568" type="line"/>
      <point x="363" y="568" type="line" smooth="yes"/>
      <point x="515" y="568"/>
      <point x="560" y="516"/>
      <point x="560" y="402" type="curve" smooth="yes"/>
      <point x="560" y="263"/>
      <point x="478" y="230"/>
      <point x="397" y="230" type="curve" smooth="yes"/>
    </contour>
  </outline>
</glyph>
<glyph name="uni01BF" format="2">
  <advance width="735"/>
  <unicode hex="01BF"/>
  <anchor x="367" y="-240" name="bottom"/>
  <anchor x="367" y="536" name="top"/>
  <outline>
    <contour>
      <point x="22" y="-231" type="line"/>
      <point x="371" y="-231" type="line"/>
      <point x="371" y="-221" type="line"/>
      <point x="320" y="-221" type="line" smooth="yes"/>
      <point x="266" y="-221"/>
      <point x="240" y="-219"/>
      <point x="240" y="-149" type="curve" smooth="yes"/>
      <point x="240" y="-14" type="line"/>
      <point x="501" y="23"/>
      <point x="668" y="113"/>
      <point x="668" y="321" type="curve" smooth="yes"/>
      <point x="668" y="474"/>
      <point x="604" y="548"/>
      <point x="446" y="548" type="curve" smooth="yes"/>
      <point x="342" y="548"/>
      <point x="263" y="482"/>
      <point x="242" y="379" type="curve"/>
      <point x="240" y="379" type="line"/>
      <point x="240" y="536" type="line"/>
      <point x="12" y="536" type="line"/>
      <point x="12" y="526" type="line"/>
      <point x="68" y="526" type="line" smooth="yes"/>
      <point x="129" y="526"/>
      <point x="133" y="514"/>
      <point x="133" y="454" type="curve" smooth="yes"/>
      <point x="133" y="-149" type="line" smooth="yes"/>
      <point x="133" y="-219"/>
      <point x="106" y="-221"/>
      <point x="54" y="-221" type="curve" smooth="yes"/>
      <point x="22" y="-221" type="line"/>
    </contour>
    <contour>
      <point x="240" y="-4" type="curve"/>
      <point x="240" y="292" type="line" smooth="yes"/>
      <point x="240" y="415"/>
      <point x="289" y="511"/>
      <point x="415" y="511" type="curve" smooth="yes"/>
      <point x="532" y="511"/>
      <point x="563" y="447"/>
      <point x="563" y="323" type="curve" smooth="yes"/>
      <point x="563" y="128"/>
      <point x="395" y="14"/>
    </contour>
  </outline>
</glyph>
<glyph name="uni0223" format="2">
  <advance width="686"/>
  <unicode hex="0223"/>
  <anchor x="343" y="0" name="bottom"/>
  <anchor x="343" y="765" name="top"/>
  <outline>
    <contour>
      <point x="345" y="-10" type="curve" smooth="yes"/>
      <point x="512" y="-10"/>
      <point x="618" y="59"/>
      <point x="618" y="224" type="curve" smooth="yes"/>
      <point x="618" y="329"/>
      <point x="563" y="420"/>
      <point x="417" y="449" type="curve"/>
      <point x="554" y="469"/>
      <point x="595" y="555"/>
      <point x="595" y="630" type="curve" smooth="yes"/>
      <point x="595" y="702"/>
      <point x="540" y="758"/>
      <point x="447" y="765" type="curve"/>
      <point x="463" y="735"/>
      <point x="484" y="705"/>
      <point x="484" y="631" type="curve" smooth="yes"/>
      <point x="484" y="513"/>
      <point x="453" y="454"/>
      <point x="345" y="454" type="curve" smooth="yes"/>
      <point x="236" y="454"/>
      <point x="202" y="513"/>
      <point x="202" y="631" type="curve" smooth="yes"/>
      <point x="202" y="705"/>
      <point x="224" y="735"/>
      <point x="241" y="765" type="curve"/>
      <point x="147" y="759"/>
      <point x="91" y="703"/>
      <point x="91" y="632" type="curve" smooth="yes"/>
      <point x="91" y="544"/>
      <point x="134" y="469"/>
      <point x="268" y="449" type="curve"/>
      <point x="128" y="425"/>
      <point x="68" y="343"/>
      <point x="68" y="224" type="curve" smooth="yes"/>
      <point x="68" y="59"/>
      <point x="183" y="-10"/>
    </contour>
    <contour>
      <point x="345" y="0" type="curve" smooth="yes"/>
      <point x="221" y="0"/>
      <point x="178" y="101"/>
      <point x="178" y="225" type="curve" smooth="yes"/>
      <point x="178" y="380"/>
      <point x="229" y="444"/>
      <point x="344" y="444" type="curve" smooth="yes"/>
      <point x="467" y="444"/>
      <point x="508" y="366"/>
      <point x="508" y="225" type="curve" smooth="yes"/>
      <point x="508" y="101"/>
      <point x="468" y="0"/>
    </contour>
  </outline>
</glyph>
<glyph name="uni0234" format="2">
  <advance width="458"/>
  <unicode hex="0234"/>
  <anchor x="230" y="0" name="bottom"/>
  <anchor x="230" y="760" name="top"/>
  <outline>
    <contour>
      <point x="36" y="7" type="line"/>
      <point x="67" y="81"/>
      <point x="99" y="114"/>
      <point x="135" y="142" type="curve"/>
      <point x="145" y="21"/>
      <point x="205" y="-10"/>
      <point x="306" y="-10" type="curve" smooth="yes"/>
      <point x="385" y="-10"/>
      <point x="448" y="26"/>
      <point x="448" y="99" type="curve" smooth="yes"/>
      <point x="448" y="167"/>
      <point x="395" y="218"/>
      <point x="309" y="218" type="curve" smooth="yes"/>
      <point x="281" y="218"/>
      <point x="255" y="212"/>
      <point x="236" y="205" type="curve"/>
      <point x="236" y="760" type="line"/>
      <point x="12" y="760" type="line"/>
      <point x="12" y="756" type="line"/>
      <point x="57" y="756" type="line" smooth="yes"/>
      <point x="97" y="756"/>
      <point x="129" y="753"/>
      <point x="129" y="685" type="curve" smooth="yes"/>
      <point x="129" y="213" type="line" smooth="yes"/>
      <point x="129" y="189"/>
      <point x="131" y="167"/>
      <point x="134" y="154" type="curve"/>
      <point x="82" y="108"/>
      <point x="52" y="67"/>
      <point x="27" y="11" type="curve"/>
    </contour>
    <contour>
      <point x="341" y="9" type="curve" smooth="yes"/>
      <point x="263" y="9"/>
      <point x="236" y="36"/>
      <point x="236" y="195" type="curve"/>
      <point x="255" y="202"/>
      <point x="282" y="208"/>
      <point x="309" y="208" type="curve" smooth="yes"/>
      <point x="386" y="208"/>
      <point x="435" y="161"/>
      <point x="435" y="100" type="curve" smooth="yes"/>
      <point x="435" y="39"/>
      <point x="395" y="9"/>
    </contour>
  </outline>
</glyph>
<glyph name="uni0238" format="2">
  <advance width="1094"/>
  <unicode hex="0238"/>
  <anchor x="547" y="0" name="bottom"/>
  <anchor x="547" y="760" name="top"/>
  <outline>
    <contour>
      <point x="319" y="-10" type="curve" smooth="yes"/>
      <point x="393" y="-10"/>
      <point x="528" y="4"/>
      <point x="547" y="205" type="curve"/>
      <point x="565" y="-2"/>
      <point x="699" y="-10"/>
      <point x="772" y="-10" type="curve" smooth="yes"/>
      <point x="934" y="-10"/>
      <point x="1027" y="101"/>
      <point x="1027" y="270" type="curve" smooth="yes"/>
      <point x="1027" y="443"/>
      <point x="966" y="548"/>
      <point x="812" y="548" type="curve" smooth="yes"/>
      <point x="700" y="548"/>
      <point x="628" y="486"/>
      <point x="600" y="362" type="curve"/>
      <point x="598" y="362" type="line"/>
      <point x="598" y="441"/>
      <point x="600" y="538"/>
      <point x="600" y="579" type="curve" smooth="yes"/>
      <point x="600" y="760" type="line"/>
      <point x="383" y="760" type="line"/>
      <point x="383" y="750" type="line"/>
      <point x="417" y="750" type="line" smooth="yes"/>
      <point x="469" y="750"/>
      <point x="493" y="745"/>
      <point x="493" y="674" type="curve" smooth="yes"/>
      <point x="493" y="577" type="line" smooth="yes"/>
      <point x="493" y="520"/>
      <point x="496" y="438"/>
      <point x="494" y="365" type="curve"/>
      <point x="492" y="365" type="line"/>
      <point x="466" y="483"/>
      <point x="388" y="548"/>
      <point x="278" y="548" type="curve" smooth="yes"/>
      <point x="133" y="548"/>
      <point x="66" y="455"/>
      <point x="66" y="269" type="curve" smooth="yes"/>
      <point x="66" y="97"/>
      <point x="159" y="-10"/>
    </contour>
    <contour>
      <point x="328" y="2" type="curve" smooth="yes"/>
      <point x="222" y="2"/>
      <point x="174" y="103"/>
      <point x="174" y="269" type="curve" smooth="yes"/>
      <point x="174" y="416"/>
      <point x="222" y="510"/>
      <point x="327" y="510" type="curve" smooth="yes"/>
      <point x="436" y="510"/>
      <point x="494" y="402"/>
      <point x="494" y="267" type="curve" smooth="yes"/>
      <point x="494" y="100"/>
      <point x="457" y="2"/>
    </contour>
    <contour>
      <point x="762" y="2" type="curve" smooth="yes"/>
      <point x="630" y="2"/>
      <point x="599" y="109"/>
      <point x="599" y="267" type="curve" smooth="yes"/>
      <point x="599" y="412"/>
      <point x="658" y="513"/>
      <point x="768" y="513" type="curve" smooth="yes"/>
      <point x="877" y="513"/>
      <point x="920" y="416"/>
      <point x="920" y="269" type="curve" smooth="yes"/>
      <point x="920" y="107"/>
      <point x="868" y="2"/>
    </contour>
  </outline>
</glyph>
<glyph name="uni023A" format="2">
  <advance width="842"/>
  <unicode hex="023A"/>
  <anchor x="409" y="-90" name="bottom"/>
  <anchor x="409" y="714" name="top"/>
  <anchor x="684" y="714" name="topright"/>
  <outline>
    <contour>
      <point x="224" y="-90" type="line"/>
      <point x="236" y="-90" type="line"/>
      <point x="631" y="760" type="line"/>
      <point x="619" y="760" type="line"/>
    </contour>
    <component base="A"/>
  </outline>
</glyph>
<glyph name="uni024A" format="2">
  <advance width="945"/>
  <unicode hex="024A"/>
  <anchor x="472" y="-240" name="bottom"/>
  <anchor x="472" y="714" name="top"/>
  <outline>
    <contour>
      <point x="841" y="-240" type="curve" smooth="yes"/>
      <point x="913" y="-240"/>
      <point x="948" y="-230"/>
      <point x="978" y="-224" type="curve"/>
      <point x="978" y="-214" type="line"/>
      <point x="950" y="-220"/>
      <point x="923" y="-223"/>
      <point x="888" y="-223" type="curve" smooth="yes"/>
      <point x="821" y="-223"/>
      <point x="801" y="-159"/>
      <point x="801" y="-64" type="curve" smooth="yes"/>
      <point x="801" y="622" type="line" smooth="yes"/>
      <point x="801" y="689"/>
      <point x="829" y="704"/>
      <point x="856" y="704" type="curve" smooth="yes"/>
      <point x="913" y="704" type="line"/>
      <point x="913" y="714" type="line"/>
      <point x="689" y="714" type="line"/>
      <point x="689" y="535" type="line"/>
      <point x="687" y="535" type="line"/>
      <point x="656" y="637"/>
      <point x="591" y="723"/>
      <point x="433" y="723" type="curve" smooth="yes"/>
      <point x="172" y="723"/>
      <point x="68" y="544"/>
      <point x="68" y="361" type="curve" smooth="yes"/>
      <point x="68" y="161"/>
      <point x="167" y="-11"/>
      <point x="409" y="-11" type="curve" smooth="yes"/>
      <point x="571" y="-11"/>
      <point x="645" y="57"/>
      <point x="686" y="191" type="curve"/>
      <point x="688" y="191" type="line"/>
      <point x="689" y="123"/>
      <point x="688" y="51"/>
      <point x="688" y="18" type="curve" smooth="yes"/>
      <point x="688" y="-90" type="line" smooth="yes"/>
      <point x="688" y="-191"/>
      <point x="746" y="-240"/>
    </contour>
    <contour>
      <point x="438" y="4" type="curve" smooth="yes"/>
      <point x="262" y="4"/>
      <point x="182" y="129"/>
      <point x="182" y="360" type="curve" smooth="yes"/>
      <point x="182" y="558"/>
      <point x="259" y="708"/>
      <point x="444" y="708" type="curve" smooth="yes"/>
      <point x="650" y="708"/>
      <point x="689" y="560"/>
      <point x="689" y="358" type="curve" smooth="yes"/>
      <point x="689" y="76"/>
      <point x="581" y="4"/>
    </contour>
  </outline>
</glyph>
<glyph name="uni024E" format="2">
  <advance width="739"/>
  <unicode hex="024E"/>
  <anchor x="365" y="0" name="bottom"/>
  <anchor x="365" y="714" name="top"/>
  <anchor x="727" y="714" name="topright"/>
  <outline>
    <contour>
      <point x="-4" y="518" type="line"/>
      <point x="733" y="518" type="line"/>
      <point x="733" y="528" type="line"/>
      <point x="-4" y="528" type="line"/>
    </contour>
    <component base="Y"/>
  </outline>
</glyph>
<glyph name="uni0254" format="2">
  <advance width="582"/>
  <unicode hex="0254"/>
  <anchor x="291" y="0" name="bottom"/>
  <anchor x="291" y="536" name="top"/>
  <outline>
    <contour>
      <point x="244" y="-10" type="curve" smooth="yes"/>
      <point x="402" y="-10"/>
      <point x="514" y="59"/>
      <point x="514" y="274" type="curve" smooth="yes"/>
      <point x="514" y="481"/>
      <point x="400" y="546"/>
      <point x="248" y="546" type="curve" smooth="yes"/>
      <point x="111" y="546"/>
      <point x="41" y="494"/>
      <point x="41" y="432" type="curve" smooth="yes"/>
      <point x="41" y="391"/>
      <point x="75" y="375"/>
      <point x="136" y="378" type="curve"/>
      <point x="129" y="477"/>
      <point x="161" y="536"/>
      <point x="247" y="536" type="curve" smooth="yes"/>
      <point x="334" y="536"/>
      <point x="407" y="473"/>
      <point x="407" y="276" type="curve" smooth="yes"/>
      <point x="407" y="69"/>
      <point x="353" y="0"/>
      <point x="250" y="0" type="curve" smooth="yes"/>
      <point x="163" y="0"/>
      <point x="119" y="59"/>
      <point x="119" y="149" type="curve"/>
      <point x="61" y="149"/>
      <point x="41" y="129"/>
      <point x="41" y="102" type="curve" smooth="yes"/>
      <point x="41" y="51"/>
      <point x="101" y="-10"/>
    </contour>
  </outline>
</glyph>
<glyph name="uni0264" format="2">
  <advance width="770"/>
  <unicode hex="0264"/>
  <anchor x="386" y="0" name="bottom"/>
  <anchor x="386" y="536" name="top"/>
  <outline>
    <contour>
      <point x="390" y="-3" type="curve" smooth="yes"/>
      <point x="462" y="-3"/>
      <point x="506" y="48"/>
      <point x="506" y="117" type="curve" smooth="yes"/>
      <point x="506" y="191"/>
      <point x="472" y="274"/>
      <point x="427" y="334" type="curve"/>
      <point x="473" y="441"/>
      <point x="521" y="494"/>
      <point x="609" y="494" type="curve" smooth="yes"/>
      <point x="669" y="494"/>
      <point x="716" y="469"/>
      <point x="731" y="408" type="curve"/>
      <point x="751" y="420"/>
      <point x="759" y="437"/>
      <point x="759" y="459" type="curve" smooth="yes"/>
      <point x="759" y="509"/>
      <point x="716" y="543"/>
      <point x="644" y="543" type="curve" smooth="yes"/>
      <point x="546" y="543"/>
      <point x="483" y="469"/>
      <point x="419" y="346" type="curve"/>
      <point x="383" y="368"/>
      <point x="315" y="543"/>
      <point x="156" y="543" type="curve" smooth="yes"/>
      <point x="52" y="543"/>
      <point x="15" y="491"/>
      <point x="15" y="446" type="curve" smooth="yes"/>
      <point x="15" y="423"/>
      <point x="28" y="406"/>
      <point x="49" y="400" type="curve"/>
      <point x="58" y="465"/>
      <point x="96" y="479"/>
      <point x="133" y="479" type="curve" smooth="yes"/>
      <point x="237" y="479"/>
      <point x="284" y="382"/>
      <point x="350" y="276" type="curve"/>
      <point x="317" y="222"/>
      <point x="291" y="150"/>
      <point x="291" y="97" type="curve" smooth="yes"/>
      <point x="291" y="37"/>
      <point x="325" y="-3"/>
    </contour>
    <contour>
      <point x="364" y="14" type="curve" smooth="yes"/>
      <point x="327" y="14"/>
      <point x="303" y="48"/>
      <point x="303" y="96" type="curve" smooth="yes"/>
      <point x="303" y="141"/>
      <point x="326" y="212"/>
      <point x="356" y="269" type="curve"/>
      <point x="390" y="215"/>
      <point x="413" y="148"/>
      <point x="413" y="105" type="curve" smooth="yes"/>
      <point x="413" y="53"/>
      <point x="393" y="14"/>
    </contour>
  </outline>
</glyph>
<glyph name="uni026D" format="2">
  <advance width="364"/>
  <unicode hex="026D"/>
  <anchor x="182" y="-240" name="bottom"/>
  <anchor x="182" y="760" name="top"/>
  <outline>
    <contour>
      <point x="292" y="-240" type="curve" smooth="yes"/>
      <point x="344" y="-240"/>
      <point x="381" y="-234"/>
      <point x="409" y="-228" type="curve"/>
      <point x="409" y="-218" type="line"/>
      <point x="382" y="-223"/>
      <point x="359" y="-226"/>
      <point x="332" y="-226" type="curve" smooth="yes"/>
      <point x="286" y="-226"/>
      <point x="250" y="-215"/>
      <point x="250" y="-124" type="curve" smooth="yes"/>
      <point x="250" y="760" type="line"/>
      <point x="28" y="760" type="line"/>
      <point x="28" y="750" type="line"/>
      <point x="75" y="750" type="line" smooth="yes"/>
      <point x="122" y="750"/>
      <point x="143" y="738"/>
      <point x="143" y="681" type="curve" smooth="yes"/>
      <point x="143" y="-87" type="line" smooth="yes"/>
      <point x="143" y="-198"/>
      <point x="181" y="-240"/>
    </contour>
  </outline>
</glyph>
<glyph name="uni0270" format="2">
  <advance width="1135"/>
  <unicode hex="0270"/>
  <anchor x="564" y="-231" name="bottom"/>
  <anchor x="564" y="536" name="top"/>
  <outline>
    <contour>
      <point x="877" y="-233" type="line"/>
      <point x="1101" y="-233" type="line"/>
      <point x="1101" y="-223" type="line"/>
      <point x="1057" y="-223" type="line" smooth="yes"/>
      <point x="999" y="-223"/>
      <point x="982" y="-215"/>
      <point x="982" y="-160" type="curve" smooth="yes"/>
      <point x="982" y="458" type="line" smooth="yes"/>
      <point x="982" y="521"/>
      <point x="995" y="526"/>
      <point x="1067" y="526" type="curve" smooth="yes"/>
      <point x="1091" y="526" type="line"/>
      <point x="1091" y="536" type="line"/>
      <point x="770" y="536" type="line"/>
      <point x="770" y="526" type="line"/>
      <point x="795" y="526" type="line"/>
      <point x="864" y="526"/>
      <point x="876" y="520"/>
      <point x="876" y="459" type="curve" smooth="yes"/>
      <point x="876" y="197" type="line" smooth="yes"/>
      <point x="876" y="114"/>
      <point x="831" y="24"/>
      <point x="732" y="24" type="curve" smooth="yes"/>
      <point x="638" y="24"/>
      <point x="605" y="86"/>
      <point x="605" y="165" type="curve" smooth="yes"/>
      <point x="605" y="536" type="line"/>
      <point x="399" y="536" type="line"/>
      <point x="399" y="526" type="line"/>
      <point x="417" y="526" type="line" smooth="yes"/>
      <point x="491" y="526"/>
      <point x="498" y="521"/>
      <point x="498" y="455" type="curve" smooth="yes"/>
      <point x="498" y="184" type="line" smooth="yes"/>
      <point x="498" y="103"/>
      <point x="453" y="23"/>
      <point x="350" y="23" type="curve" smooth="yes"/>
      <point x="263" y="23"/>
      <point x="227" y="78"/>
      <point x="227" y="165" type="curve" smooth="yes"/>
      <point x="227" y="536" type="line"/>
      <point x="26" y="536" type="line"/>
      <point x="26" y="526" type="line"/>
      <point x="39" y="526" type="line" smooth="yes"/>
      <point x="113" y="526"/>
      <point x="120" y="521"/>
      <point x="120" y="452" type="curve" smooth="yes"/>
      <point x="120" y="176" type="line" smooth="yes"/>
      <point x="120" y="54"/>
      <point x="181" y="-11"/>
      <point x="314" y="-10" type="curve" smooth="yes"/>
      <point x="425" y="-9"/>
      <point x="480" y="44"/>
      <point x="504" y="138" type="curve"/>
      <point x="506" y="138" type="line"/>
      <point x="522" y="37"/>
      <point x="579" y="-10"/>
      <point x="690" y="-10" type="curve" smooth="yes"/>
      <point x="784" y="-10"/>
      <point x="848" y="37"/>
      <point x="875" y="126" type="curve"/>
      <point x="877" y="126" type="line"/>
      <point x="877" y="107"/>
      <point x="877" y="81"/>
      <point x="877" y="59" type="curve" smooth="yes"/>
    </contour>
  </outline>
</glyph>
<glyph name="uni0276" format="2">
  <advance width="975"/>
  <unicode hex="0276"/>
  <anchor x="488" y="0" name="bottom"/>
  <anchor x="488" y="536" name="top"/>
  <outline>
    <contour>
      <point x="373" y="-8" type="curve" smooth="yes"/>
      <point x="401" y="-8"/>
      <point x="445" y="-6"/>
      <point x="481" y="0" type="curve"/>
      <point x="917" y="0" type="line"/>
      <point x="924" y="152" type="line"/>
      <point x="914" y="152" type="line"/>
      <point x="903" y="33" type="line" smooth="yes"/>
      <point x="898" y="17"/>
      <point x="873" y="10"/>
      <point x="837" y="10" type="curve" smooth="yes"/>
      <point x="587" y="10" type="line"/>
      <point x="587" y="273" type="line"/>
      <point x="834" y="273" type="line"/>
      <point x="834" y="283" type="line"/>
      <point x="587" y="283" type="line"/>
      <point x="587" y="526" type="line"/>
      <point x="796" y="526" type="line" smooth="yes"/>
      <point x="847" y="526"/>
      <point x="866" y="504"/>
      <point x="872" y="485" type="curve" smooth="yes"/>
      <point x="882" y="383" type="line"/>
      <point x="892" y="383" type="line"/>
      <point x="886" y="536" type="line"/>
      <point x="483" y="536" type="line"/>
      <point x="456" y="539"/>
      <point x="415" y="542"/>
      <point x="367" y="542" type="curve" smooth="yes"/>
      <point x="191" y="542"/>
      <point x="66" y="465"/>
      <point x="66" y="267" type="curve" smooth="yes"/>
      <point x="66" y="40"/>
      <point x="225" y="-8"/>
    </contour>
    <contour>
      <point x="387" y="2" type="curve" smooth="yes"/>
      <point x="248" y="2"/>
      <point x="173" y="68"/>
      <point x="173" y="267" type="curve" smooth="yes"/>
      <point x="173" y="467"/>
      <point x="230" y="532"/>
      <point x="384" y="532" type="curve" smooth="yes"/>
      <point x="414" y="532"/>
      <point x="453" y="527"/>
      <point x="485" y="516" type="curve"/>
      <point x="485" y="17" type="line"/>
      <point x="455" y="7"/>
      <point x="417" y="2"/>
    </contour>
  </outline>
</glyph>
<glyph name="uni027A" format="2">
  <advance width="526"/>
  <unicode hex="027A"/>
  <anchor x="264" y="0" name="bottom"/>
  <anchor x="264" y="760" name="top"/>
  <outline>
    <contour>
      <point x="133" y="-10" type="curve" smooth="yes"/>
      <point x="218" y="-10"/>
      <point x="282" y="65"/>
      <point x="304" y="144" type="curve"/>
      <point x="305" y="144" type="line"/>
      <point x="305" y="0" type="line"/>
      <point x="513" y="0" type="line"/>
      <point x="513" y="10" type="line"/>
      <point x="467" y="10" type="line" smooth="yes"/>
      <point x="421" y="10"/>
      <point x="411" y="13"/>
      <point x="411" y="83" type="curve" smooth="yes"/>
      <point x="411" y="760" type="line"/>
      <point x="179" y="760" type="line"/>
      <point x="179" y="750" type="line"/>
      <point x="246" y="750" type="line" smooth="yes"/>
      <point x="294" y="750"/>
      <point x="305" y="748"/>
      <point x="305" y="674" type="curve" smooth="yes"/>
      <point x="305" y="227" type="line" smooth="yes"/>
      <point x="305" y="131"/>
      <point x="255" y="25"/>
      <point x="175" y="25" type="curve" smooth="yes"/>
      <point x="129" y="25"/>
      <point x="105" y="50"/>
      <point x="105" y="138" type="curve"/>
      <point x="50" y="138"/>
      <point x="17" y="113"/>
      <point x="17" y="77" type="curve" smooth="yes"/>
      <point x="17" y="29"/>
      <point x="62" y="-10"/>
    </contour>
  </outline>
</glyph>
<glyph name="uni028F" format="2">
  <advance width="667"/>
  <unicode hex="028F"/>
  <anchor x="325" y="0" name="bottom"/>
  <anchor x="325" y="536" name="top"/>
  <outline>
    <contour>
      <point x="159" y="0" type="line"/>
      <point x="497" y="0" type="line"/>
      <point x="497" y="10" type="line"/>
      <point x="467" y="10" type="line" smooth="yes"/>
      <point x="426" y="10"/>
      <point x="382" y="12"/>
      <point x="382" y="48" type="curve" smooth="yes"/>
      <point x="382" y="203" type="line"/>
      <point x="552" y="493" type="line" smooth="yes"/>
      <point x="569" y="519"/>
      <point x="587" y="526"/>
      <point x="650" y="526" type="curve" smooth="yes"/>
      <point x="642" y="526" type="line"/>
      <point x="642" y="536" type="line"/>
      <point x="423" y="536" type="line"/>
      <point x="423" y="526" type="line"/>
      <point x="481" y="526" type="line" smooth="yes"/>
      <point x="518" y="526"/>
      <point x="530" y="519"/>
      <point x="530" y="499" type="curve" smooth="yes"/>
      <point x="530" y="476"/>
      <point x="508" y="438"/>
      <point x="495" y="418" type="curve" smooth="yes"/>
      <point x="377" y="215" type="line"/>
      <point x="250" y="410" type="line" smooth="yes"/>
      <point x="233" y="433"/>
      <point x="210" y="469"/>
      <point x="210" y="496" type="curve" smooth="yes"/>
      <point x="210" y="520"/>
      <point x="234" y="526"/>
      <point x="267" y="526" type="curve" smooth="yes"/>
      <point x="310" y="526" type="line"/>
      <point x="310" y="536" type="line"/>
      <point x="4" y="536" type="line"/>
      <point x="4" y="526" type="line"/>
      <point x="9" y="526" type="line" smooth="yes"/>
      <point x="43" y="526"/>
      <point x="58" y="518"/>
      <point x="69" y="505" type="curve" smooth="yes"/>
      <point x="271" y="211" type="line"/>
      <point x="271" y="44" type="line" smooth="yes"/>
      <point x="271" y="12"/>
      <point x="222" y="10"/>
      <point x="180" y="10" type="curve" smooth="yes"/>
      <point x="159" y="10" type="line"/>
    </contour>
  </outline>
</glyph>
<glyph name="uni029F" format="2">
  <advance width="602"/>
  <unicode hex="029F"/>
  <anchor x="301" y="0" name="bottom"/>
  <anchor x="301" y="536" name="top"/>
  <outline>
    <contour>
      <point x="38" y="0" type="line"/>
      <point x="571" y="0" type="line"/>
      <point x="576" y="168" type="line"/>
      <point x="566" y="168" type="line"/>
      <point x="561" y="104" type="line" smooth="yes"/>
      <point x="553" y="33"/>
      <point x="523" y="10"/>
      <point x="465" y="10" type="curve" smooth="yes"/>
      <point x="252" y="10" type="line"/>
      <point x="252" y="480" type="line" smooth="yes"/>
      <point x="252" y="518"/>
      <point x="262" y="526"/>
      <point x="288" y="526" type="curve" smooth="yes"/>
      <point x="356" y="526" type="line"/>
      <point x="356" y="536" type="line"/>
      <point x="40" y="536" type="line"/>
      <point x="40" y="526" type="line"/>
      <point x="100" y="526" type="line" smooth="yes"/>
      <point x="135" y="526"/>
      <point x="145" y="523"/>
      <point x="145" y="480" type="curve" smooth="yes"/>
      <point x="145" y="56" type="line" smooth="yes"/>
      <point x="145" y="12"/>
      <point x="139" y="10"/>
      <point x="84" y="10" type="curve" smooth="yes"/>
      <point x="38" y="10" type="line"/>
    </contour>
  </outline>
</glyph>
<glyph name="uni02A7" format="2">
  <advance width="673"/>
  <unicode hex="02A7"/>
  <anchor x="337" y="-236" name="bottom"/>
  <anchor x="337" y="765" name="top"/>
  <outline>
    <contour>
      <point x="284" y="-236" type="curve" smooth="yes"/>
      <point x="405" y="-236"/>
      <point x="485" y="-201"/>
      <point x="485" y="-34" type="curve" smooth="yes"/>
      <point x="485" y="594" type="line" smooth="yes"/>
      <point x="485" y="729"/>
      <point x="509" y="755"/>
      <point x="572" y="755" type="curve" smooth="yes"/>
      <point x="624" y="755"/>
      <point x="640" y="722"/>
      <point x="640" y="603" type="curve"/>
      <point x="699" y="603"/>
      <point x="730" y="625"/>
      <point x="730" y="660" type="curve" smooth="yes"/>
      <point x="730" y="720"/>
      <point x="685" y="765"/>
      <point x="577" y="765" type="curve" smooth="yes"/>
      <point x="441" y="765"/>
      <point x="377" y="704"/>
      <point x="378" y="561" type="curve" smooth="yes"/>
      <point x="378" y="536" type="line"/>
      <point x="222" y="536" type="line"/>
      <point x="222" y="659" type="line"/>
      <point x="212" y="659" type="line"/>
      <point x="198" y="600"/>
      <point x="177" y="570"/>
      <point x="145" y="554" type="curve" smooth="yes"/>
      <point x="115" y="538"/>
      <point x="74" y="535"/>
      <point x="23" y="536" type="curve"/>
      <point x="23" y="526" type="line"/>
      <point x="115" y="526" type="line"/>
      <point x="115" y="145" type="line" smooth="yes"/>
      <point x="115" y="41"/>
      <point x="155" y="-10"/>
      <point x="263" y="-10" type="curve" smooth="yes"/>
      <point x="312" y="-10"/>
      <point x="350" y="-5"/>
      <point x="378" y="0" type="curve"/>
      <point x="378" y="-82" type="line" smooth="yes"/>
      <point x="378" y="-159"/>
      <point x="374" y="-226"/>
      <point x="291" y="-226" type="curve" smooth="yes"/>
      <point x="237" y="-226"/>
      <point x="220" y="-183"/>
      <point x="220" y="-76" type="curve"/>
      <point x="164" y="-76"/>
      <point x="131" y="-99"/>
      <point x="131" y="-136" type="curve" smooth="yes"/>
      <point x="131" y="-178"/>
      <point x="162" y="-236"/>
    </contour>
    <contour>
      <point x="316" y="5" type="curve" smooth="yes"/>
      <point x="253" y="5"/>
      <point x="225" y="38"/>
      <point x="222" y="124" type="curve" smooth="yes"/>
      <point x="222" y="526" type="line"/>
      <point x="378" y="526" type="line"/>
      <point x="378" y="10" type="line"/>
      <point x="358" y="7"/>
      <point x="338" y="5"/>
    </contour>
  </outline>
</glyph>
<glyph name="uni02AC" format="2">
  <advance width="677"/>
  <unicode hex="02AC"/>
  <anchor x="334" y="0" name="bottom"/>
  <anchor x="329" y="717" name="top"/>
  <outline>
    <contour>
      <point x="180" y="384" type="line"/>
      <point x="222" y="384" type="line"/>
      <point x="337" y="656" type="line"/>
      <point x="339" y="656" type="line"/>
      <point x="351" y="623"/>
      <point x="361" y="603"/>
      <point x="373" y="572" type="curve" smooth="yes"/>
      <point x="451" y="384" type="line"/>
      <point x="486" y="384" type="line"/>
      <point x="595" y="681" type="line" smooth="yes"/>
      <point x="602" y="694"/>
      <point x="613" y="710"/>
      <point x="648" y="710" type="curve" smooth="yes"/>
      <point x="658" y="710" type="line"/>
      <point x="658" y="717" type="line"/>
      <point x="507" y="717" type="line"/>
      <point x="507" y="710" type="line"/>
      <point x="534" y="710" type="line" smooth="yes"/>
      <point x="568" y="710"/>
      <point x="583" y="702"/>
      <point x="583" y="685" type="curve" smooth="yes"/>
      <point x="583" y="678"/>
      <point x="581" y="678"/>
      <point x="580" y="675" type="curve" smooth="yes"/>
      <point x="540" y="567" type="line" smooth="yes"/>
      <point x="525" y="524"/>
      <point x="509" y="477"/>
      <point x="497" y="440" type="curve"/>
      <point x="495" y="440" type="line"/>
      <point x="490" y="449"/>
      <point x="484" y="465"/>
      <point x="473" y="493" type="curve" smooth="yes"/>
      <point x="386" y="713" type="line"/>
      <point x="350" y="713" type="line"/>
      <point x="261" y="495" type="line" smooth="yes"/>
      <point x="253" y="478"/>
      <point x="244" y="460"/>
      <point x="237" y="445" type="curve"/>
      <point x="235" y="445" type="line"/>
      <point x="231" y="442"/>
      <point x="208" y="536"/>
      <point x="207" y="525" type="curve" smooth="yes"/>
      <point x="163" y="677" type="line" smooth="yes"/>
      <point x="162" y="680"/>
      <point x="162" y="680"/>
      <point x="162" y="686" type="curve" smooth="yes"/>
      <point x="162" y="704"/>
      <point x="175" y="710"/>
      <point x="206" y="710" type="curve" smooth="yes"/>
      <point x="216" y="710" type="line"/>
      <point x="216" y="717" type="line"/>
      <point x="11" y="717" type="line"/>
      <point x="11" y="710" type="line"/>
      <point x="44" y="710"/>
      <point x="76" y="702"/>
      <point x="80" y="692" type="curve" smooth="yes"/>
    </contour>
    <contour>
      <point x="180" y="0" type="line"/>
      <point x="222" y="0" type="line"/>
      <point x="337" y="272" type="line"/>
      <point x="339" y="272" type="line"/>
      <point x="351" y="239"/>
      <point x="361" y="219"/>
      <point x="373" y="189" type="curve" smooth="yes"/>
      <point x="451" y="0" type="line"/>
      <point x="486" y="0" type="line"/>
      <point x="595" y="297" type="line" smooth="yes"/>
      <point x="602" y="311"/>
      <point x="613" y="326"/>
      <point x="648" y="326" type="curve" smooth="yes"/>
      <point x="658" y="326" type="line"/>
      <point x="658" y="334" type="line"/>
      <point x="507" y="334" type="line"/>
      <point x="507" y="326" type="line"/>
      <point x="534" y="326" type="line" smooth="yes"/>
      <point x="568" y="326"/>
      <point x="583" y="319"/>
      <point x="583" y="302" type="curve" smooth="yes"/>
      <point x="583" y="294"/>
      <point x="581" y="294"/>
      <point x="580" y="291" type="curve" smooth="yes"/>
      <point x="540" y="184" type="line" smooth="yes"/>
      <point x="525" y="141"/>
      <point x="509" y="94"/>
      <point x="497" y="57" type="curve"/>
      <point x="495" y="57" type="line"/>
      <point x="490" y="66"/>
      <point x="484" y="81"/>
      <point x="473" y="110" type="curve" smooth="yes"/>
      <point x="386" y="330" type="line"/>
      <point x="350" y="330" type="line"/>
      <point x="261" y="112" type="line" smooth="yes"/>
      <point x="253" y="94"/>
      <point x="244" y="76"/>
      <point x="237" y="61" type="curve"/>
      <point x="235" y="61" type="line"/>
      <point x="231" y="58"/>
      <point x="208" y="152"/>
      <point x="207" y="141" type="curve" smooth="yes"/>
      <point x="163" y="293" type="line" smooth="yes"/>
      <point x="162" y="297"/>
      <point x="162" y="297"/>
      <point x="162" y="302" type="curve" smooth="yes"/>
      <point x="162" y="320"/>
      <point x="175" y="326"/>
      <point x="206" y="326" type="curve" smooth="yes"/>
      <point x="216" y="326" type="line"/>
      <point x="216" y="334" type="line"/>
      <point x="11" y="334" type="line"/>
      <point x="11" y="326" type="line"/>
      <point x="44" y="326"/>
      <point x="76" y="318"/>
      <point x="80" y="308" type="curve" smooth="yes"/>
    </contour>
  </outline>
</glyph>
<glyph name="uni02BF" format="2">
  <advance width="198"/>
  <unicode hex="02BF"/>
  <outline>
    <contour>
      <point x="168" y="585" type="curve"/>
      <point x="168" y="595" type="line"/>
      <point x="91" y="595"/>
      <point x="42" y="633"/>
      <point x="42" y="700" type="curve" smooth="yes"/>
      <point x="42" y="764"/>
      <point x="91" y="800"/>
      <point x="168" y="800" type="curve"/>
      <point x="168" y="810" type="line"/>
      <point x="80" y="810"/>
      <point x="30" y="769"/>
      <point x="30" y="700" type="curve" smooth="yes"/>
      <point x="30" y="627"/>
      <point x="80" y="585"/>
    </contour>
  </outline>
</glyph>
<glyph name="uni02C1" format="2">
  <advance width="346"/>
  <unicode hex="02C1"/>
  <outline>
    <contour>
      <point x="184" y="491" type="line"/>
      <point x="194" y="491" type="line"/>
      <point x="193" y="571" type="line"/>
      <point x="139" y="587"/>
      <point x="117" y="615"/>
      <point x="117" y="668" type="curve" smooth="yes"/>
      <point x="117" y="725"/>
      <point x="151" y="750"/>
      <point x="192" y="750" type="curve" smooth="yes"/>
      <point x="244" y="750"/>
      <point x="261" y="728"/>
      <point x="261" y="652" type="curve"/>
      <point x="310" y="652"/>
      <point x="318" y="671"/>
      <point x="318" y="685" type="curve" smooth="yes"/>
      <point x="318" y="723"/>
      <point x="279" y="760"/>
      <point x="191" y="760" type="curve" smooth="yes"/>
      <point x="99" y="760"/>
      <point x="47" y="719"/>
      <point x="47" y="661" type="curve" smooth="yes"/>
      <point x="47" y="604"/>
      <point x="91" y="563"/>
      <point x="186" y="553" type="curve"/>
    </contour>
  </outline>
</glyph>
<glyph name="uni02C4" format="2">
  <advance width="323"/>
  <unicode hex="02C4"/>
  <outline>
    <contour>
      <point x="21" y="571" type="line"/>
      <point x="35" y="571" type="line"/>
      <point x="67" y="599"/>
      <point x="135" y="705"/>
      <point x="161" y="745" type="curve"/>
      <point x="188" y="705"/>
      <point x="257" y="599"/>
      <point x="288" y="571" type="curve"/>
      <point x="302" y="571" type="line"/>
      <point x="302" y="579" type="line"/>
      <point x="253" y="652"/>
      <point x="203" y="732"/>
      <point x="174" y="783" type="curve"/>
      <point x="147" y="783" type="line"/>
      <point x="113" y="720"/>
      <point x="65" y="643"/>
      <point x="21" y="579" type="curve"/>
    </contour>
  </outline>
</glyph>
<glyph name="dotaccent" format="2">
  <advance width="187"/>
  <unicode hex="02D9"/>
  <outline>
    <contour>
      <point x="94" y="640" type="curve" smooth="yes"/>
      <point x="122" y="640"/>
      <point x="147" y="656"/>
      <point x="147" y="698" type="curve" smooth="yes"/>
      <point x="147" y="741"/>
      <point x="122" y="756"/>
      <point x="94" y="756" type="curve" smooth="yes"/>
      <point x="64" y="756"/>
      <point x="40" y="741"/>
      <point x="40" y="698" type="curve" smooth="yes"/>
      <point x="40" y="656"/>
      <point x="64" y="640"/>
    </contour>
  </outline>
</glyph>
<glyph name="hungarumlaut" format="2">
  <advance width="456"/>
  <unicode hex="02DD"/>
  <outline>
    <contour>
      <point x="40" y="606" type="line"/>
      <point x="44" y="606" type="line"/>
      <point x="93" y="650"/>
      <point x="173" y="719"/>
      <point x="208" y="756" type="curve"/>
      <point x="208" y="766" type="line"/>
      <point x="137" y="766" type="line"/>
      <point x="107" y="719"/>
      <point x="69" y="656"/>
      <point x="40" y="617" type="curve"/>
    </contour>
    <contour>
      <point x="249" y="606" type="line"/>
      <point x="253" y="606" type="line"/>
      <point x="301" y="650"/>
      <point x="381" y="719"/>
      <point x="416" y="756" type="curve"/>
      <point x="416" y="766" type="line"/>
      <point x="345" y="766" type="line"/>
      <point x="315" y="719"/>
      <point x="277" y="656"/>
      <point x="249" y="617" type="curve"/>
    </contour>
  </outline>
</glyph>
<glyph name="uni02F0" format="2">
  <advance width="362"/>
  <unicode hex="02F0"/>
  <outline>
    <contour>
      <point x="40" y="-240" type="line"/>
      <point x="55" y="-240" type="line"/>
      <point x="86" y="-212"/>
      <point x="154" y="-106"/>
      <point x="180" y="-66" type="curve"/>
      <point x="207" y="-106"/>
      <point x="276" y="-212"/>
      <point x="307" y="-240" type="curve"/>
      <point x="322" y="-240" type="line"/>
      <point x="322" y="-233" type="line"/>
      <point x="272" y="-160"/>
      <point x="223" y="-79"/>
      <point x="194" y="-28" type="curve"/>
      <point x="166" y="-28" type="line"/>
      <point x="133" y="-92"/>
      <point x="85" y="-168"/>
      <point x="40" y="-233" type="curve"/>
    </contour>
  </outline>
</glyph>
<glyph name="uni02F3" format="2">
  <advance width="404"/>
  <unicode hex="02F3"/>
  <outline>
    <contour>
      <point x="201" y="-284" type="curve" smooth="yes"/>
      <point x="292" y="-284"/>
      <point x="342" y="-241"/>
      <point x="342" y="-173" type="curve" smooth="yes"/>
      <point x="342" y="-106"/>
      <point x="292" y="-63"/>
      <point x="201" y="-63" type="curve" smooth="yes"/>
      <point x="110" y="-63"/>
      <point x="59" y="-106"/>
      <point x="59" y="-173" type="curve" smooth="yes"/>
      <point x="59" y="-241"/>
      <point x="110" y="-284"/>
    </contour>
    <contour>
      <point x="201" y="-274" type="curve" smooth="yes"/>
      <point x="120" y="-274"/>
      <point x="71" y="-235"/>
      <point x="71" y="-173" type="curve" smooth="yes"/>
      <point x="71" y="-112"/>
      <point x="120" y="-73"/>
      <point x="201" y="-73" type="curve" smooth="yes"/>
      <point x="281" y="-73"/>
      <point x="330" y="-112"/>
      <point x="330" y="-173" type="curve" smooth="yes"/>
      <point x="330" y="-235"/>
      <point x="281" y="-274"/>
    </contour>
  </outline>
</glyph>
<glyph name="horncomb" format="2">
  <unicode hex="031B"/>
  <anchor x="-6" y="536" name="_topright"/>
  <outline>
    <contour>
      <point x="-90" y="549" type="line"/>
      <point x="13" y="550"/>
      <point x="79" y="588"/>
      <point x="79" y="687" type="curve" smooth="yes"/>
      <point x="79" y="736"/>
      <point x="53" y="771"/>
      <point x="8" y="771" type="curve" smooth="yes"/>
      <point x="-18" y="771"/>
      <point x="-47" y="762"/>
      <point x="-47" y="729" type="curve" smooth="yes"/>
      <point x="-47" y="670"/>
      <point x="35" y="697"/>
      <point x="35" y="653" type="curve" smooth="yes"/>
      <point x="35" y="588"/>
      <point x="-31" y="556"/>
      <point x="-90" y="559" type="curve"/>
    </contour>
  </outline>
</glyph>
<glyph name="dblarchinvertedbelowcomb" format="2">
  <unicode hex="032B"/>
  <anchor x="1" y="0" name="_bottom"/>
  <anchor x="1" y="-183" name="bottom"/>
  <outline>
    <contour>
      <point x="-93" y="-183" type="curve" smooth="yes"/>
      <point x="-45" y="-183"/>
      <point x="-12" y="-162"/>
      <point x="0" y="-119" type="curve"/>
      <point x="12" y="-162"/>
      <point x="43" y="-183"/>
      <point x="89" y="-183" type="curve" smooth="yes"/>
      <point x="159" y="-183"/>
      <point x="191" y="-144"/>
      <point x="194" y="-65" type="curve"/>
      <point x="184" y="-65" type="line"/>
      <point x="181" y="-128"/>
      <point x="151" y="-155"/>
      <point x="88" y="-155" type="curve" smooth="yes"/>
      <point x="34" y="-155"/>
      <point x="5" y="-129"/>
      <point x="6" y="-65" type="curve"/>
      <point x="-5" y="-65" type="line"/>
      <point x="-5" y="-129"/>
      <point x="-34" y="-155"/>
      <point x="-94" y="-155" type="curve" smooth="yes"/>
      <point x="-153" y="-155"/>
      <point x="-181" y="-128"/>
      <point x="-184" y="-65" type="curve"/>
      <point x="-194" y="-65" type="line"/>
      <point x="-189" y="-144"/>
      <point x="-158" y="-183"/>
    </contour>
  </outline>
</glyph>
<glyph name="caronbelowcomb" format="2">
  <unicode hex="032C"/>
  <anchor x="-1" y="0" name="_bottom"/>
  <anchor x="-1" y="-222" name="bottom"/>
  <outline>
    <contour>
      <point x="-44" y="-222" type="curve"/>
      <point x="39" y="-222" type="line"/>
      <point x="67" y="-177"/>
      <point x="121" y="-114"/>
      <point x="167" y="-74" type="curve"/>
      <point x="167" y="-62" type="line"/>
      <point x="159" y="-62" type="line"/>
      <point x="95" y="-103"/>
      <point x="36" y="-142"/>
      <point x="-2" y="-180" type="curve"/>
      <point x="-39" y="-142"/>
      <point x="-99" y="-103"/>
      <point x="-164" y="-62" type="curve"/>
      <point x="-171" y="-62" type="line"/>
      <point x="-171" y="-74" type="line"/>
      <point x="-125" y="-114"/>
      <point x="-70" y="-177"/>
    </contour>
  </outline>
</glyph>
<glyph name="brevebelowcomb" format="2">
  <unicode hex="032E"/>
  <anchor x="0" y="0" name="_bottom"/>
  <anchor x="0" y="-206" name="bottom"/>
  <outline>
    <contour>
      <point x="-3" y="-206" type="curve" smooth="yes"/>
      <point x="85" y="-206"/>
      <point x="153" y="-158"/>
      <point x="163" y="-68" type="curve"/>
      <point x="154" y="-68" type="line"/>
      <point x="136" y="-114"/>
      <point x="87" y="-146"/>
      <point x="-3" y="-146" type="curve" smooth="yes"/>
      <point x="-82" y="-146"/>
      <point x="-138" y="-115"/>
      <point x="-157" y="-68" type="curve"/>
      <point x="-166" y="-68" type="line"/>
      <point x="-156" y="-157"/>
      <point x="-88" y="-206"/>
    </contour>
  </outline>
</glyph>
<glyph name="seagullbelowcomb" format="2">
  <unicode hex="033C"/>
  <anchor x="-1" y="0" name="_bottom"/>
  <anchor x="-1" y="-183" name="bottom"/>
  <outline>
    <contour>
      <point x="-194" y="-183" type="curve"/>
      <point x="-184" y="-183" type="line"/>
      <point x="-181" y="-118"/>
      <point x="-152" y="-91"/>
      <point x="-90" y="-91" type="curve" smooth="yes"/>
      <point x="-34" y="-91"/>
      <point x="-5" y="-117"/>
      <point x="-6" y="-183" type="curve"/>
      <point x="5" y="-183" type="line"/>
      <point x="5" y="-117"/>
      <point x="35" y="-91"/>
      <point x="92" y="-91" type="curve" smooth="yes"/>
      <point x="152" y="-91"/>
      <point x="180" y="-118"/>
      <point x="183" y="-183" type="curve"/>
      <point x="193" y="-183" type="line"/>
      <point x="189" y="-102"/>
      <point x="158" y="-62"/>
      <point x="93" y="-62" type="curve" smooth="yes"/>
      <point x="45" y="-62"/>
      <point x="12" y="-83"/>
      <point x="0" y="-128" type="curve"/>
      <point x="-12" y="-83"/>
      <point x="-43" y="-62"/>
      <point x="-89" y="-62" type="curve" smooth="yes"/>
      <point x="-158" y="-62"/>
      <point x="-190" y="-102"/>
    </contour>
  </outline>
</glyph>
<glyph name="tildeverticalcomb" format="2">
  <unicode hex="033E"/>
  <anchor x="-3" y="536" name="_top"/>
  <anchor x="-3" y="883" name="top"/>
  <outline>
    <contour>
      <point x="-62" y="564" type="line"/>
      <point x="24" y="562"/>
      <point x="59" y="601"/>
      <point x="59" y="650" type="curve" smooth="yes"/>
      <point x="59" y="723"/>
      <point x="-18" y="741"/>
      <point x="-18" y="805" type="curve" smooth="yes"/>
      <point x="-18" y="845"/>
      <point x="12" y="872"/>
      <point x="56" y="871" type="curve"/>
      <point x="56" y="881" type="line"/>
      <point x="-26" y="883"/>
      <point x="-62" y="848"/>
      <point x="-62" y="798" type="curve" smooth="yes"/>
      <point x="-62" y="727"/>
      <point x="11" y="708"/>
      <point x="11" y="643" type="curve" smooth="yes"/>
      <point x="11" y="601"/>
      <point x="-20" y="573"/>
      <point x="-62" y="574" type="curve"/>
    </contour>
  </outline>
</glyph>
<glyph name="dbloverlinecomb" format="2">
  <unicode hex="033F"/>
  <anchor x="1" y="536" name="_top"/>
  <anchor x="1" y="946" name="top"/>
  <outline>
    <contour>
      <point x="-254" y="898" type="line"/>
      <point x="255" y="898" type="line"/>
      <point x="255" y="918" type="line"/>
      <point x="-254" y="918" type="line"/>
    </contour>
    <contour>
      <point x="-254" y="782" type="line"/>
      <point x="255" y="782" type="line"/>
      <point x="255" y="802" type="line"/>
      <point x="-254" y="802" type="line"/>
    </contour>
  </outline>
</glyph>
<glyph name="Delta" format="2">
  <advance width="712"/>
  <unicode hex="0394"/>
  <anchor x="364" y="0" name="bottom"/>
  <anchor x="364" y="714" name="top"/>
  <outline>
    <contour>
      <point x="33" y="0" type="line"/>
      <point x="678" y="0" type="line"/>
      <point x="678" y="12" type="line"/>
      <point x="414" y="714" type="line"/>
      <point x="307" y="714" type="line"/>
      <point x="33" y="15" type="line"/>
    </contour>
    <contour>
      <point x="44" y="17" type="line"/>
      <point x="259" y="565" type="line" smooth="yes"/>
      <point x="275" y="601"/>
      <point x="301" y="675"/>
      <point x="312" y="707" type="curve"/>
      <point x="328" y="664"/>
      <point x="347" y="614"/>
      <point x="363" y="575" type="curve" smooth="yes"/>
      <point x="576" y="17" type="line"/>
    </contour>
  </outline>
</glyph>
<glyph name="alpha" format="2">
  <advance width="731"/>
  <unicode hex="03B1"/>
  <anchor x="366" y="0" name="bottom"/>
  <anchor x="366" y="536" name="top"/>
  <outline>
    <contour>
      <point x="313" y="-10" type="curve" smooth="yes"/>
      <point x="406" y="-10"/>
      <point x="480" y="29"/>
      <point x="500" y="140" type="curve"/>
      <point x="502" y="140" type="line"/>
      <point x="511" y="39"/>
      <point x="530" y="0"/>
      <point x="636" y="0" type="curve" smooth="yes"/>
      <point x="707" y="0" type="line"/>
      <point x="707" y="10" type="line"/>
      <point x="689" y="10" type="line" smooth="yes"/>
      <point x="628" y="10"/>
      <point x="602" y="38"/>
      <point x="602" y="130" type="curve" smooth="yes"/>
      <point x="602" y="337" type="line" smooth="yes"/>
      <point x="602" y="429"/>
      <point x="624" y="491"/>
      <point x="637" y="536" type="curve"/>
      <point x="560" y="536" type="line"/>
      <point x="532" y="504"/>
      <point x="515" y="474"/>
      <point x="504" y="424" type="curve"/>
      <point x="502" y="424" type="line"/>
      <point x="471" y="489"/>
      <point x="404" y="541"/>
      <point x="307" y="541" type="curve" smooth="yes"/>
      <point x="163" y="541"/>
      <point x="68" y="457"/>
      <point x="68" y="261" type="curve" smooth="yes"/>
      <point x="68" y="130"/>
      <point x="145" y="-10"/>
    </contour>
    <contour>
      <point x="342" y="12" type="curve" smooth="yes"/>
      <point x="217" y="12"/>
      <point x="176" y="134"/>
      <point x="176" y="252" type="curve" smooth="yes"/>
      <point x="176" y="440"/>
      <point x="227" y="516"/>
      <point x="333" y="516" type="curve" smooth="yes"/>
      <point x="431" y="516"/>
      <point x="474" y="454"/>
      <point x="497" y="403" type="curve"/>
      <point x="497" y="257" type="line"/>
      <point x="497" y="100"/>
      <point x="464" y="12"/>
    </contour>
  </outline>
</glyph>
<glyph name="delta" format="2">
  <advance width="689"/>
  <unicode hex="03B4"/>
  <anchor x="345" y="0" name="bottom"/>
  <anchor x="345" y="765" name="top"/>
  <outline>
    <contour>
      <point x="333" y="-10" type="curve" smooth="yes"/>
      <point x="501" y="-10"/>
      <point x="620" y="80"/>
      <point x="620" y="230" type="curve" smooth="yes"/>
      <point x="620" y="388"/>
      <point x="516" y="436"/>
      <point x="385" y="501" type="curve" smooth="yes"/>
      <point x="277" y="556"/>
      <point x="243" y="583"/>
      <point x="243" y="653" type="curve" smooth="yes"/>
      <point x="243" y="727"/>
      <point x="309" y="755"/>
      <point x="379" y="755" type="curve" smooth="yes"/>
      <point x="472" y="755"/>
      <point x="515" y="700"/>
      <point x="515" y="594" type="curve"/>
      <point x="556" y="594"/>
      <point x="583" y="608"/>
      <point x="583" y="638" type="curve" smooth="yes"/>
      <point x="583" y="698"/>
      <point x="523" y="765"/>
      <point x="384" y="765" type="curve" smooth="yes"/>
      <point x="258" y="765"/>
      <point x="167" y="728"/>
      <point x="167" y="626" type="curve" smooth="yes"/>
      <point x="167" y="526"/>
      <point x="251" y="487"/>
      <point x="329" y="445" type="curve"/>
      <point x="175" y="431"/>
      <point x="66" y="344"/>
      <point x="66" y="212" type="curve" smooth="yes"/>
      <point x="66" y="70"/>
      <point x="177" y="-10"/>
    </contour>
    <contour>
      <point x="343" y="0" type="curve" smooth="yes"/>
      <point x="249" y="0"/>
      <point x="175" y="65"/>
      <point x="175" y="215" type="curve" smooth="yes"/>
      <point x="175" y="349"/>
      <point x="276" y="419"/>
      <point x="337" y="439" type="curve"/>
      <point x="418" y="404"/>
      <point x="514" y="344"/>
      <point x="514" y="209" type="curve" smooth="yes"/>
      <point x="514" y="72"/>
      <point x="447" y="0"/>
    </contour>
  </outline>
</glyph>
<glyph name="kappa" format="2">
  <advance width="725"/>
  <unicode hex="03BA"/>
  <anchor x="363" y="0" name="bottom"/>
  <anchor x="363" y="536" name="top"/>
  <outline>
    <contour>
      <point x="133" y="0" type="line"/>
      <point x="240" y="0" type="line"/>
      <point x="240" y="197" type="line"/>
      <point x="324" y="287" type="line"/>
      <point x="477" y="69" type="line" smooth="yes"/>
      <point x="517" y="17"/>
      <point x="540" y="0"/>
      <point x="660" y="0" type="curve" smooth="yes"/>
      <point x="698" y="0" type="line"/>
      <point x="698" y="10" type="line"/>
      <point x="692" y="10" type="line" smooth="yes"/>
      <point x="667" y="10"/>
      <point x="634" y="20"/>
      <point x="575" y="101" type="curve" smooth="yes"/>
      <point x="386" y="355" type="line"/>
      <point x="428" y="396" type="line" smooth="yes"/>
      <point x="490" y="466"/>
      <point x="530" y="480"/>
      <point x="579" y="480" type="curve" smooth="yes"/>
      <point x="617" y="480"/>
      <point x="646" y="473"/>
      <point x="664" y="450" type="curve"/>
      <point x="675" y="454"/>
      <point x="686" y="464"/>
      <point x="686" y="483" type="curve" smooth="yes"/>
      <point x="686" y="510"/>
      <point x="661" y="541"/>
      <point x="596" y="541" type="curve" smooth="yes"/>
      <point x="546" y="541"/>
      <point x="513" y="520"/>
      <point x="464" y="470" type="curve" smooth="yes"/>
      <point x="239" y="212" type="line"/>
      <point x="238" y="246"/>
      <point x="240" y="297"/>
      <point x="240" y="331" type="curve" smooth="yes"/>
      <point x="240" y="536" type="line"/>
      <point x="39" y="536" type="line"/>
      <point x="39" y="526" type="line"/>
      <point x="63" y="526" type="line" smooth="yes"/>
      <point x="95" y="526"/>
      <point x="133" y="518"/>
      <point x="133" y="468" type="curve" smooth="yes"/>
    </contour>
  </outline>
</glyph>
<glyph name="uni03D1" format="2">
  <advance width="687"/>
  <unicode hex="03D1"/>
  <outline>
    <contour>
      <point x="305" y="-10" type="curve" smooth="yes"/>
      <point x="494" y="-10"/>
      <point x="594" y="136"/>
      <point x="594" y="371" type="curve" smooth="yes"/>
      <point x="594" y="394"/>
      <point x="593" y="417"/>
      <point x="591" y="445" type="curve"/>
      <point x="676" y="445" type="line"/>
      <point x="676" y="455" type="line"/>
      <point x="589" y="455" type="line"/>
      <point x="570" y="663"/>
      <point x="474" y="764"/>
      <point x="332" y="764" type="curve" smooth="yes"/>
      <point x="193" y="764"/>
      <point x="115" y="704"/>
      <point x="115" y="625" type="curve" smooth="yes"/>
      <point x="115" y="521"/>
      <point x="211" y="447"/>
      <point x="487" y="445" type="curve"/>
      <point x="488" y="417"/>
      <point x="489" y="389"/>
      <point x="489" y="371" type="curve" smooth="yes"/>
      <point x="489" y="98"/>
      <point x="424" y="0"/>
      <point x="308" y="0" type="curve" smooth="yes"/>
      <point x="224" y="0"/>
      <point x="189" y="67"/>
      <point x="189" y="168" type="curve" smooth="yes"/>
      <point x="189" y="211"/>
      <point x="206" y="267"/>
      <point x="206" y="309" type="curve" smooth="yes"/>
      <point x="206" y="374"/>
      <point x="178" y="408"/>
      <point x="81" y="408" type="curve" smooth="yes"/>
      <point x="3" y="408" type="line"/>
      <point x="3" y="398" type="line"/>
      <point x="28" y="398" type="line" smooth="yes"/>
      <point x="86" y="398"/>
      <point x="99" y="380"/>
      <point x="99" y="331" type="curve" smooth="yes"/>
      <point x="99" y="308"/>
      <point x="83" y="214"/>
      <point x="83" y="172" type="curve" smooth="yes"/>
      <point x="83" y="74"/>
      <point x="146" y="-10"/>
    </contour>
    <contour>
      <point x="487" y="455" type="curve"/>
      <point x="255" y="456"/>
      <point x="210" y="556"/>
      <point x="210" y="650" type="curve" smooth="yes"/>
      <point x="210" y="702"/>
      <point x="257" y="753"/>
      <point x="326" y="753" type="curve" smooth="yes"/>
      <point x="447" y="753"/>
      <point x="467" y="608"/>
    </contour>
  </outline>
</glyph>
<glyph name="afii10051" format="2">
  <advance width="910"/>
  <unicode hex="0402"/>
  <anchor x="455" y="0" name="bottom"/>
  <anchor x="455" y="714" name="top"/>
  <outline>
    <contour>
      <point x="158" y="0" type="line"/>
      <point x="519" y="0" type="line"/>
      <point x="519" y="10" type="line"/>
      <point x="441" y="10" type="line" smooth="yes"/>
      <point x="417" y="10"/>
      <point x="395" y="16"/>
      <point x="395" y="85" type="curve" smooth="yes"/>
      <point x="395" y="399" type="line"/>
      <point x="449" y="415"/>
      <point x="497" y="422"/>
      <point x="553" y="422" type="curve" smooth="yes"/>
      <point x="660" y="422"/>
      <point x="735" y="388"/>
      <point x="735" y="234" type="curve" smooth="yes"/>
      <point x="735" y="58"/>
      <point x="694" y="10"/>
      <point x="606" y="10" type="curve" smooth="yes"/>
      <point x="594" y="10" type="line"/>
      <point x="594" y="0" type="line"/>
      <point x="620" y="0" type="line" smooth="yes"/>
      <point x="761" y="0"/>
      <point x="845" y="54"/>
      <point x="845" y="222" type="curve"/>
      <point x="845" y="372"/>
      <point x="758" y="438"/>
      <point x="590" y="438" type="curve" smooth="yes"/>
      <point x="501" y="438"/>
      <point x="438" y="424"/>
      <point x="395" y="410" type="curve"/>
      <point x="395" y="698" type="line"/>
      <point x="553" y="698" type="line" smooth="yes"/>
      <point x="615" y="698"/>
      <point x="632" y="683"/>
      <point x="639" y="595" type="curve" smooth="yes"/>
      <point x="644" y="535" type="line"/>
      <point x="654" y="535" type="line"/>
      <point x="647" y="714" type="line"/>
      <point x="33" y="714" type="line"/>
      <point x="26" y="535" type="line"/>
      <point x="36" y="535" type="line"/>
      <point x="40" y="601" type="line" smooth="yes"/>
      <point x="44" y="676"/>
      <point x="64" y="698"/>
      <point x="121" y="698" type="curve" smooth="yes"/>
      <point x="285" y="698" type="line"/>
      <point x="285" y="88" type="line" smooth="yes"/>
      <point x="285" y="17"/>
      <point x="265" y="10"/>
      <point x="228" y="10" type="curve" smooth="yes"/>
      <point x="158" y="10" type="line"/>
    </contour>
  </outline>
</glyph>
<glyph name="afii10029" format="2">
  <advance width="843"/>
  <unicode hex="041B"/>
  <anchor x="417" y="0" name="bottom"/>
  <anchor x="417" y="714" name="top"/>
  <outline>
    <contour>
      <point x="105" y="-7" type="curve" smooth="yes"/>
      <point x="211" y="-7"/>
      <point x="247" y="76"/>
      <point x="292" y="303" type="curve" smooth="yes"/>
      <point x="337" y="516"/>
      <point x="333" y="721"/>
      <point x="336" y="698" type="curve"/>
      <point x="566" y="698" type="line"/>
      <point x="566" y="85" type="line" smooth="yes"/>
      <point x="566" y="19"/>
      <point x="563" y="10"/>
      <point x="511" y="10" type="curve" smooth="yes"/>
      <point x="455" y="10" type="line"/>
      <point x="455" y="0" type="line"/>
      <point x="786" y="0" type="line"/>
      <point x="786" y="10" type="line"/>
      <point x="728" y="10" type="line" smooth="yes"/>
      <point x="681" y="10"/>
      <point x="675" y="18"/>
      <point x="675" y="78" type="curve" smooth="yes"/>
      <point x="675" y="633" type="line" smooth="yes"/>
      <point x="675" y="694"/>
      <point x="684" y="704"/>
      <point x="721" y="704" type="curve" smooth="yes"/>
      <point x="789" y="704" type="line"/>
      <point x="789" y="714" type="line"/>
      <point x="193" y="714" type="line"/>
      <point x="193" y="704" type="line"/>
      <point x="273" y="704" type="line" smooth="yes"/>
      <point x="291" y="704"/>
      <point x="323" y="704"/>
      <point x="323" y="661" type="curve" smooth="yes"/>
      <point x="323" y="621"/>
      <point x="312" y="428"/>
      <point x="279" y="294" type="curve" smooth="yes"/>
      <point x="247" y="148"/>
      <point x="209" y="50"/>
      <point x="124" y="50" type="curve" smooth="yes"/>
      <point x="80" y="50"/>
      <point x="53" y="70"/>
      <point x="43" y="111" type="curve"/>
      <point x="17" y="113"/>
      <point x="0" y="99"/>
      <point x="0" y="69" type="curve" smooth="yes"/>
      <point x="0" y="24"/>
      <point x="39" y="-7"/>
    </contour>
  </outline>
</glyph>
<glyph name="afii10046" format="2">
  <advance width="723"/>
  <unicode hex="042C"/>
  <anchor x="362" y="0" name="bottom"/>
  <anchor x="362" y="714" name="top"/>
  <outline>
    <contour>
      <point x="48" y="0" type="line"/>
      <point x="360" y="0" type="line" smooth="yes"/>
      <point x="568" y="0"/>
      <point x="681" y="62"/>
      <point x="681" y="199" type="curve" smooth="yes"/>
      <point x="681" y="334"/>
      <point x="595" y="397"/>
      <point x="406" y="397" type="curve" smooth="yes"/>
      <point x="275" y="397" type="line"/>
      <point x="275" y="629" type="line" smooth="yes"/>
      <point x="275" y="689"/>
      <point x="283" y="704"/>
      <point x="333" y="704" type="curve" smooth="yes"/>
      <point x="387" y="704" type="line"/>
      <point x="387" y="714" type="line"/>
      <point x="48" y="714" type="line"/>
      <point x="48" y="704" type="line"/>
      <point x="115" y="704" type="line" smooth="yes"/>
      <point x="153" y="704"/>
      <point x="166" y="693"/>
      <point x="166" y="627" type="curve" smooth="yes"/>
      <point x="166" y="88" type="line" smooth="yes"/>
      <point x="166" y="27"/>
      <point x="157" y="10"/>
      <point x="106" y="10" type="curve" smooth="yes"/>
      <point x="48" y="10" type="line"/>
    </contour>
    <contour>
      <point x="275" y="10" type="line"/>
      <point x="275" y="387" type="line"/>
      <point x="372" y="387" type="line" smooth="yes"/>
      <point x="505" y="387"/>
      <point x="566" y="346"/>
      <point x="566" y="201" type="curve" smooth="yes"/>
      <point x="566" y="57"/>
      <point x="502" y="10"/>
      <point x="356" y="10" type="curve" smooth="yes"/>
    </contour>
  </outline>
</glyph>
<glyph name="afii10084" format="2">
  <advance width="620"/>
  <unicode hex="0442"/>
  <anchor x="311" y="0" name="bottom"/>
  <anchor x="311" y="536" name="top"/>
  <outline>
    <contour>
      <point x="140" y="0" type="line"/>
      <point x="478" y="0" type="line"/>
      <point x="478" y="10" type="line"/>
      <point x="444" y="10" type="line" smooth="yes"/>
      <point x="378" y="10"/>
      <point x="363" y="20"/>
      <point x="363" y="80" type="curve" smooth="yes"/>
      <point x="363" y="520" type="line"/>
      <point x="477" y="520" type="line" smooth="yes"/>
      <point x="549" y="520"/>
      <point x="579" y="500"/>
      <point x="586" y="447" type="curve" smooth="yes"/>
      <point x="592" y="361" type="line"/>
      <point x="602" y="361" type="line"/>
      <point x="596" y="536" type="line"/>
      <point x="25" y="536" type="line"/>
      <point x="18" y="361" type="line"/>
      <point x="28" y="361" type="line"/>
      <point x="35" y="448" type="line" smooth="yes"/>
      <point x="42" y="498"/>
      <point x="73" y="520"/>
      <point x="144" y="520" type="curve" smooth="yes"/>
      <point x="256" y="520" type="line"/>
      <point x="256" y="80" type="line" smooth="yes"/>
      <point x="256" y="20"/>
      <point x="239" y="10"/>
      <point x="175" y="10" type="curve" smooth="yes"/>
      <point x="140" y="10" type="line"/>
    </contour>
  </outline>
</glyph>
<glyph name="uni0460" format="2">
  <advance width="1118"/>
  <unicode hex="0460"/>
  <anchor x="559" y="0" name="bottom"/>
  <anchor x="559" y="714" name="top"/>
  <outline>
    <contour>
      <point x="355" y="0" type="curve"/>
      <point x="422" y="0" type="line"/>
      <point x="614" y="407" type="line"/>
      <point x="652" y="318"/>
      <point x="723" y="110"/>
      <point x="749" y="0" type="curve"/>
      <point x="791" y="0" type="line"/>
      <point x="958" y="265"/>
      <point x="1056" y="416"/>
      <point x="1056" y="585" type="curve" smooth="yes"/>
      <point x="1056" y="665"/>
      <point x="1025" y="727"/>
      <point x="947" y="727" type="curve" smooth="yes"/>
      <point x="888" y="727"/>
      <point x="877" y="696"/>
      <point x="876" y="670" type="curve"/>
      <point x="969" y="662"/>
      <point x="1004" y="600"/>
      <point x="1004" y="517" type="curve" smooth="yes"/>
      <point x="1004" y="354"/>
      <point x="924" y="242"/>
      <point x="827" y="76" type="curve"/>
      <point x="755" y="376"/>
      <point x="667" y="597"/>
      <point x="613" y="714" type="curve"/>
      <point x="484" y="714" type="line"/>
      <point x="530" y="626"/>
      <point x="564" y="545"/>
      <point x="609" y="417" type="curve"/>
      <point x="436" y="64" type="line"/>
      <point x="270" y="651"/>
      <point x="234" y="726"/>
      <point x="123" y="726" type="curve" smooth="yes"/>
      <point x="69" y="726"/>
      <point x="32" y="709"/>
      <point x="-13" y="673" type="curve"/>
      <point x="-4" y="666" type="line"/>
      <point x="23" y="694"/>
      <point x="36" y="695"/>
      <point x="51" y="695" type="curve" smooth="yes"/>
      <point x="107" y="695"/>
      <point x="168" y="663"/>
    </contour>
  </outline>
</glyph>
<glyph name="uni0461" format="2">
  <advance width="993"/>
  <unicode hex="0461"/>
  <anchor x="497" y="0" name="bottom"/>
  <anchor x="497" y="536" name="top"/>
  <outline>
    <contour>
      <point x="340" y="0" type="curve"/>
      <point x="383" y="0" type="line"/>
      <point x="529" y="255" type="line"/>
      <point x="562" y="186"/>
      <point x="597" y="76"/>
      <point x="621" y="0" type="curve"/>
      <point x="695" y="0" type="line"/>
      <point x="860" y="175"/>
      <point x="944" y="310"/>
      <point x="944" y="438" type="curve" smooth="yes"/>
      <point x="944" y="489"/>
      <point x="924" y="546"/>
      <point x="853" y="546" type="curve" smooth="yes"/>
      <point x="817" y="546"/>
      <point x="805" y="531"/>
      <point x="802" y="504" type="curve"/>
      <point x="863" y="499"/>
      <point x="881" y="467"/>
      <point x="885" y="392" type="curve" smooth="yes"/>
      <point x="891" y="298"/>
      <point x="801" y="101"/>
      <point x="703" y="16" type="curve"/>
      <point x="669" y="128"/>
      <point x="553" y="462"/>
      <point x="512" y="536" type="curve"/>
      <point x="401" y="536" type="line"/>
      <point x="446" y="452"/>
      <point x="488" y="347"/>
      <point x="524" y="264" type="curve"/>
      <point x="409" y="86" type="line"/>
      <point x="270" y="425"/>
      <point x="225" y="543"/>
      <point x="126" y="543" type="curve" smooth="yes"/>
      <point x="77" y="543"/>
      <point x="36" y="520"/>
      <point x="19" y="501" type="curve"/>
      <point x="26" y="496" type="line"/>
      <point x="38" y="503"/>
      <point x="54" y="507"/>
      <point x="67" y="507" type="curve" smooth="yes"/>
      <point x="127" y="507"/>
      <point x="201" y="385"/>
    </contour>
  </outline>
</glyph>
<glyph name="uni0466" format="2">
  <advance width="846"/>
  <unicode hex="0466"/>
  <anchor x="403" y="0" name="bottom"/>
  <anchor x="403" y="714" name="top"/>
  <outline>
    <contour>
      <point x="0" y="0" type="line"/>
      <point x="233" y="0" type="line"/>
      <point x="233" y="10" type="line"/>
      <point x="162" y="10" type="line" smooth="yes"/>
      <point x="112" y="10"/>
      <point x="109" y="22"/>
      <point x="109" y="41" type="curve" smooth="yes"/>
      <point x="109" y="67"/>
      <point x="131" y="120"/>
      <point x="138" y="136" type="curve" smooth="yes"/>
      <point x="232" y="362" type="line"/>
      <point x="327" y="362" type="line"/>
      <point x="327" y="0" type="line"/>
      <point x="414" y="0" type="line"/>
      <point x="414" y="362" type="line"/>
      <point x="501" y="362" type="line"/>
      <point x="596" y="138" type="line" smooth="yes"/>
      <point x="604" y="120"/>
      <point x="625" y="65"/>
      <point x="625" y="39" type="curve" smooth="yes"/>
      <point x="625" y="20"/>
      <point x="618" y="10"/>
      <point x="570" y="10" type="curve" smooth="yes"/>
      <point x="511" y="10" type="line"/>
      <point x="511" y="0" type="line"/>
      <point x="825" y="0" type="line"/>
      <point x="825" y="10" type="line"/>
      <point x="814" y="10" type="line" smooth="yes"/>
      <point x="762" y="10"/>
      <point x="755" y="19"/>
      <point x="732" y="75" type="curve" smooth="yes"/>
      <point x="456" y="714" type="line"/>
      <point x="365" y="714" type="line"/>
      <point x="93" y="43" type="line" smooth="yes"/>
      <point x="78" y="10"/>
      <point x="60" y="10"/>
      <point x="13" y="10" type="curve" smooth="yes"/>
      <point x="0" y="10" type="line"/>
    </contour>
    <contour>
      <point x="235" y="372" type="line"/>
      <point x="294" y="511" type="line" smooth="yes"/>
      <point x="327" y="596"/>
      <point x="344" y="635"/>
      <point x="368" y="699" type="curve"/>
      <point x="388" y="640"/>
      <point x="406" y="589"/>
      <point x="434" y="523" type="curve" smooth="yes"/>
      <point x="495" y="372" type="line"/>
    </contour>
  </outline>
</glyph>
<glyph name="uni0469" format="2">
  <advance width="971"/>
  <unicode hex="0469"/>
  <anchor x="499" y="0" name="bottom"/>
  <anchor x="499" y="536" name="top"/>
  <outline>
    <contour>
      <point x="32" y="0" type="line"/>
      <point x="247" y="0" type="line"/>
      <point x="247" y="271" type="line"/>
      <point x="476" y="271" type="line"/>
      <point x="480" y="281" type="line"/>
      <point x="247" y="281" type="line"/>
      <point x="247" y="453" type="line" smooth="yes"/>
      <point x="247" y="516"/>
      <point x="257" y="526"/>
      <point x="323" y="526" type="curve" smooth="yes"/>
      <point x="355" y="526" type="line"/>
      <point x="355" y="536" type="line"/>
      <point x="32" y="536" type="line"/>
      <point x="32" y="526" type="line"/>
      <point x="64" y="526" type="line" smooth="yes"/>
      <point x="132" y="526"/>
      <point x="145" y="516"/>
      <point x="145" y="453" type="curve" smooth="yes"/>
      <point x="145" y="83" type="line" smooth="yes"/>
      <point x="145" y="20"/>
      <point x="132" y="10"/>
      <point x="64" y="10" type="curve" smooth="yes"/>
      <point x="32" y="10" type="line"/>
    </contour>
    <component base="uni0467" xOffset="267"/>
  </outline>
</glyph>
<glyph name="uni046B" format="2">
  <advance width="872"/>
  <unicode hex="046B"/>
  <anchor x="436" y="0" name="bottom"/>
  <anchor x="436" y="536" name="top"/>
  <outline>
    <contour>
      <point x="12" y="-2" type="line"/>
      <point x="55" y="-2" type="line" smooth="yes"/>
      <point x="120" y="-2"/>
      <point x="166" y="22"/>
      <point x="209" y="113" type="curve" smooth="yes"/>
      <point x="252" y="207" type="line" smooth="yes"/>
      <point x="286" y="276"/>
      <point x="308" y="286"/>
      <point x="381" y="286" type="curve"/>
      <point x="381" y="75" type="line" smooth="yes"/>
      <point x="381" y="18"/>
      <point x="376" y="11"/>
      <point x="350" y="10" type="curve" smooth="yes"/>
      <point x="302" y="10" type="line"/>
      <point x="302" y="-2" type="line"/>
      <point x="567" y="-2" type="line"/>
      <point x="567" y="10" type="line"/>
      <point x="516" y="10" type="line" smooth="yes"/>
      <point x="494" y="10"/>
      <point x="487" y="19"/>
      <point x="487" y="78" type="curve" smooth="yes"/>
      <point x="487" y="286" type="line"/>
      <point x="556" y="286"/>
      <point x="590" y="271"/>
      <point x="618" y="211" type="curve" smooth="yes"/>
      <point x="661" y="112" type="line" smooth="yes"/>
      <point x="700" y="23"/>
      <point x="753" y="-2"/>
      <point x="821" y="-2" type="curve" smooth="yes"/>
      <point x="860" y="-2" type="line"/>
      <point x="860" y="10" type="line"/>
      <point x="844" y="10" type="line" smooth="yes"/>
      <point x="827" y="10"/>
      <point x="815" y="6"/>
      <point x="770" y="100" type="curve" smooth="yes"/>
      <point x="727" y="179" type="line" smooth="yes"/>
      <point x="681" y="270"/>
      <point x="609" y="297"/>
      <point x="492" y="297" type="curve"/>
      <point x="745" y="525" type="line"/>
      <point x="745" y="536" type="line"/>
      <point x="134" y="536" type="line"/>
      <point x="134" y="525" type="line"/>
      <point x="373" y="297" type="line"/>
      <point x="252" y="298"/>
      <point x="187" y="269"/>
      <point x="140" y="173" type="curve" smooth="yes"/>
      <point x="100" y="101" type="line" smooth="yes"/>
      <point x="56" y="12"/>
      <point x="41" y="10"/>
      <point x="27" y="10" type="curve" smooth="yes"/>
      <point x="12" y="10" type="line"/>
    </contour>
    <contour>
      <point x="481" y="302" type="line"/>
      <point x="253" y="526" type="line"/>
      <point x="724" y="526" type="line"/>
      <point x="483" y="302" type="line"/>
    </contour>
  </outline>
</glyph>
<glyph name="uni0474" format="2">
  <advance width="859"/>
  <unicode hex="0474"/>
  <anchor x="414" y="0" name="bottom"/>
  <anchor x="414" y="714" name="top"/>
  <outline>
    <contour>
      <point x="366" y="0" type="line"/>
      <point x="420" y="0" type="line"/>
      <point x="624" y="525" type="line" smooth="yes"/>
      <point x="653" y="596"/>
      <point x="682" y="651"/>
      <point x="737" y="651" type="curve" smooth="yes"/>
      <point x="770" y="651"/>
      <point x="789" y="631"/>
      <point x="796" y="606" type="curve"/>
      <point x="814" y="614"/>
      <point x="836" y="625"/>
      <point x="836" y="658" type="curve" smooth="yes"/>
      <point x="836" y="699"/>
      <point x="806" y="720"/>
      <point x="757" y="720" type="curve" smooth="yes"/>
      <point x="647" y="720"/>
      <point x="624" y="602"/>
      <point x="584" y="472" type="curve" smooth="yes"/>
      <point x="496" y="232" type="line" smooth="yes"/>
      <point x="480" y="186"/>
      <point x="457" y="122"/>
      <point x="439" y="85" type="curve"/>
      <point x="423" y="126"/>
      <point x="404" y="160"/>
      <point x="365" y="262" type="curve" smooth="yes"/>
      <point x="208" y="645" type="line" smooth="yes"/>
      <point x="199" y="668"/>
      <point x="194" y="677"/>
      <point x="194" y="688" type="curve" smooth="yes"/>
      <point x="194" y="707"/>
      <point x="209" y="710"/>
      <point x="247" y="710" type="curve" smooth="yes"/>
      <point x="316" y="710" type="line"/>
      <point x="316" y="714" type="line"/>
      <point x="0" y="714" type="line"/>
      <point x="0" y="710" type="line"/>
      <point x="30" y="710" type="line" smooth="yes"/>
      <point x="60" y="710"/>
      <point x="71" y="698"/>
      <point x="88" y="657" type="curve" smooth="yes"/>
    </contour>
  </outline>
</glyph>
<glyph name="uni0475" format="2">
  <advance width="723"/>
  <unicode hex="0475"/>
  <anchor x="362" y="0" name="bottom"/>
  <anchor x="362" y="536" name="top"/>
  <outline>
    <contour>
      <point x="305" y="0" type="line"/>
      <point x="401" y="0" type="line"/>
      <point x="517" y="328" type="line" smooth="yes"/>
      <point x="551" y="426"/>
      <point x="582" y="477"/>
      <point x="639" y="477" type="curve" smooth="yes"/>
      <point x="665" y="477"/>
      <point x="687" y="467"/>
      <point x="691" y="442" type="curve"/>
      <point x="700" y="448"/>
      <point x="712" y="462"/>
      <point x="712" y="483" type="curve" smooth="yes"/>
      <point x="712" y="520"/>
      <point x="681" y="543"/>
      <point x="644" y="543" type="curve" smooth="yes"/>
      <point x="614" y="543"/>
      <point x="561" y="538"/>
      <point x="527" y="431" type="curve" smooth="yes"/>
      <point x="478" y="276"/>
      <point x="413" y="58"/>
      <point x="396" y="11" type="curve"/>
      <point x="394" y="11" type="line"/>
      <point x="369" y="91"/>
      <point x="333" y="170"/>
      <point x="315" y="212" type="curve" smooth="yes"/>
      <point x="232" y="410" type="line" smooth="yes"/>
      <point x="218" y="445"/>
      <point x="203" y="486"/>
      <point x="203" y="506" type="curve" smooth="yes"/>
      <point x="203" y="528"/>
      <point x="216" y="526"/>
      <point x="256" y="526" type="curve" smooth="yes"/>
      <point x="279" y="526" type="line"/>
      <point x="279" y="536" type="line"/>
      <point x="11" y="536" type="line"/>
      <point x="11" y="526" type="line"/>
      <point x="72" y="526"/>
      <point x="81" y="520"/>
      <point x="99" y="475" type="curve" smooth="yes"/>
    </contour>
  </outline>
</glyph>
<glyph name="titlocomb.cy" format="2">
  <unicode hex="0483"/>
  <anchor x="1" y="536" name="_top"/>
  <anchor x="1" y="724" name="top"/>
  <outline>
    <contour>
      <point x="-158" y="574" type="curve" smooth="yes"/>
      <point x="-126" y="574"/>
      <point x="-115" y="591"/>
      <point x="-115" y="629" type="curve"/>
      <point x="150" y="629" type="line" smooth="yes"/>
      <point x="183" y="629"/>
      <point x="201" y="642"/>
      <point x="201" y="668" type="curve" smooth="yes"/>
      <point x="201" y="692"/>
      <point x="187" y="704"/>
      <point x="160" y="704" type="curve" smooth="yes"/>
      <point x="128" y="704"/>
      <point x="117" y="688"/>
      <point x="117" y="649" type="curve"/>
      <point x="-148" y="649" type="line" smooth="yes"/>
      <point x="-182" y="649"/>
      <point x="-198" y="636"/>
      <point x="-198" y="610" type="curve" smooth="yes"/>
      <point x="-198" y="587"/>
      <point x="-185" y="574"/>
    </contour>
  </outline>
</glyph>
<glyph name="uni0488" format="2">
  <advance width="1199"/>
  <unicode hex="0488"/>
  <outline>
    <contour>
      <point x="130" y="462" type="curve"/>
      <point x="164" y="462" type="line"/>
      <point x="169" y="507"/>
      <point x="207" y="517"/>
      <point x="255" y="517" type="curve" smooth="yes"/>
      <point x="294" y="517"/>
      <point x="338" y="508"/>
      <point x="341" y="462" type="curve"/>
      <point x="379" y="462" type="line"/>
      <point x="375" y="518"/>
      <point x="331" y="557"/>
      <point x="254" y="557" type="curve" smooth="yes"/>
      <point x="173" y="557"/>
      <point x="133" y="520"/>
    </contour>
    <contour>
      <point x="25" y="224" type="curve"/>
      <point x="60" y="224" type="line"/>
      <point x="65" y="268"/>
      <point x="103" y="279"/>
      <point x="150" y="279" type="curve" smooth="yes"/>
      <point x="187" y="279"/>
      <point x="231" y="269"/>
      <point x="236" y="224" type="curve"/>
      <point x="274" y="224" type="line"/>
      <point x="269" y="280"/>
      <point x="226" y="319"/>
      <point x="148" y="319" type="curve" smooth="yes"/>
      <point x="66" y="319"/>
      <point x="28" y="282"/>
    </contour>
    <contour>
      <point x="130" y="-20" type="curve"/>
      <point x="164" y="-20" type="line"/>
      <point x="169" y="25"/>
      <point x="207" y="35"/>
      <point x="255" y="35" type="curve" smooth="yes"/>
      <point x="294" y="35"/>
      <point x="338" y="26"/>
      <point x="341" y="-20" type="curve"/>
      <point x="379" y="-20" type="line"/>
      <point x="375" y="36"/>
      <point x="331" y="75"/>
      <point x="254" y="75" type="curve" smooth="yes"/>
      <point x="173" y="75"/>
      <point x="133" y="38"/>
    </contour>
    <contour>
      <point x="469" y="-157" type="curve"/>
      <point x="504" y="-157" type="line"/>
      <point x="509" y="-112"/>
      <point x="547" y="-102"/>
      <point x="594" y="-102" type="curve" smooth="yes"/>
      <point x="634" y="-102"/>
      <point x="677" y="-111"/>
      <point x="680" y="-157" type="curve"/>
      <point x="719" y="-157" type="line"/>
      <point x="715" y="-101"/>
      <point x="670" y="-62"/>
      <point x="593" y="-62" type="curve" smooth="yes"/>
      <point x="512" y="-62"/>
      <point x="473" y="-99"/>
    </contour>
    <contour>
      <point x="812" y="-20" type="curve"/>
      <point x="847" y="-20" type="line"/>
      <point x="851" y="25"/>
      <point x="890" y="35"/>
      <point x="937" y="35" type="curve" smooth="yes"/>
      <point x="976" y="35"/>
      <point x="1020" y="26"/>
      <point x="1024" y="-20" type="curve"/>
      <point x="1062" y="-20" type="line"/>
      <point x="1058" y="36"/>
      <point x="1013" y="75"/>
      <point x="936" y="75" type="curve" smooth="yes"/>
      <point x="854" y="75"/>
      <point x="815" y="38"/>
    </contour>
    <contour>
      <point x="925" y="224" type="curve"/>
      <point x="960" y="224" type="line"/>
      <point x="965" y="269"/>
      <point x="1001" y="279"/>
      <point x="1049" y="279" type="curve" smooth="yes"/>
      <point x="1089" y="279"/>
      <point x="1132" y="270"/>
      <point x="1136" y="224" type="curve"/>
      <point x="1174" y="224" type="line"/>
      <point x="1170" y="280"/>
      <point x="1126" y="319"/>
      <point x="1048" y="319" type="curve" smooth="yes"/>
      <point x="967" y="319"/>
      <point x="929" y="282"/>
    </contour>
    <contour>
      <point x="812" y="462" type="curve"/>
      <point x="847" y="462" type="line"/>
      <point x="851" y="507"/>
      <point x="890" y="517"/>
      <point x="937" y="517" type="curve" smooth="yes"/>
      <point x="976" y="517"/>
      <point x="1020" y="508"/>
      <point x="1024" y="462" type="curve"/>
      <point x="1062" y="462" type="line"/>
      <point x="1058" y="518"/>
      <point x="1013" y="557"/>
      <point x="936" y="557" type="curve" smooth="yes"/>
      <point x="854" y="557"/>
      <point x="815" y="520"/>
    </contour>
    <contour>
      <point x="469" y="601" type="curve"/>
      <point x="504" y="601" type="line"/>
      <point x="509" y="646"/>
      <point x="547" y="656"/>
      <point x="594" y="656" type="curve" smooth="yes"/>
      <point x="634" y="656"/>
      <point x="677" y="647"/>
      <point x="680" y="601" type="curve"/>
      <point x="719" y="601" type="line"/>
      <point x="715" y="657"/>
      <point x="670" y="696"/>
      <point x="593" y="696" type="curve" smooth="yes"/>
      <point x="512" y="696"/>
      <point x="473" y="659"/>
    </contour>
  </outline>
</glyph>
<glyph name="uni048A" format="2">
  <advance width="984"/>
  <unicode hex="048A"/>
  <anchor x="493" y="0" name="bottom"/>
  <anchor x="493" y="901" name="top"/>
  <outline>
    <contour>
      <point x="774" y="-210" type="line"/>
      <point x="842" y="-210" type="line"/>
      <point x="922" y="-2" type="line"/>
      <point x="923" y="10" type="line"/>
      <point x="912" y="10" type="line"/>
      <point x="912" y="0" type="line"/>
    </contour>
    <component base="afii10026"/>
    <component base="cyrillicbreve" xOffset="129" yOffset="165"/>
  </outline>
</glyph>
<glyph name="uni048C" format="2">
  <advance width="723"/>
  <unicode hex="048C"/>
  <anchor x="362" y="0" name="bottom"/>
  <anchor x="362" y="714" name="top"/>
  <outline>
    <contour>
      <point x="49" y="0" type="line"/>
      <point x="362" y="0" type="line" smooth="yes"/>
      <point x="572" y="0"/>
      <point x="682" y="62"/>
      <point x="682" y="195" type="curve" smooth="yes"/>
      <point x="682" y="340"/>
      <point x="594" y="396"/>
      <point x="400" y="396" type="curve" smooth="yes"/>
      <point x="275" y="396" type="line"/>
      <point x="275" y="600" type="line"/>
      <point x="465" y="600" type="line"/>
      <point x="465" y="610" type="line"/>
      <point x="275" y="610" type="line"/>
      <point x="275" y="760" type="line"/>
      <point x="166" y="760" type="line"/>
      <point x="166" y="610" type="line"/>
      <point x="67" y="610" type="line"/>
      <point x="67" y="600" type="line"/>
      <point x="166" y="600" type="line"/>
      <point x="166" y="88" type="line" smooth="yes"/>
      <point x="166" y="27"/>
      <point x="155" y="10"/>
      <point x="110" y="10" type="curve" smooth="yes"/>
      <point x="49" y="10" type="line"/>
    </contour>
    <contour>
      <point x="275" y="10" type="line"/>
      <point x="275" y="386" type="line"/>
      <point x="365" y="386" type="line" smooth="yes"/>
      <point x="503" y="386"/>
      <point x="566" y="346"/>
      <point x="566" y="197" type="curve" smooth="yes"/>
      <point x="566" y="64"/>
      <point x="505" y="10"/>
      <point x="358" y="10" type="curve" smooth="yes"/>
    </contour>
  </outline>
</glyph>
<glyph name="uni048D" format="2">
  <advance width="680"/>
  <unicode hex="048D"/>
  <anchor x="341" y="0" name="bottom"/>
  <anchor x="341" y="644" name="top"/>
  <outline>
    <contour>
      <point x="30" y="0" type="line"/>
      <point x="404" y="0" type="line" smooth="yes"/>
      <point x="569" y="0"/>
      <point x="638" y="66"/>
      <point x="638" y="166" type="curve" smooth="yes"/>
      <point x="638" y="273"/>
      <point x="543" y="299"/>
      <point x="404" y="299" type="curve" smooth="yes"/>
      <point x="257" y="299" type="line"/>
      <point x="257" y="487" type="line"/>
      <point x="421" y="487" type="line"/>
      <point x="421" y="497" type="line"/>
      <point x="257" y="497" type="line"/>
      <point x="257" y="644" type="line"/>
      <point x="150" y="644" type="line"/>
      <point x="150" y="497" type="line"/>
      <point x="32" y="497" type="line"/>
      <point x="32" y="487" type="line"/>
      <point x="150" y="487" type="line"/>
      <point x="150" y="78" type="line" smooth="yes"/>
      <point x="150" y="22"/>
      <point x="144" y="10"/>
      <point x="66" y="10" type="curve" smooth="yes"/>
      <point x="30" y="10" type="line"/>
    </contour>
    <contour>
      <point x="256" y="10" type="line"/>
      <point x="256" y="289" type="line"/>
      <point x="371" y="289" type="line" smooth="yes"/>
      <point x="491" y="289"/>
      <point x="529" y="249"/>
      <point x="529" y="167" type="curve" smooth="yes"/>
      <point x="529" y="55"/>
      <point x="491" y="10"/>
      <point x="348" y="10" type="curve" smooth="yes"/>
    </contour>
  </outline>
</glyph>
<glyph name="uni0492" format="2">
  <advance width="672"/>
  <unicode hex="0492"/>
  <anchor x="337" y="0" name="bottom"/>
  <anchor x="337" y="714" name="top"/>
  <outline>
    <contour>
      <point x="48" y="0" type="line"/>
      <point x="424" y="0" type="line"/>
      <point x="424" y="10" type="line"/>
      <point x="335" y="10" type="line" smooth="yes"/>
      <point x="287" y="10"/>
      <point x="277" y="25"/>
      <point x="277" y="81" type="curve" smooth="yes"/>
      <point x="277" y="366" type="line"/>
      <point x="441" y="366" type="line"/>
      <point x="441" y="376" type="line"/>
      <point x="277" y="376" type="line"/>
      <point x="277" y="704" type="line"/>
      <point x="524" y="704" type="line" smooth="yes"/>
      <point x="610" y="704"/>
      <point x="635" y="689"/>
      <point x="639" y="604" type="curve" smooth="yes"/>
      <point x="643" y="520" type="line"/>
      <point x="653" y="520" type="line"/>
      <point x="647" y="714" type="line"/>
      <point x="48" y="714" type="line"/>
      <point x="48" y="704" type="line"/>
      <point x="113" y="704" type="line" smooth="yes"/>
      <point x="154" y="704"/>
      <point x="166" y="691"/>
      <point x="166" y="634" type="curve" smooth="yes"/>
      <point x="166" y="376" type="line"/>
      <point x="60" y="376" type="line"/>
      <point x="60" y="366" type="line"/>
      <point x="166" y="366" type="line"/>
      <point x="166" y="81" type="line" smooth="yes"/>
      <point x="166" y="23"/>
      <point x="154" y="10"/>
      <point x="107" y="10" type="curve" smooth="yes"/>
      <point x="48" y="10" type="line"/>
    </contour>
  </outline>
</glyph>
<glyph name="uni0499" format="2">
  <advance width="590"/>
  <unicode hex="0499"/>
  <anchor x="295" y="-218" name="bottom"/>
  <anchor x="295" y="536" name="top"/>
  <outline>
    <contour>
      <point x="295" y="-217" type="curve" smooth="yes"/>
      <point x="362" y="-217"/>
      <point x="399" y="-180"/>
      <point x="399" y="-132" type="curve" smooth="yes"/>
      <point x="399" y="-69"/>
      <point x="335" y="-21"/>
      <point x="281" y="-8" type="curve"/>
      <point x="446" y="-4"/>
      <point x="529" y="58"/>
      <point x="529" y="147" type="curve" smooth="yes"/>
      <point x="529" y="244"/>
      <point x="450" y="280"/>
      <point x="320" y="290" type="curve"/>
      <point x="320" y="292" type="line"/>
      <point x="434" y="295"/>
      <point x="511" y="322"/>
      <point x="511" y="418" type="curve" smooth="yes"/>
      <point x="511" y="497"/>
      <point x="436" y="547"/>
      <point x="292" y="547" type="curve" smooth="yes"/>
      <point x="153" y="547"/>
      <point x="74" y="501"/>
      <point x="74" y="441" type="curve" smooth="yes"/>
      <point x="74" y="413"/>
      <point x="81" y="393"/>
      <point x="145" y="393" type="curve"/>
      <point x="145" y="481"/>
      <point x="201" y="537"/>
      <point x="285" y="537" type="curve" smooth="yes"/>
      <point x="366" y="537"/>
      <point x="404" y="487"/>
      <point x="404" y="413" type="curve" smooth="yes"/>
      <point x="404" y="336"/>
      <point x="355" y="295"/>
      <point x="268" y="295" type="curve" smooth="yes"/>
      <point x="227" y="295" type="line"/>
      <point x="227" y="285" type="line"/>
      <point x="268" y="285" type="line" smooth="yes"/>
      <point x="373" y="285"/>
      <point x="421" y="230"/>
      <point x="421" y="151" type="curve" smooth="yes"/>
      <point x="421" y="45"/>
      <point x="370" y="1"/>
      <point x="266" y="1" type="curve" smooth="yes"/>
      <point x="168" y="1"/>
      <point x="121" y="65"/>
      <point x="121" y="163" type="curve"/>
      <point x="63" y="163"/>
      <point x="47" y="141"/>
      <point x="47" y="108" type="curve" smooth="yes"/>
      <point x="47" y="63"/>
      <point x="107" y="-9"/>
      <point x="262" y="-9" type="curve"/>
      <point x="300" y="-35"/>
      <point x="332" y="-76"/>
      <point x="332" y="-127" type="curve" smooth="yes"/>
      <point x="332" y="-166"/>
      <point x="311" y="-185"/>
      <point x="271" y="-185" type="curve" smooth="yes"/>
      <point x="252" y="-185"/>
      <point x="231" y="-180"/>
      <point x="216" y="-167" type="curve"/>
      <point x="210" y="-175"/>
      <point x="210" y="-181"/>
      <point x="210" y="-182" type="curve" smooth="yes"/>
      <point x="210" y="-204"/>
      <point x="253" y="-217"/>
    </contour>
  </outline>
</glyph>
<glyph name="uni04A7" format="2">
  <advance width="1088"/>
  <unicode hex="04A7"/>
  <anchor x="543" y="-240" name="bottom"/>
  <anchor x="543" y="536" name="top"/>
  <outline>
    <contour>
      <point x="752" y="-240" type="curve" smooth="yes"/>
      <point x="921" y="-240"/>
      <point x="1031" y="-152"/>
      <point x="1031" y="42" type="curve" smooth="yes"/>
      <point x="1031" y="204"/>
      <point x="972" y="301"/>
      <point x="771" y="301" type="curve" smooth="yes"/>
      <point x="721" y="301"/>
      <point x="687" y="291"/>
      <point x="664" y="287" type="curve"/>
      <point x="664" y="456" type="line" smooth="yes"/>
      <point x="664" y="516"/>
      <point x="675" y="525"/>
      <point x="743" y="525" type="curve" smooth="yes"/>
      <point x="778" y="525" type="line"/>
      <point x="778" y="536" type="line"/>
      <point x="31" y="536" type="line"/>
      <point x="31" y="526" type="line"/>
      <point x="69" y="526" type="line" smooth="yes"/>
      <point x="132" y="526"/>
      <point x="144" y="518"/>
      <point x="144" y="458" type="curve" smooth="yes"/>
      <point x="144" y="78" type="line" smooth="yes"/>
      <point x="144" y="17"/>
      <point x="133" y="10"/>
      <point x="65" y="10" type="curve" smooth="yes"/>
      <point x="31" y="10" type="line"/>
      <point x="31" y="0" type="line"/>
      <point x="351" y="0" type="line"/>
      <point x="351" y="10" type="line"/>
      <point x="323" y="10" type="line" smooth="yes"/>
      <point x="261" y="10"/>
      <point x="251" y="17"/>
      <point x="251" y="78" type="curve" smooth="yes"/>
      <point x="251" y="520" type="line"/>
      <point x="557" y="520" type="line"/>
      <point x="557" y="78" type="line" smooth="yes"/>
      <point x="557" y="17"/>
      <point x="548" y="10"/>
      <point x="482" y="10" type="curve" smooth="yes"/>
      <point x="457" y="10" type="line"/>
      <point x="457" y="0" type="line"/>
      <point x="778" y="0" type="line"/>
      <point x="778" y="10" type="line"/>
      <point x="742" y="10" type="line" smooth="yes"/>
      <point x="677" y="10"/>
      <point x="664" y="19"/>
      <point x="664" y="78" type="curve" smooth="yes"/>
      <point x="664" y="278" type="line"/>
      <point x="684" y="281"/>
      <point x="713" y="290"/>
      <point x="751" y="290" type="curve" smooth="yes"/>
      <point x="905" y="290"/>
      <point x="924" y="199"/>
      <point x="924" y="48" type="curve" smooth="yes"/>
      <point x="924" y="-137"/>
      <point x="875" y="-230"/>
      <point x="760" y="-230" type="curve" smooth="yes"/>
      <point x="704" y="-230"/>
      <point x="658" y="-205"/>
      <point x="658" y="-82" type="curve"/>
      <point x="605" y="-82"/>
      <point x="585" y="-106"/>
      <point x="585" y="-140" type="curve" smooth="yes"/>
      <point x="585" y="-215"/>
      <point x="657" y="-240"/>
    </contour>
  </outline>
</glyph>
<glyph name="uni04B2" format="2">
  <advance width="800"/>
  <unicode hex="04B2"/>
  <anchor x="427" y="0" name="bottom"/>
  <anchor x="427" y="714" name="top"/>
  <outline>
    <contour>
      <point x="787" y="-210" type="curve"/>
      <point x="797" y="-210" type="line"/>
      <point x="797" y="16" type="line"/>
      <point x="758" y="16" type="line" smooth="yes"/>
      <point x="700" y="16"/>
      <point x="673" y="30"/>
      <point x="646" y="72" type="curve" smooth="yes"/>
      <point x="430" y="405" type="line"/>
      <point x="589" y="637" type="line" smooth="yes"/>
      <point x="627" y="691"/>
      <point x="640" y="704"/>
      <point x="689" y="704" type="curve" smooth="yes"/>
      <point x="738" y="704" type="line"/>
      <point x="738" y="714" type="line"/>
      <point x="505" y="714" type="line"/>
      <point x="505" y="704" type="line"/>
      <point x="539" y="704" type="line" smooth="yes"/>
      <point x="587" y="704"/>
      <point x="595" y="696"/>
      <point x="595" y="678" type="curve" smooth="yes"/>
      <point x="595" y="660"/>
      <point x="582" y="644"/>
      <point x="562" y="615" type="curve" smooth="yes"/>
      <point x="424" y="413" type="line"/>
      <point x="291" y="617" type="line" smooth="yes"/>
      <point x="274" y="642"/>
      <point x="266" y="654"/>
      <point x="266" y="674" type="curve" smooth="yes"/>
      <point x="266" y="692"/>
      <point x="280" y="704"/>
      <point x="327" y="704" type="curve" smooth="yes"/>
      <point x="339" y="704" type="line"/>
      <point x="339" y="714" type="line"/>
      <point x="27" y="714" type="line"/>
      <point x="27" y="704" type="line"/>
      <point x="67" y="704" type="line" smooth="yes"/>
      <point x="117" y="704"/>
      <point x="126" y="697"/>
      <point x="153" y="655" type="curve" smooth="yes"/>
      <point x="347" y="353" type="line"/>
      <point x="160" y="77" type="line" smooth="yes"/>
      <point x="121" y="21"/>
      <point x="108" y="10"/>
      <point x="68" y="10" type="curve" smooth="yes"/>
      <point x="10" y="10" type="line"/>
      <point x="10" y="0" type="line"/>
      <point x="256" y="0" type="line"/>
      <point x="256" y="10" type="line"/>
      <point x="208" y="10" type="line" smooth="yes"/>
      <point x="162" y="10"/>
      <point x="155" y="19"/>
      <point x="155" y="36" type="curve" smooth="yes"/>
      <point x="155" y="55"/>
      <point x="166" y="71"/>
      <point x="200" y="120" type="curve" smooth="yes"/>
      <point x="354" y="344" type="line"/>
      <point x="497" y="123" type="line" smooth="yes"/>
      <point x="520" y="90"/>
      <point x="531" y="73"/>
      <point x="531" y="54" type="curve" smooth="yes"/>
      <point x="531" y="14"/>
      <point x="509" y="10"/>
      <point x="449" y="10" type="curve" smooth="yes"/>
      <point x="460" y="10" type="line"/>
      <point x="460" y="0" type="line"/>
      <point x="720" y="0" type="line" smooth="yes"/>
      <point x="764" y="0"/>
      <point x="787" y="-36"/>
    </contour>
  </outline>
</glyph>
<glyph name="uni04C6" format="2">
  <advance width="754"/>
  <unicode hex="04C6"/>
  <anchor x="375" y="0" name="bottom"/>
  <anchor x="385" y="536" name="top"/>
  <outline>
    <contour>
      <point x="575" y="-210" type="line"/>
      <point x="643" y="-210" type="line"/>
      <point x="725" y="-2" type="line"/>
      <point x="726" y="10" type="line"/>
      <point x="714" y="10" type="line"/>
      <point x="714" y="0" type="line"/>
    </contour>
    <component base="afii10077"/>
  </outline>
</glyph>
<glyph name="uni050C" format="2">
  <advance width="863"/>
  <unicode hex="050C"/>
  <anchor x="431" y="0" name="bottom"/>
  <anchor x="431" y="714" name="top"/>
  <outline>
    <contour>
      <point x="441" y="-10" type="curve" smooth="yes"/>
      <point x="666" y="-11"/>
      <point x="758" y="83"/>
      <point x="766" y="217" type="curve" smooth="yes"/>
      <point x="770" y="296"/>
      <point x="785" y="320"/>
      <point x="802" y="320" type="curve" smooth="yes"/>
      <point x="849" y="320" type="line"/>
      <point x="849" y="330" type="line"/>
      <point x="540" y="330" type="line"/>
      <point x="540" y="320" type="line"/>
      <point x="596" y="320" type="line" smooth="yes"/>
      <point x="635" y="320"/>
      <point x="658" y="288"/>
      <point x="657" y="170" type="curve" smooth="yes"/>
      <point x="656" y="43"/>
      <point x="568" y="0"/>
      <point x="445" y="0" type="curve" smooth="yes"/>
      <point x="251" y="0"/>
      <point x="184" y="146"/>
      <point x="184" y="362" type="curve" smooth="yes"/>
      <point x="184" y="625"/>
      <point x="291" y="714"/>
      <point x="486" y="714" type="curve" smooth="yes"/>
      <point x="617" y="714"/>
      <point x="657" y="673"/>
      <point x="657" y="540" type="curve"/>
      <point x="717" y="540"/>
      <point x="747" y="567"/>
      <point x="747" y="605" type="curve" smooth="yes"/>
      <point x="747" y="664"/>
      <point x="664" y="724"/>
      <point x="494" y="724" type="curve" smooth="yes"/>
      <point x="232" y="724"/>
      <point x="70" y="623"/>
      <point x="70" y="360" type="curve" smooth="yes"/>
      <point x="70" y="147"/>
      <point x="185" y="-8"/>
    </contour>
  </outline>
</glyph>
<glyph name="uni0514" format="2">
  <advance width="1171"/>
  <unicode hex="0514"/>
  <anchor x="601" y="0" name="bottom"/>
  <anchor x="601" y="714" name="top"/>
  <outline>
    <contour>
      <point x="108" y="-7" type="curve" smooth="yes"/>
      <point x="189" y="-7"/>
      <point x="227" y="43"/>
      <point x="262" y="145" type="curve" smooth="yes"/>
      <point x="314" y="317"/>
      <point x="347" y="586"/>
      <point x="355" y="704" type="curve"/>
      <point x="457" y="704" type="line" smooth="yes"/>
      <point x="507" y="704"/>
      <point x="515" y="697"/>
      <point x="542" y="655" type="curve" smooth="yes"/>
      <point x="737" y="353" type="line"/>
      <point x="549" y="77" type="line" smooth="yes"/>
      <point x="511" y="21"/>
      <point x="498" y="10"/>
      <point x="457" y="10" type="curve" smooth="yes"/>
      <point x="400" y="10" type="line"/>
      <point x="400" y="0" type="line"/>
      <point x="645" y="0" type="line"/>
      <point x="645" y="10" type="line"/>
      <point x="597" y="10" type="line" smooth="yes"/>
      <point x="552" y="10"/>
      <point x="545" y="19"/>
      <point x="545" y="36" type="curve" smooth="yes"/>
      <point x="545" y="55"/>
      <point x="555" y="71"/>
      <point x="589" y="120" type="curve" smooth="yes"/>
      <point x="744" y="344" type="line"/>
      <point x="893" y="111" type="line" smooth="yes"/>
      <point x="915" y="79"/>
      <point x="926" y="61"/>
      <point x="926" y="42" type="curve" smooth="yes"/>
      <point x="926" y="22"/>
      <point x="915" y="10"/>
      <point x="878" y="10" type="curve" smooth="yes"/>
      <point x="856" y="10" type="line"/>
      <point x="856" y="0" type="line"/>
      <point x="1168" y="0" type="line"/>
      <point x="1168" y="10" type="line"/>
      <point x="1133" y="10" type="line" smooth="yes"/>
      <point x="1079" y="10"/>
      <point x="1069" y="19"/>
      <point x="1042" y="60" type="curve" smooth="yes"/>
      <point x="819" y="405" type="line"/>
      <point x="979" y="637" type="line" smooth="yes"/>
      <point x="1016" y="691"/>
      <point x="1030" y="704"/>
      <point x="1079" y="704" type="curve" smooth="yes"/>
      <point x="1127" y="704" type="line"/>
      <point x="1127" y="714" type="line"/>
      <point x="894" y="714" type="line"/>
      <point x="894" y="704" type="line"/>
      <point x="929" y="704" type="line" smooth="yes"/>
      <point x="976" y="704"/>
      <point x="984" y="696"/>
      <point x="984" y="678" type="curve" smooth="yes"/>
      <point x="984" y="660"/>
      <point x="971" y="644"/>
      <point x="952" y="615" type="curve" smooth="yes"/>
      <point x="813" y="413" type="line"/>
      <point x="681" y="617" type="line" smooth="yes"/>
      <point x="664" y="642"/>
      <point x="655" y="654"/>
      <point x="655" y="674" type="curve" smooth="yes"/>
      <point x="655" y="692"/>
      <point x="670" y="704"/>
      <point x="717" y="704" type="curve" smooth="yes"/>
      <point x="729" y="704" type="line"/>
      <point x="729" y="714" type="line"/>
      <point x="198" y="714" type="line"/>
      <point x="198" y="704" type="line"/>
      <point x="273" y="704" type="line" smooth="yes"/>
      <point x="305" y="704"/>
      <point x="339" y="707"/>
      <point x="339" y="637" type="curve" smooth="yes"/>
      <point x="339" y="576"/>
      <point x="298" y="287"/>
      <point x="257" y="162" type="curve" smooth="yes"/>
      <point x="232" y="110"/>
      <point x="204" y="50"/>
      <point x="124" y="50" type="curve" smooth="yes"/>
      <point x="87" y="50"/>
      <point x="55" y="60"/>
      <point x="45" y="112" type="curve"/>
      <point x="17" y="113"/>
      <point x="0" y="98"/>
      <point x="0" y="67" type="curve" smooth="yes"/>
      <point x="0" y="20"/>
      <point x="43" y="-7"/>
    </contour>
  </outline>
</glyph>
<glyph name="uni0516" format="2">
  <advance width="1085"/>
  <unicode hex="0516"/>
  <anchor x="540" y="0" name="bottom"/>
  <anchor x="540" y="714" name="top"/>
  <outline>
    <contour>
      <point x="48" y="0" type="line"/>
      <point x="416" y="0" type="line"/>
      <point x="416" y="10" type="line"/>
      <point x="331" y="10" type="line" smooth="yes"/>
      <point x="292" y="10"/>
      <point x="275" y="16"/>
      <point x="275" y="84" type="curve" smooth="yes"/>
      <point x="275" y="287" type="line"/>
      <point x="364" y="287" type="line" smooth="yes"/>
      <point x="483" y="287"/>
      <point x="560" y="310"/>
      <point x="608" y="354" type="curve"/>
      <point x="785" y="111" type="line" smooth="yes"/>
      <point x="809" y="83"/>
      <point x="818" y="62"/>
      <point x="818" y="43" type="curve" smooth="yes"/>
      <point x="818" y="24"/>
      <point x="804" y="10"/>
      <point x="771" y="10" type="curve" smooth="yes"/>
      <point x="744" y="10" type="line"/>
      <point x="744" y="0" type="line"/>
      <point x="1052" y="0" type="line"/>
      <point x="1052" y="10" type="line"/>
      <point x="1028" y="10" type="line" smooth="yes"/>
      <point x="988" y="10"/>
      <point x="968" y="22"/>
      <point x="949" y="39" type="curve" smooth="yes"/>
      <point x="675" y="410" type="line"/>
      <point x="938" y="647" type="line" smooth="yes"/>
      <point x="984" y="691"/>
      <point x="990" y="704"/>
      <point x="1026" y="704" type="curve" smooth="yes"/>
      <point x="1074" y="704" type="line"/>
      <point x="1074" y="714" type="line"/>
      <point x="854" y="714" type="line"/>
      <point x="854" y="704" type="line"/>
      <point x="896" y="704" type="line" smooth="yes"/>
      <point x="929" y="704"/>
      <point x="937" y="696"/>
      <point x="937" y="682" type="curve" smooth="yes"/>
      <point x="937" y="666"/>
      <point x="916" y="641"/>
      <point x="891" y="619" type="curve" smooth="yes"/>
      <point x="661" y="408" type="line"/>
      <point x="678" y="432"/>
      <point x="685" y="466"/>
      <point x="685" y="505" type="curve" smooth="yes"/>
      <point x="685" y="636"/>
      <point x="598" y="714"/>
      <point x="395" y="714" type="curve" smooth="yes"/>
      <point x="48" y="714" type="line"/>
      <point x="48" y="704" type="line"/>
      <point x="111" y="704" type="line" smooth="yes"/>
      <point x="146" y="704"/>
      <point x="166" y="697"/>
      <point x="166" y="630" type="curve" smooth="yes"/>
      <point x="166" y="85" type="line" smooth="yes"/>
      <point x="166" y="16"/>
      <point x="148" y="10"/>
      <point x="108" y="10" type="curve" smooth="yes"/>
      <point x="48" y="10" type="line"/>
    </contour>
    <contour>
      <point x="275" y="297" type="line"/>
      <point x="275" y="704" type="line"/>
      <point x="387" y="704" type="line" smooth="yes"/>
      <point x="517" y="704"/>
      <point x="571" y="638"/>
      <point x="571" y="503" type="curve" smooth="yes"/>
      <point x="571" y="373"/>
      <point x="520" y="297"/>
      <point x="357" y="297" type="curve" smooth="yes"/>
    </contour>
  </outline>
</glyph>
<glyph name="uni0518" format="2">
  <advance width="1109"/>
  <unicode hex="0518"/>
  <anchor x="555" y="0" name="bottom"/>
  <anchor x="555" y="714" name="top"/>
  <outline>
    <contour>
      <point x="-2" y="0" type="line"/>
      <point x="48" y="0" type="line" smooth="yes"/>
      <point x="136" y="0"/>
      <point x="176" y="14"/>
      <point x="216" y="73" type="curve" smooth="yes"/>
      <point x="398" y="315" type="line"/>
      <point x="524" y="315" type="line"/>
      <point x="524" y="81" type="line" smooth="yes"/>
      <point x="524" y="16"/>
      <point x="506" y="10"/>
      <point x="472" y="10" type="curve" smooth="yes"/>
      <point x="411" y="10" type="line"/>
      <point x="411" y="0" type="line"/>
      <point x="1047" y="0" type="line"/>
      <point x="1056" y="176" type="line"/>
      <point x="1046" y="176" type="line"/>
      <point x="1043" y="121" type="line" smooth="yes"/>
      <point x="1036" y="41"/>
      <point x="1015" y="9"/>
      <point x="934" y="9" type="curve" smooth="yes"/>
      <point x="631" y="9" type="line"/>
      <point x="631" y="369" type="line"/>
      <point x="918" y="369" type="line"/>
      <point x="918" y="379" type="line"/>
      <point x="631" y="379" type="line"/>
      <point x="631" y="704" type="line"/>
      <point x="906" y="704" type="line" smooth="yes"/>
      <point x="975" y="704"/>
      <point x="994" y="675"/>
      <point x="1001" y="586" type="curve" smooth="yes"/>
      <point x="1004" y="538" type="line"/>
      <point x="1014" y="538" type="line"/>
      <point x="1006" y="714" type="line"/>
      <point x="445" y="714" type="line" smooth="yes"/>
      <point x="259" y="714"/>
      <point x="127" y="655"/>
      <point x="127" y="516" type="curve" smooth="yes"/>
      <point x="127" y="425"/>
      <point x="164" y="349"/>
      <point x="291" y="320" type="curve"/>
      <point x="113" y="83" type="line" smooth="yes"/>
      <point x="44" y="-4"/>
      <point x="37" y="10"/>
      <point x="11" y="10" type="curve" smooth="yes"/>
      <point x="-2" y="10" type="line"/>
    </contour>
    <contour>
      <point x="457" y="325" type="line" smooth="yes"/>
      <point x="306" y="325"/>
      <point x="242" y="365"/>
      <point x="242" y="506" type="curve" smooth="yes"/>
      <point x="242" y="649"/>
      <point x="306" y="704"/>
      <point x="457" y="704" type="curve" smooth="yes"/>
      <point x="524" y="704" type="line"/>
      <point x="524" y="325" type="line"/>
    </contour>
  </outline>
</glyph>
<glyph name="uni0519" format="2">
  <advance width="1012"/>
  <unicode hex="0519"/>
  <anchor x="506" y="0" name="bottom"/>
  <anchor x="506" y="536" name="top"/>
  <outline>
    <contour>
      <point x="730" y="-10" type="curve" smooth="yes"/>
      <point x="859" y="-10"/>
      <point x="944" y="45"/>
      <point x="944" y="101" type="curve" smooth="yes"/>
      <point x="944" y="124"/>
      <point x="933" y="133"/>
      <point x="906" y="140" type="curve"/>
      <point x="895" y="53"/>
      <point x="848" y="2"/>
      <point x="757" y="2" type="curve" smooth="yes"/>
      <point x="629" y="2"/>
      <point x="555" y="93"/>
      <point x="556" y="279" type="curve"/>
      <point x="962" y="279" type="line"/>
      <point x="962" y="297" type="line" smooth="yes"/>
      <point x="962" y="459"/>
      <point x="864" y="546"/>
      <point x="714" y="546" type="curve" smooth="yes"/>
      <point x="634" y="546"/>
      <point x="576" y="517"/>
      <point x="538" y="462" type="curve"/>
      <point x="538" y="536" type="line"/>
      <point x="316" y="536" type="line" smooth="yes"/>
      <point x="152" y="536"/>
      <point x="78" y="480"/>
      <point x="78" y="388" type="curve" smooth="yes"/>
      <point x="78" y="280"/>
      <point x="154" y="252"/>
      <point x="234" y="244" type="curve"/>
      <point x="110" y="64" type="line" smooth="yes"/>
      <point x="74" y="14"/>
      <point x="58" y="10"/>
      <point x="13" y="10" type="curve" smooth="yes"/>
      <point x="6" y="10" type="line"/>
      <point x="6" y="0" type="line"/>
      <point x="146" y="0"/>
      <point x="186" y="6"/>
      <point x="229" y="81" type="curve" smooth="yes"/>
      <point x="333" y="250" type="line"/>
      <point x="450" y="250" type="line"/>
      <point x="458" y="78"/>
      <point x="555" y="-10"/>
    </contour>
    <contour>
      <point x="338" y="260" type="line" smooth="yes"/>
      <point x="231" y="260"/>
      <point x="187" y="291"/>
      <point x="187" y="391" type="curve" smooth="yes"/>
      <point x="187" y="497"/>
      <point x="234" y="526"/>
      <point x="375" y="526" type="curve" smooth="yes"/>
      <point x="449" y="526" type="line"/>
      <point x="449" y="260" type="line"/>
    </contour>
    <contour>
      <point x="559" y="289" type="line"/>
      <point x="565" y="458"/>
      <point x="603" y="536"/>
      <point x="712" y="536" type="curve" smooth="yes"/>
      <point x="805" y="536"/>
      <point x="857" y="457"/>
      <point x="857" y="289" type="curve"/>
    </contour>
  </outline>
</glyph>
<glyph name="uni1D04" format="2">
  <advance width="635"/>
  <unicode hex="1D04"/>
  <anchor x="318" y="0" name="bottom"/>
  <anchor x="318" y="536" name="top"/>
  <outline>
    <contour>
      <point x="369" y="-9" type="curve" smooth="yes"/>
      <point x="525" y="-9"/>
      <point x="575" y="53"/>
      <point x="575" y="69" type="curve" smooth="yes"/>
      <point x="575" y="91"/>
      <point x="561" y="106"/>
      <point x="545" y="104" type="curve"/>
      <point x="531" y="29"/>
      <point x="481" y="1"/>
      <point x="377" y="1" type="curve" smooth="yes"/>
      <point x="235" y="1"/>
      <point x="170" y="88"/>
      <point x="170" y="265" type="curve" smooth="yes"/>
      <point x="170" y="417"/>
      <point x="225" y="532"/>
      <point x="364" y="532" type="curve" smooth="yes"/>
      <point x="475" y="532"/>
      <point x="497" y="472"/>
      <point x="497" y="408" type="curve"/>
      <point x="548" y="408"/>
      <point x="580" y="430"/>
      <point x="580" y="464" type="curve" smooth="yes"/>
      <point x="580" y="494"/>
      <point x="526" y="542"/>
      <point x="365" y="542" type="curve" smooth="yes"/>
      <point x="167" y="542"/>
      <point x="64" y="407"/>
      <point x="64" y="269" type="curve" smooth="yes"/>
      <point x="64" y="122"/>
      <point x="154" y="-9"/>
    </contour>
  </outline>
</glyph>
<glyph name="uni1D0F" format="2">
  <advance width="767"/>
  <unicode hex="1D0F"/>
  <anchor x="390" y="0" name="bottom"/>
  <anchor x="390" y="536" name="top"/>
  <outline>
    <contour>
      <point x="381" y="-9" type="curve" smooth="yes"/>
      <point x="603" y="-9"/>
      <point x="695" y="109"/>
      <point x="695" y="267" type="curve" smooth="yes"/>
      <point x="695" y="440"/>
      <point x="602" y="543"/>
      <point x="383" y="543" type="curve" smooth="yes"/>
      <point x="189" y="543"/>
      <point x="69" y="440"/>
      <point x="69" y="269" type="curve" smooth="yes"/>
      <point x="69" y="98"/>
      <point x="179" y="-9"/>
    </contour>
    <contour>
      <point x="381" y="1" type="curve" smooth="yes"/>
      <point x="240" y="1"/>
      <point x="176" y="85"/>
      <point x="176" y="267" type="curve" smooth="yes"/>
      <point x="176" y="446"/>
      <point x="245" y="533"/>
      <point x="382" y="533" type="curve" smooth="yes"/>
      <point x="537" y="533"/>
      <point x="589" y="446"/>
      <point x="589" y="267" type="curve" smooth="yes"/>
      <point x="589" y="87"/>
      <point x="532" y="1"/>
    </contour>
  </outline>
</glyph>
<glyph name="uni1D16" format="2">
  <advance width="715"/>
  <unicode hex="1D16"/>
  <anchor x="358" y="0" name="bottom"/>
  <anchor x="358" y="536" name="top"/>
  <outline>
    <contour>
      <point x="64" y="270" type="curve"/>
      <point x="172" y="270" type="line"/>
      <point x="172" y="454"/>
      <point x="235" y="540"/>
      <point x="357" y="540" type="curve" smooth="yes"/>
      <point x="497" y="540"/>
      <point x="545" y="454"/>
      <point x="545" y="270" type="curve"/>
      <point x="653" y="270" type="line"/>
      <point x="653" y="468"/>
      <point x="557" y="550"/>
      <point x="359" y="550" type="curve" smooth="yes"/>
      <point x="173" y="550"/>
      <point x="64" y="468"/>
    </contour>
  </outline>
</glyph>
<glyph name="uni1D6C" format="2">
  <advance width="735"/>
  <unicode hex="1D6C"/>
  <outline>
    <contour>
      <point x="433" y="-10" type="curve" smooth="yes"/>
      <point x="582" y="-10"/>
      <point x="667" y="85"/>
      <point x="667" y="254" type="curve" smooth="yes"/>
      <point x="667" y="428"/>
      <point x="598" y="523"/>
      <point x="447" y="523" type="curve" smooth="yes"/>
      <point x="341" y="523"/>
      <point x="268" y="462"/>
      <point x="240" y="338" type="curve"/>
      <point x="238" y="338" type="line"/>
      <point x="239" y="422"/>
      <point x="240" y="496"/>
      <point x="240" y="540" type="curve" smooth="yes"/>
      <point x="240" y="760" type="line"/>
      <point x="23" y="760" type="line"/>
      <point x="23" y="750" type="line"/>
      <point x="58" y="750" type="line" smooth="yes"/>
      <point x="115" y="750"/>
      <point x="133" y="742"/>
      <point x="133" y="675" type="curve" smooth="yes"/>
      <point x="133" y="82" type="line" smooth="yes"/>
      <point x="133" y="10"/>
      <point x="109" y="10"/>
      <point x="45" y="10" type="curve" smooth="yes"/>
      <point x="23" y="10" type="line"/>
      <point x="23" y="0" type="line"/>
      <point x="239" y="0" type="line"/>
      <point x="239" y="154" type="line"/>
      <point x="241" y="154" type="line"/>
      <point x="268" y="27"/>
      <point x="342" y="-10"/>
    </contour>
    <contour>
      <point x="403" y="26" type="curve" smooth="yes"/>
      <point x="279" y="26"/>
      <point x="239" y="119"/>
      <point x="239" y="257" type="curve" smooth="yes"/>
      <point x="239" y="381"/>
      <point x="294" y="486"/>
      <point x="402" y="486" type="curve" smooth="yes"/>
      <point x="513" y="486"/>
      <point x="560" y="399"/>
      <point x="560" y="259" type="curve" smooth="yes"/>
      <point x="560" y="130"/>
      <point x="504" y="26"/>
    </contour>
    <contour>
      <point x="-27" y="554" type="curve"/>
      <point x="-17" y="554" type="line"/>
      <point x="-8" y="601"/>
      <point x="10" y="625"/>
      <point x="64" y="625" type="curve" smooth="yes"/>
      <point x="129" y="625"/>
      <point x="231" y="562"/>
      <point x="320" y="562" type="curve" smooth="yes"/>
      <point x="389" y="562"/>
      <point x="419" y="616"/>
      <point x="424" y="680" type="curve"/>
      <point x="413" y="680" type="line"/>
      <point x="405" y="634"/>
      <point x="386" y="615"/>
      <point x="336" y="615" type="curve" smooth="yes"/>
      <point x="277" y="615"/>
      <point x="190" y="679"/>
      <point x="83" y="679" type="curve" smooth="yes"/>
      <point x="13" y="679"/>
      <point x="-22" y="623"/>
    </contour>
  </outline>
</glyph>
<glyph name="uni1D75" format="2">
  <advance width="412"/>
  <unicode hex="1D75"/>
  <anchor x="181" y="659" name="top"/>
  <anchor x="206" y="268" name="center"/>
  <anchor x="348" y="659" name="topright"/>
  <anchor x="229" y="0" name="bottom"/>
  <outline>
    <contour>
      <point x="-46" y="237" type="curve"/>
      <point x="-36" y="237" type="line"/>
      <point x="-29" y="285"/>
      <point x="-11" y="304"/>
      <point x="39" y="304" type="curve" smooth="yes"/>
      <point x="112" y="304"/>
      <point x="226" y="244"/>
      <point x="303" y="244" type="curve" smooth="yes"/>
      <point x="375" y="244"/>
      <point x="401" y="302"/>
      <point x="407" y="368" type="curve"/>
      <point x="397" y="368" type="line"/>
      <point x="389" y="322"/>
      <point x="370" y="307"/>
      <point x="323" y="307" type="curve" smooth="yes"/>
      <point x="252" y="307"/>
      <point x="169" y="367"/>
      <point x="64" y="367" type="curve" smooth="yes"/>
      <point x="-10" y="367"/>
      <point x="-41" y="304"/>
    </contour>
    <component base="t"/>
  </outline>
</glyph>
<glyph name="uni1D7E" format="2">
  <advance width="778"/>
  <unicode hex="1D7E"/>
  <outline>
    <contour>
      <point x="395" y="-10" type="curve" smooth="yes"/>
      <point x="551" y="-10"/>
      <point x="606" y="39"/>
      <point x="606" y="207" type="curve" smooth="yes"/>
      <point x="606" y="289" type="line"/>
      <point x="728" y="289" type="line"/>
      <point x="728" y="299" type="line"/>
      <point x="606" y="299" type="line"/>
      <point x="606" y="453" type="line" smooth="yes"/>
      <point x="606" y="521"/>
      <point x="615" y="526"/>
      <point x="682" y="526" type="curve" smooth="yes"/>
      <point x="726" y="526" type="line"/>
      <point x="726" y="536" type="line"/>
      <point x="493" y="536" type="line"/>
      <point x="493" y="526" type="line"/>
      <point x="527" y="526" type="line" smooth="yes"/>
      <point x="598" y="526"/>
      <point x="605" y="521"/>
      <point x="605" y="455" type="curve" smooth="yes"/>
      <point x="605" y="299" type="line"/>
      <point x="255" y="299" type="line"/>
      <point x="255" y="536" type="line"/>
      <point x="32" y="536" type="line"/>
      <point x="32" y="526" type="line"/>
      <point x="75" y="526" type="line" smooth="yes"/>
      <point x="141" y="526"/>
      <point x="152" y="522"/>
      <point x="152" y="454" type="curve" smooth="yes"/>
      <point x="152" y="299" type="line"/>
      <point x="47" y="299" type="line"/>
      <point x="47" y="289" type="line"/>
      <point x="152" y="289" type="line"/>
      <point x="152" y="205" type="line" smooth="yes"/>
      <point x="152" y="59"/>
      <point x="229" y="-10"/>
    </contour>
    <contour>
      <point x="423" y="10" type="curve" smooth="yes"/>
      <point x="278" y="10"/>
      <point x="254" y="90"/>
      <point x="254" y="184" type="curve" smooth="yes"/>
      <point x="254" y="289" type="line"/>
      <point x="605" y="289" type="line"/>
      <point x="605" y="204" type="line" smooth="yes"/>
      <point x="605" y="49"/>
      <point x="540" y="10"/>
    </contour>
  </outline>
</glyph>
<glyph name="uni1D83" format="2">
  <advance width="956"/>
  <unicode hex="1D83"/>
  <anchor x="368" y="720" name="top"/>
  <anchor x="368" y="-234" name="bottom"/>
  <outline>
    <contour>
      <point x="810" y="-203" type="curve" smooth="yes"/>
      <point x="895" y="-203"/>
      <point x="913" y="-146"/>
      <point x="913" y="-99" type="curve" smooth="yes"/>
      <point x="913" y="145" type="line"/>
      <point x="604" y="145" type="line"/>
      <point x="604" y="135" type="line"/>
      <point x="903" y="135" type="line"/>
      <point x="903" y="-58" type="line" smooth="yes"/>
      <point x="903" y="-129"/>
      <point x="876" y="-149"/>
      <point x="814" y="-149" type="curve" smooth="yes"/>
      <point x="787" y="-149"/>
      <point x="760" y="-142"/>
      <point x="738" y="-133" type="curve"/>
      <point x="728" y="-141"/>
      <point x="723" y="-150"/>
      <point x="723" y="-160" type="curve" smooth="yes"/>
      <point x="723" y="-186"/>
      <point x="762" y="-203"/>
    </contour>
    <component base="uni0261"/>
  </outline>
</glyph>
<glyph name="uni1D88" format="2">
  <advance width="734"/>
  <unicode hex="1D88"/>
  <anchor x="367" y="536" name="top"/>
  <anchor x="698" y="536" name="topright"/>
  <anchor x="367" y="-231" name="bottom"/>
  <outline>
    <contour>
      <point x="523" y="-203" type="curve" smooth="yes"/>
      <point x="591" y="-203"/>
      <point x="626" y="-169"/>
      <point x="626" y="-99" type="curve" smooth="yes"/>
      <point x="626" y="103" type="line"/>
      <point x="616" y="103" type="line"/>
      <point x="616" y="-58" type="line" smooth="yes"/>
      <point x="616" y="-118"/>
      <point x="585" y="-149"/>
      <point x="522" y="-149" type="curve" smooth="yes"/>
      <point x="500" y="-149"/>
      <point x="475" y="-144"/>
      <point x="456" y="-130" type="curve"/>
      <point x="440" y="-139"/>
      <point x="435" y="-148"/>
      <point x="435" y="-160" type="curve" smooth="yes"/>
      <point x="435" y="-185"/>
      <point x="470" y="-203"/>
    </contour>
    <component base="p"/>
  </outline>
</glyph>
<glyph name="uni1D8B" format="2">
  <advance width="644"/>
  <unicode hex="1D8B"/>
  <anchor x="249" y="765" name="top"/>
  <anchor x="249" y="-236" name="bottom"/>
  <outline>
    <contour>
      <point x="499" y="-203" type="curve" smooth="yes"/>
      <point x="583" y="-203"/>
      <point x="602" y="-146"/>
      <point x="602" y="-99" type="curve" smooth="yes"/>
      <point x="602" y="130" type="line"/>
      <point x="302" y="130" type="line"/>
      <point x="302" y="120" type="line"/>
      <point x="592" y="120" type="line"/>
      <point x="592" y="-58" type="line" smooth="yes"/>
      <point x="592" y="-129"/>
      <point x="564" y="-149"/>
      <point x="502" y="-149" type="curve" smooth="yes"/>
      <point x="475" y="-149"/>
      <point x="449" y="-142"/>
      <point x="427" y="-133" type="curve"/>
      <point x="416" y="-141"/>
      <point x="411" y="-150"/>
      <point x="411" y="-160" type="curve" smooth="yes"/>
      <point x="411" y="-186"/>
      <point x="451" y="-203"/>
    </contour>
    <component base="uni0283"/>
  </outline>
</glyph>
<glyph name="uni1D8E" format="2">
  <advance width="615"/>
  <unicode hex="1D8E"/>
  <outline>
    <contour>
      <point x="461" y="-203" type="curve" smooth="yes"/>
      <point x="546" y="-203"/>
      <point x="565" y="-146"/>
      <point x="565" y="-99" type="curve" smooth="yes"/>
      <point x="565" y="51" type="line"/>
      <point x="568" y="166" type="line"/>
      <point x="558" y="166" type="line"/>
      <point x="556" y="122" type="line" smooth="yes"/>
      <point x="550" y="34"/>
      <point x="531" y="13"/>
      <point x="452" y="13" type="curve" smooth="yes"/>
      <point x="160" y="13" type="line"/>
      <point x="561" y="531" type="line"/>
      <point x="561" y="536" type="line"/>
      <point x="88" y="536" type="line"/>
      <point x="77" y="390" type="line"/>
      <point x="87" y="390" type="line"/>
      <point x="90" y="422" type="line" smooth="yes"/>
      <point x="95" y="502"/>
      <point x="112" y="523"/>
      <point x="188" y="523" type="curve" smooth="yes"/>
      <point x="452" y="523" type="line"/>
      <point x="53" y="5" type="line"/>
      <point x="53" y="0" type="line"/>
      <point x="555" y="0" type="line"/>
      <point x="555" y="-58" type="line" smooth="yes"/>
      <point x="555" y="-129"/>
      <point x="529" y="-149"/>
      <point x="467" y="-149" type="curve" smooth="yes"/>
      <point x="428" y="-149"/>
      <point x="412" y="-138"/>
      <point x="389" y="-133" type="curve"/>
      <point x="379" y="-140"/>
      <point x="374" y="-148"/>
      <point x="374" y="-160" type="curve" smooth="yes"/>
      <point x="374" y="-186"/>
      <point x="414" y="-203"/>
    </contour>
  </outline>
</glyph>
<glyph name="ogonekabove" format="2">
  <unicode hex="1DCE"/>
  <anchor x="-313" y="536" name="_top"/>
  <anchor x="-313" y="760" name="top"/>
  <outline>
    <contour>
      <point x="-371" y="534" type="curve"/>
      <point x="-348" y="534" type="line"/>
      <point x="-264" y="555"/>
      <point x="-195" y="595"/>
      <point x="-195" y="662" type="curve" smooth="yes"/>
      <point x="-195" y="719"/>
      <point x="-245" y="760"/>
      <point x="-333" y="760" type="curve" smooth="yes"/>
      <point x="-371" y="760"/>
      <point x="-397" y="753"/>
      <point x="-427" y="743" type="curve"/>
      <point x="-427" y="734" type="line"/>
      <point x="-405" y="740"/>
      <point x="-387" y="745"/>
      <point x="-367" y="745" type="curve" smooth="yes"/>
      <point x="-311" y="745"/>
      <point x="-269" y="705"/>
      <point x="-269" y="660" type="curve" smooth="yes"/>
      <point x="-269" y="610"/>
      <point x="-324" y="560"/>
    </contour>
  </outline>
</glyph>
<glyph name="uni1E10" format="2">
  <advance width="870"/>
  <unicode hex="1E10"/>
  <anchor x="436" y="-229" name="bottom"/>
  <anchor x="436" y="714" name="top"/>
  <anchor x="850" y="714" name="topright"/>
  <anchor x="436" y="357" name="center"/>
  <outline>
    <contour>
      <point x="426" y="-231" type="curve" smooth="yes"/>
      <point x="504" y="-231"/>
      <point x="564" y="-209"/>
      <point x="564" y="-136" type="curve" smooth="yes"/>
      <point x="564" y="-70"/>
      <point x="500" y="-59"/>
      <point x="420" y="-55" type="curve"/>
      <point x="435" y="7" type="line"/>
      <point x="425" y="7" type="line"/>
      <point x="404" y="-78" type="line"/>
      <point x="464" y="-82"/>
      <point x="498" y="-100"/>
      <point x="498" y="-137" type="curve" smooth="yes"/>
      <point x="498" y="-197"/>
      <point x="461" y="-219"/>
      <point x="405" y="-219" type="curve" smooth="yes"/>
      <point x="377" y="-219"/>
      <point x="361" y="-217"/>
      <point x="335" y="-211" type="curve"/>
      <point x="335" y="-222" type="line"/>
      <point x="364" y="-229"/>
      <point x="406" y="-231"/>
    </contour>
    <component base="D"/>
  </outline>
</glyph>
<glyph name="ll.middleWelsh" format="2">
  <advance width="711"/>
  <unicode hex="1EFB"/>
  <anchor x="350" y="0" name="bottom"/>
  <anchor x="350" y="760" name="top"/>
  <outline>
    <contour>
      <point x="14" y="0" type="line"/>
      <point x="685" y="0" type="line"/>
      <point x="685" y="10" type="line"/>
      <point x="645" y="10" type="line" smooth="yes"/>
      <point x="584" y="10"/>
      <point x="570" y="20"/>
      <point x="570" y="82" type="curve" smooth="yes"/>
      <point x="570" y="553" type="line"/>
      <point x="691" y="553" type="line"/>
      <point x="691" y="563" type="line"/>
      <point x="570" y="563" type="line"/>
      <point x="570" y="760" type="line"/>
      <point x="348" y="760" type="line"/>
      <point x="348" y="750" type="line"/>
      <point x="393" y="750" type="line" smooth="yes"/>
      <point x="437" y="750"/>
      <point x="463" y="745"/>
      <point x="463" y="682" type="curve" smooth="yes"/>
      <point x="463" y="563" type="line"/>
      <point x="236" y="563" type="line"/>
      <point x="236" y="760" type="line"/>
      <point x="14" y="760" type="line"/>
      <point x="14" y="750" type="line"/>
      <point x="59" y="750" type="line" smooth="yes"/>
      <point x="103" y="750"/>
      <point x="129" y="745"/>
      <point x="129" y="682" type="curve" smooth="yes"/>
      <point x="129" y="563" type="line"/>
      <point x="12" y="563" type="line"/>
      <point x="12" y="553" type="line"/>
      <point x="129" y="553" type="line"/>
      <point x="129" y="82" type="line" smooth="yes"/>
      <point x="129" y="20"/>
      <point x="114" y="10"/>
      <point x="53" y="10" type="curve" smooth="yes"/>
      <point x="14" y="10" type="line"/>
    </contour>
    <contour>
      <point x="311" y="10" type="line" smooth="yes"/>
      <point x="250" y="10"/>
      <point x="236" y="20"/>
      <point x="236" y="82" type="curve" smooth="yes"/>
      <point x="236" y="553" type="line"/>
      <point x="463" y="553" type="line"/>
      <point x="463" y="82" type="line" smooth="yes"/>
      <point x="463" y="20"/>
      <point x="448" y="10"/>
      <point x="387" y="10" type="curve" smooth="yes"/>
    </contour>
  </outline>
</glyph>
<glyph name="uni1FCD" format="2">
  <advance width="485"/>
  <unicode hex="1FCD"/>
  <anchor x="244" y="536" name="_top"/>
  <anchor x="244" y="728" name="top"/>
  <outline>
    <contour>
      <point x="94" y="546" type="line"/>
      <point x="189" y="566"/>
      <point x="214" y="597"/>
      <point x="214" y="657" type="curve" smooth="yes"/>
      <point x="214" y="707"/>
      <point x="189" y="728"/>
      <point x="157" y="728" type="curve" smooth="yes"/>
      <point x="115" y="728"/>
      <point x="104" y="706"/>
      <point x="104" y="683" type="curve" smooth="yes"/>
      <point x="104" y="630"/>
      <point x="175" y="658"/>
      <point x="175" y="611" type="curve" smooth="yes"/>
      <point x="175" y="592"/>
      <point x="149" y="569"/>
      <point x="94" y="557" type="curve"/>
    </contour>
    <contour>
      <point x="369" y="565" type="curve"/>
      <point x="382" y="565" type="line"/>
      <point x="382" y="583" type="line"/>
      <point x="361" y="628"/>
      <point x="349" y="672"/>
      <point x="342" y="713" type="curve"/>
      <point x="261" y="713" type="line"/>
      <point x="261" y="702" type="line"/>
      <point x="287" y="661"/>
      <point x="322" y="621"/>
    </contour>
  </outline>
</glyph>
<glyph name="uni1FFD" format="2">
  <advance width="611"/>
  <unicode hex="1FFD"/>
  <anchor x="299" y="536" name="_top"/>
  <anchor x="299" y="760" name="top"/>
  <outline>
    <contour>
      <point x="232" y="618" type="line"/>
      <point x="248" y="618" type="line"/>
      <point x="292" y="670"/>
      <point x="324" y="697"/>
      <point x="364" y="751" type="curve"/>
      <point x="364" y="760" type="line"/>
      <point x="288" y="760" type="line"/>
      <point x="265" y="706"/>
      <point x="249" y="664"/>
      <point x="232" y="623" type="curve"/>
    </contour>
  </outline>
</glyph>
<glyph name="quoteright" format="2">
  <advance width="294"/>
  <unicode hex="2019"/>
  <outline>
    <contour>
      <point x="67" y="460" type="line"/>
      <point x="174" y="483"/>
      <point x="221" y="556"/>
      <point x="221" y="627" type="curve" smooth="yes"/>
      <point x="221" y="682"/>
      <point x="196" y="714"/>
      <point x="154" y="714" type="curve" smooth="yes"/>
      <point x="121" y="714"/>
      <point x="100" y="692"/>
      <point x="100" y="656" type="curve" smooth="yes"/>
      <point x="100" y="610"/>
      <point x="168" y="614"/>
      <point x="168" y="573" type="curve" smooth="yes"/>
      <point x="168" y="530"/>
      <point x="124" y="482"/>
      <point x="67" y="470" type="curve"/>
    </contour>
  </outline>
</glyph>
<glyph name="caret" format="2">
  <advance width="474"/>
  <unicode hex="2038"/>
  <outline>
    <contour>
      <point x="67" y="-240" type="line"/>
      <point x="132" y="-240" type="line"/>
      <point x="238" y="16" type="line"/>
      <point x="342" y="-240" type="line"/>
      <point x="407" y="-240" type="line"/>
      <point x="286" y="42" type="line"/>
      <point x="193" y="42" type="line"/>
    </contour>
  </outline>
</glyph>
<glyph name="commercialMinusSign" format="2">
  <advance width="380"/>
  <unicode hex="2052"/>
  <outline>
    <contour>
      <point x="25" y="0" type="line"/>
      <point x="47" y="0" type="line"/>
      <point x="357" y="714" type="line"/>
      <point x="335" y="714" type="line"/>
    </contour>
    <contour>
      <point x="251" y="-2" type="curve" smooth="yes"/>
      <point x="283" y="-2"/>
      <point x="312" y="12"/>
      <point x="312" y="60" type="curve" smooth="yes"/>
      <point x="312" y="109"/>
      <point x="283" y="121"/>
      <point x="251" y="121" type="curve" smooth="yes"/>
      <point x="220" y="121"/>
      <point x="192" y="109"/>
      <point x="192" y="60" type="curve" smooth="yes"/>
      <point x="192" y="12"/>
      <point x="220" y="-2"/>
    </contour>
    <contour>
      <point x="126" y="594" type="curve" smooth="yes"/>
      <point x="159" y="594"/>
      <point x="188" y="609"/>
      <point x="188" y="656" type="curve" smooth="yes"/>
      <point x="188" y="706"/>
      <point x="159" y="718"/>
      <point x="126" y="718" type="curve" smooth="yes"/>
      <point x="96" y="718"/>
      <point x="68" y="706"/>
      <point x="68" y="656" type="curve" smooth="yes"/>
      <point x="68" y="609"/>
      <point x="96" y="594"/>
    </contour>
  </outline>
</glyph>
<glyph name="threedotpunctuation" format="2">
  <advance width="697"/>
  <unicode hex="2056"/>
  <outline>
    <contour>
      <point x="518" y="353" type="curve" smooth="yes"/>
      <point x="550" y="353"/>
      <point x="578" y="367"/>
      <point x="578" y="413" type="curve" smooth="yes"/>
      <point x="578" y="458"/>
      <point x="550" y="471"/>
      <point x="518" y="471" type="curve" smooth="yes"/>
      <point x="485" y="471"/>
      <point x="457" y="458"/>
      <point x="457" y="413" type="curve" smooth="yes"/>
      <point x="457" y="367"/>
      <point x="485" y="353"/>
    </contour>
    <contour>
      <point x="177" y="173" type="curve" smooth="yes"/>
      <point x="209" y="173"/>
      <point x="237" y="187"/>
      <point x="237" y="233" type="curve" smooth="yes"/>
      <point x="237" y="277"/>
      <point x="209" y="291"/>
      <point x="177" y="291" type="curve" smooth="yes"/>
      <point x="144" y="291"/>
      <point x="116" y="277"/>
      <point x="116" y="233" type="curve" smooth="yes"/>
      <point x="116" y="187"/>
      <point x="144" y="173"/>
    </contour>
    <contour>
      <point x="518" y="-8" type="curve" smooth="yes"/>
      <point x="550" y="-8"/>
      <point x="578" y="6"/>
      <point x="578" y="51" type="curve" smooth="yes"/>
      <point x="578" y="96"/>
      <point x="550" y="109"/>
      <point x="518" y="109" type="curve" smooth="yes"/>
      <point x="485" y="109"/>
      <point x="457" y="96"/>
      <point x="457" y="51" type="curve" smooth="yes"/>
      <point x="457" y="6"/>
      <point x="485" y="-8"/>
    </contour>
  </outline>
</glyph>
<glyph name="equalsuperior" format="2">
  <advance width="474"/>
  <unicode hex="207C"/>
  <outline>
    <contour>
      <point x="41" y="545" type="line"/>
      <point x="433" y="545" type="line"/>
      <point x="433" y="565" type="line"/>
      <point x="41" y="565" type="line"/>
    </contour>
    <contour>
      <point x="41" y="394" type="line"/>
      <point x="433" y="394" type="line"/>
      <point x="433" y="414" type="line"/>
      <point x="41" y="414" type="line"/>
    </contour>
  </outline>
</glyph>
<glyph name="sheqel" format="2">
  <advance width="1013"/>
  <unicode hex="20AA"/>
  <outline>
    <contour>
      <point x="114" y="0" type="line"/>
      <point x="207" y="0" type="line"/>
      <point x="207" y="589" type="line"/>
      <point x="412" y="589" type="line" smooth="yes"/>
      <point x="517" y="589"/>
      <point x="583" y="569"/>
      <point x="583" y="438" type="curve" smooth="yes"/>
      <point x="583" y="158" type="line"/>
      <point x="675" y="158" type="line"/>
      <point x="675" y="375" type="line" smooth="yes"/>
      <point x="675" y="533"/>
      <point x="605" y="599"/>
      <point x="421" y="599" type="curve" smooth="yes"/>
      <point x="114" y="599" type="line"/>
    </contour>
    <contour>
      <point x="343" y="0" type="line"/>
      <point x="647" y="0" type="line"/>
      <point x="833" y="0"/>
      <point x="900" y="69"/>
      <point x="900" y="224" type="curve" smooth="yes"/>
      <point x="900" y="599" type="line"/>
      <point x="807" y="599" type="line"/>
      <point x="807" y="161" type="line" smooth="yes"/>
      <point x="807" y="36"/>
      <point x="752" y="10"/>
      <point x="638" y="10" type="curve" smooth="yes"/>
      <point x="435" y="10" type="line"/>
      <point x="435" y="441" type="line"/>
      <point x="343" y="441" type="line"/>
    </contour>
  </outline>
</glyph>
<glyph name="uni2C60" format="2">
  <advance width="783"/>
  <unicode hex="2C60"/>
  <anchor x="392" y="0" name="bottom"/>
  <anchor x="392" y="714" name="top"/>
  <anchor x="727" y="714" name="topright"/>
  <anchor x="374" y="357" name="center"/>
  <outline>
    <contour>
      <point x="29" y="432" type="line"/>
      <point x="449" y="432" type="line"/>
      <point x="449" y="442" type="line"/>
      <point x="29" y="442" type="line"/>
    </contour>
    <contour>
      <point x="29" y="309" type="line"/>
      <point x="449" y="309" type="line"/>
      <point x="449" y="319" type="line"/>
      <point x="29" y="319" type="line"/>
    </contour>
    <component base="L"/>
  </outline>
</glyph>
<glyph name="uni2C66" format="2">
  <advance width="413"/>
  <unicode hex="2C66"/>
  <anchor x="206" y="-191" name="bottom"/>
  <anchor x="206" y="714" name="top"/>
  <anchor x="348" y="659" name="topright"/>
  <anchor x="206" y="268" name="center"/>
  <outline>
    <contour>
      <point x="111" y="-191" type="line"/>
      <point x="122" y="-191" type="line"/>
      <point x="397" y="714" type="line"/>
      <point x="386" y="714" type="line"/>
    </contour>
    <component base="t"/>
  </outline>
</glyph>
<glyph name="uni2C69" format="2">
  <advance width="907"/>
  <unicode hex="2C69"/>
  <anchor x="454" y="0" name="bottom"/>
  <anchor x="454" y="714" name="top"/>
  <outline>
    <contour>
      <point x="875" y="-210" type="curve"/>
      <point x="897" y="-210" type="line"/>
      <point x="897" y="31" type="line"/>
      <point x="838" y="31" type="line" smooth="yes"/>
      <point x="815" y="31"/>
      <point x="793" y="44"/>
      <point x="746" y="85" type="curve" smooth="yes"/>
      <point x="440" y="428" type="line"/>
      <point x="637" y="625" type="line" smooth="yes"/>
      <point x="694" y="677"/>
      <point x="740" y="703"/>
      <point x="806" y="704" type="curve"/>
      <point x="806" y="714" type="line"/>
      <point x="540" y="714" type="line"/>
      <point x="540" y="704" type="line"/>
      <point x="606" y="704"/>
      <point x="645" y="694"/>
      <point x="645" y="669" type="curve" smooth="yes"/>
      <point x="645" y="644"/>
      <point x="624" y="620"/>
      <point x="568" y="564" type="curve" smooth="yes"/>
      <point x="275" y="285" type="line"/>
      <point x="275" y="633" type="line" smooth="yes"/>
      <point x="275" y="690"/>
      <point x="286" y="704"/>
      <point x="327" y="704" type="curve" smooth="yes"/>
      <point x="380" y="704" type="line"/>
      <point x="380" y="714" type="line"/>
      <point x="48" y="714" type="line"/>
      <point x="48" y="704" type="line"/>
      <point x="112" y="704" type="line" smooth="yes"/>
      <point x="154" y="704"/>
      <point x="166" y="690"/>
      <point x="166" y="634" type="curve" smooth="yes"/>
      <point x="166" y="81" type="line" smooth="yes"/>
      <point x="166" y="24"/>
      <point x="152" y="10"/>
      <point x="109" y="10" type="curve" smooth="yes"/>
      <point x="48" y="10" type="line"/>
      <point x="48" y="0" type="line"/>
      <point x="382" y="0" type="line"/>
      <point x="382" y="10" type="line"/>
      <point x="332" y="10" type="line" smooth="yes"/>
      <point x="289" y="10"/>
      <point x="275" y="24"/>
      <point x="275" y="78" type="curve" smooth="yes"/>
      <point x="275" y="269" type="line"/>
      <point x="365" y="357" type="line"/>
      <point x="590" y="125" type="line" smooth="yes"/>
      <point x="664" y="35"/>
      <point x="700" y="7"/>
      <point x="753" y="3" type="curve" smooth="yes"/>
      <point x="853" y="-17"/>
      <point x="878" y="-34"/>
    </contour>
  </outline>
</glyph>
<glyph name="uni2C77" format="2">
  <advance width="853"/>
  <unicode hex="2C77"/>
  <anchor x="427" y="0" name="bottom"/>
  <anchor x="427" y="536" name="top"/>
  <outline>
    <contour>
      <point x="415" y="-10" type="curve" smooth="yes"/>
      <point x="682" y="-9"/>
      <point x="764" y="134"/>
      <point x="764" y="286" type="curve" smooth="yes"/>
      <point x="764" y="482"/>
      <point x="679" y="546"/>
      <point x="556" y="546" type="curve" smooth="yes"/>
      <point x="448" y="546"/>
      <point x="396" y="505"/>
      <point x="396" y="401" type="curve" smooth="yes"/>
      <point x="396" y="3" type="line"/>
      <point x="277" y="6"/>
      <point x="178" y="54"/>
      <point x="178" y="267" type="curve" smooth="yes"/>
      <point x="178" y="421"/>
      <point x="210" y="494"/>
      <point x="318" y="537" type="curve"/>
      <point x="318" y="547" type="line"/>
      <point x="154" y="510"/>
      <point x="71" y="409"/>
      <point x="71" y="268" type="curve" smooth="yes"/>
      <point x="71" y="113"/>
      <point x="167" y="-11"/>
    </contour>
    <contour>
      <point x="435" y="3" type="curve"/>
      <point x="437" y="438" type="line" smooth="yes"/>
      <point x="437" y="500"/>
      <point x="471" y="532"/>
      <point x="526" y="532" type="curve" smooth="yes"/>
      <point x="603" y="532"/>
      <point x="656" y="477"/>
      <point x="656" y="274" type="curve" smooth="yes"/>
      <point x="656" y="87"/>
      <point x="580" y="11"/>
    </contour>
  </outline>
</glyph>
<glyph name="raisedinterpolationmarker" format="2">
  <advance width="619"/>
  <unicode hex="2E06"/>
  <outline>
    <contour>
      <point x="298" y="246" type="line"/>
      <point x="320" y="246" type="line"/>
      <point x="320" y="669" type="line"/>
      <point x="564" y="669" type="line"/>
      <point x="564" y="689" type="line"/>
      <point x="55" y="689" type="line"/>
      <point x="55" y="669" type="line"/>
      <point x="298" y="669" type="line"/>
    </contour>
  </outline>
</glyph>
<glyph name="leftlowparaphrasebracket" format="2">
  <advance width="607"/>
  <unicode hex="2E1C"/>
  <outline>
    <contour>
      <point x="495" y="-53" type="line"/>
      <point x="507" y="-37" type="line"/>
      <point x="109" y="274" type="line"/>
      <point x="97" y="258" type="line"/>
    </contour>
  </outline>
</glyph>
<glyph name="tildedotabove" format="2">
  <advance width="693"/>
  <unicode hex="2E1E"/>
  <outline>
    <contour>
      <point x="68" y="303" type="line"/>
      <point x="110" y="337"/>
      <point x="169" y="363"/>
      <point x="209" y="363" type="curve" smooth="yes"/>
      <point x="235" y="363"/>
      <point x="262" y="360"/>
      <point x="328" y="336" type="curve" smooth="yes"/>
      <point x="403" y="310"/>
      <point x="433" y="304"/>
      <point x="485" y="304" type="curve" smooth="yes"/>
      <point x="535" y="304"/>
      <point x="582" y="325"/>
      <point x="625" y="349" type="curve"/>
      <point x="625" y="398" type="line"/>
      <point x="584" y="367"/>
      <point x="528" y="337"/>
      <point x="483" y="337" type="curve" smooth="yes"/>
      <point x="457" y="337"/>
      <point x="434" y="337"/>
      <point x="367" y="364" type="curve" smooth="yes"/>
      <point x="292" y="392"/>
      <point x="262" y="396"/>
      <point x="209" y="396" type="curve" smooth="yes"/>
      <point x="156" y="396"/>
      <point x="109" y="375"/>
      <point x="68" y="352" type="curve"/>
    </contour>
    <contour>
      <point x="345" y="469" type="curve" smooth="yes"/>
      <point x="362" y="469"/>
      <point x="384" y="479"/>
      <point x="384" y="518" type="curve" smooth="yes"/>
      <point x="384" y="557"/>
      <point x="362" y="567"/>
      <point x="345" y="567" type="curve" smooth="yes"/>
      <point x="325" y="567"/>
      <point x="305" y="557"/>
      <point x="305" y="518" type="curve" smooth="yes"/>
      <point x="305" y="479"/>
      <point x="325" y="469"/>
    </contour>
  </outline>
</glyph>
<glyph name="brackhalftopleft" format="2">
  <advance width="419"/>
  <unicode hex="2E22"/>
  <outline>
    <contour>
      <point x="120" y="315" type="line"/>
      <point x="226" y="315" type="line"/>
      <point x="226" y="690" type="line" smooth="yes"/>
      <point x="226" y="748"/>
      <point x="265" y="750"/>
      <point x="304" y="750" type="curve" smooth="yes"/>
      <point x="376" y="750" type="line"/>
      <point x="376" y="760" type="line"/>
      <point x="120" y="760" type="line"/>
    </contour>
  </outline>
</glyph>
<glyph name="fivedotmark" format="2">
  <advance width="825"/>
  <unicode hex="2E2D"/>
  <outline>
    <contour>
      <point x="411" y="433" type="curve" smooth="yes"/>
      <point x="443" y="433"/>
      <point x="474" y="445"/>
      <point x="474" y="497" type="curve" smooth="yes"/>
      <point x="474" y="548"/>
      <point x="443" y="558"/>
      <point x="411" y="558" type="curve" smooth="yes"/>
      <point x="381" y="558"/>
      <point x="349" y="548"/>
      <point x="349" y="497" type="curve" smooth="yes"/>
      <point x="349" y="445"/>
      <point x="381" y="433"/>
    </contour>
    <contour>
      <point x="688" y="210" type="curve" smooth="yes"/>
      <point x="719" y="210"/>
      <point x="751" y="222"/>
      <point x="751" y="274" type="curve" smooth="yes"/>
      <point x="751" y="325"/>
      <point x="719" y="335"/>
      <point x="688" y="335" type="curve" smooth="yes"/>
      <point x="658" y="335"/>
      <point x="626" y="325"/>
      <point x="626" y="274" type="curve" smooth="yes"/>
      <point x="626" y="222"/>
      <point x="658" y="210"/>
    </contour>
    <contour>
      <point x="135" y="210" type="curve" smooth="yes"/>
      <point x="166" y="210"/>
      <point x="198" y="222"/>
      <point x="198" y="274" type="curve" smooth="yes"/>
      <point x="198" y="325"/>
      <point x="166" y="335"/>
      <point x="135" y="335" type="curve" smooth="yes"/>
      <point x="105" y="335"/>
      <point x="73" y="325"/>
      <point x="73" y="274" type="curve" smooth="yes"/>
      <point x="73" y="222"/>
      <point x="105" y="210"/>
    </contour>
    <contour>
      <point x="411" y="210" type="curve" smooth="yes"/>
      <point x="443" y="210"/>
      <point x="474" y="222"/>
      <point x="474" y="274" type="curve" smooth="yes"/>
      <point x="474" y="325"/>
      <point x="443" y="335"/>
      <point x="411" y="335" type="curve" smooth="yes"/>
      <point x="381" y="335"/>
      <point x="349" y="325"/>
      <point x="349" y="274" type="curve" smooth="yes"/>
      <point x="349" y="222"/>
      <point x="381" y="210"/>
    </contour>
    <contour>
      <point x="411" y="-9" type="curve" smooth="yes"/>
      <point x="443" y="-9"/>
      <point x="474" y="2"/>
      <point x="474" y="54" type="curve" smooth="yes"/>
      <point x="474" y="105"/>
      <point x="443" y="115"/>
      <point x="411" y="115" type="curve" smooth="yes"/>
      <point x="381" y="115"/>
      <point x="349" y="105"/>
      <point x="349" y="54" type="curve" smooth="yes"/>
      <point x="349" y="2"/>
      <point x="381" y="-9"/>
    </contour>
  </outline>
</glyph>
<glyph name="uniA65A" format="2">
  <advance width="968"/>
  <unicode hex="A65A"/>
  <outline>
    <contour>
      <point x="28" y="0" type="line"/>
      <point x="223" y="0" type="line"/>
      <point x="223" y="219" type="line"/>
      <point x="435" y="219" type="line"/>
      <point x="435" y="83" type="line" smooth="yes"/>
      <point x="435" y="24"/>
      <point x="424" y="10"/>
      <point x="383" y="10" type="curve" smooth="yes"/>
      <point x="329" y="10" type="line"/>
      <point x="329" y="0" type="line"/>
      <point x="637" y="0" type="line"/>
      <point x="637" y="10" type="line"/>
      <point x="590" y="10" type="line" smooth="yes"/>
      <point x="545" y="10"/>
      <point x="534" y="22"/>
      <point x="534" y="88" type="curve" smooth="yes"/>
      <point x="534" y="219" type="line"/>
      <point x="743" y="219" type="line"/>
      <point x="743" y="0" type="line"/>
      <point x="938" y="0" type="line"/>
      <point x="938" y="10" type="line"/>
      <point x="860" y="10"/>
      <point x="844" y="8"/>
      <point x="844" y="87" type="curve" smooth="yes"/>
      <point x="844" y="254" type="line" smooth="yes"/>
      <point x="844" y="384"/>
      <point x="730" y="395"/>
      <point x="534" y="396" type="curve"/>
      <point x="824" y="703" type="line"/>
      <point x="824" y="714" type="line"/>
      <point x="116" y="714" type="line"/>
      <point x="116" y="703" type="line"/>
      <point x="401" y="396" type="line"/>
      <point x="232" y="396"/>
      <point x="122" y="383"/>
      <point x="122" y="254" type="curve" smooth="yes"/>
      <point x="122" y="87" type="line" smooth="yes"/>
      <point x="122" y="6"/>
      <point x="105" y="10"/>
      <point x="28" y="10" type="curve"/>
    </contour>
    <contour>
      <point x="223" y="229" type="line"/>
      <point x="228" y="377"/>
      <point x="309" y="386"/>
      <point x="398" y="386" type="curve" smooth="yes"/>
      <point x="554" y="386" type="line" smooth="yes"/>
      <point x="646" y="386"/>
      <point x="739" y="377"/>
      <point x="743" y="229" type="curve"/>
    </contour>
    <contour>
      <point x="519" y="393" type="line"/>
      <point x="241" y="704" type="line"/>
      <point x="810" y="704" type="line"/>
    </contour>
  </outline>
</glyph>
<glyph name="uniA66B" format="2">
  <advance width="798"/>
  <unicode hex="A66B"/>
  <outline>
    <contour>
      <point x="398" y="-10" type="curve" smooth="yes"/>
      <point x="621" y="-10"/>
      <point x="729" y="85"/>
      <point x="729" y="269" type="curve" smooth="yes"/>
      <point x="729" y="456"/>
      <point x="620" y="546"/>
      <point x="404" y="546" type="curve" smooth="yes"/>
      <point x="182" y="546"/>
      <point x="68" y="458"/>
      <point x="68" y="269" type="curve" smooth="yes"/>
      <point x="68" y="77"/>
      <point x="197" y="-10"/>
    </contour>
    <contour>
      <point x="310" y="213" type="curve" smooth="yes"/>
      <point x="337" y="213"/>
      <point x="355" y="228"/>
      <point x="355" y="265" type="curve" smooth="yes"/>
      <point x="355" y="302"/>
      <point x="337" y="316"/>
      <point x="310" y="316" type="curve" smooth="yes"/>
      <point x="289" y="316"/>
      <point x="269" y="302"/>
      <point x="269" y="265" type="curve" smooth="yes"/>
      <point x="269" y="228"/>
      <point x="289" y="213"/>
    </contour>
    <contour>
      <point x="398" y="0" type="curve" smooth="yes"/>
      <point x="235" y="0"/>
      <point x="173" y="87"/>
      <point x="173" y="269" type="curve" smooth="yes"/>
      <point x="173" y="465"/>
      <point x="238" y="536"/>
      <point x="405" y="536" type="curve" smooth="yes"/>
      <point x="570" y="536"/>
      <point x="625" y="461"/>
      <point x="625" y="269" type="curve" smooth="yes"/>
      <point x="625" y="98"/>
      <point x="574" y="0"/>
    </contour>
    <contour>
      <point x="485" y="213" type="curve" smooth="yes"/>
      <point x="512" y="213"/>
      <point x="530" y="228"/>
      <point x="530" y="265" type="curve" smooth="yes"/>
      <point x="530" y="302"/>
      <point x="512" y="316"/>
      <point x="485" y="316" type="curve" smooth="yes"/>
      <point x="464" y="316"/>
      <point x="444" y="302"/>
      <point x="444" y="265" type="curve" smooth="yes"/>
      <point x="444" y="228"/>
      <point x="464" y="213"/>
    </contour>
  </outline>
</glyph>
<glyph name="uniA684" format="2">
  <advance width="1499"/>
  <unicode hex="A684"/>
  <outline>
    <contour>
      <point x="331" y="-9" type="curve" smooth="yes"/>
      <point x="524" y="-9"/>
      <point x="641" y="86"/>
      <point x="641" y="195" type="curve" smooth="yes"/>
      <point x="641" y="300"/>
      <point x="551" y="357"/>
      <point x="435" y="376" type="curve"/>
      <point x="804" y="376" type="line"/>
      <point x="804" y="85" type="line" smooth="yes"/>
      <point x="804" y="22"/>
      <point x="793" y="10"/>
      <point x="742" y="10" type="curve" smooth="yes"/>
      <point x="688" y="10" type="line"/>
      <point x="688" y="0" type="line"/>
      <point x="1029" y="0" type="line"/>
      <point x="1029" y="10" type="line"/>
      <point x="976" y="10" type="line" smooth="yes"/>
      <point x="933" y="10"/>
      <point x="919" y="19"/>
      <point x="919" y="82" type="curve" smooth="yes"/>
      <point x="919" y="369" type="line"/>
      <point x="1048" y="369"/>
      <point x="1094" y="345"/>
      <point x="1125" y="284" type="curve" smooth="yes"/>
      <point x="1222" y="94" type="line" smooth="yes"/>
      <point x="1258" y="23"/>
      <point x="1328" y="0"/>
      <point x="1380" y="0" type="curve" smooth="yes"/>
      <point x="1469" y="0" type="line"/>
      <point x="1469" y="10" type="line"/>
      <point x="1466" y="10" type="line" smooth="yes"/>
      <point x="1429" y="10"/>
      <point x="1380" y="25"/>
      <point x="1333" y="114" type="curve" smooth="yes"/>
      <point x="1243" y="284" type="line" smooth="yes"/>
      <point x="1214" y="335"/>
      <point x="1153" y="391"/>
      <point x="1051" y="395" type="curve"/>
      <point x="1088" y="411"/>
      <point x="1125" y="456"/>
      <point x="1174" y="543" type="curve" smooth="yes"/>
      <point x="1224" y="634"/>
      <point x="1254" y="667"/>
      <point x="1311" y="667" type="curve" smooth="yes"/>
      <point x="1365" y="667"/>
      <point x="1403" y="642"/>
      <point x="1408" y="594" type="curve"/>
      <point x="1438" y="601"/>
      <point x="1444" y="624"/>
      <point x="1444" y="643" type="curve" smooth="yes"/>
      <point x="1444" y="678"/>
      <point x="1416" y="720"/>
      <point x="1334" y="720" type="curve" smooth="yes"/>
      <point x="1260" y="720"/>
      <point x="1243" y="690"/>
      <point x="1169" y="561" type="curve" smooth="yes"/>
      <point x="1132" y="495"/>
      <point x="1104" y="454"/>
      <point x="1083" y="429" type="curve" smooth="yes"/>
      <point x="1047" y="390"/>
      <point x="1022" y="381"/>
      <point x="919" y="379" type="curve"/>
      <point x="919" y="627" type="line" smooth="yes"/>
      <point x="919" y="695"/>
      <point x="924" y="704"/>
      <point x="982" y="704" type="curve" smooth="yes"/>
      <point x="1029" y="704" type="line"/>
      <point x="1029" y="714" type="line"/>
      <point x="688" y="714" type="line"/>
      <point x="688" y="704" type="line"/>
      <point x="744" y="704" type="line" smooth="yes"/>
      <point x="793" y="704"/>
      <point x="804" y="695"/>
      <point x="804" y="630" type="curve" smooth="yes"/>
      <point x="804" y="386" type="line"/>
      <point x="446" y="386" type="line"/>
      <point x="555" y="408"/>
      <point x="623" y="455"/>
      <point x="623" y="546" type="curve" smooth="yes"/>
      <point x="623" y="639"/>
      <point x="537" y="726"/>
      <point x="347" y="726" type="curve" smooth="yes"/>
      <point x="183" y="726"/>
      <point x="81" y="677"/>
      <point x="81" y="601" type="curve" smooth="yes"/>
      <point x="81" y="547"/>
      <point x="126" y="534"/>
      <point x="177" y="534" type="curve"/>
      <point x="177" y="659"/>
      <point x="210" y="716"/>
      <point x="344" y="716" type="curve" smooth="yes"/>
      <point x="467" y="716"/>
      <point x="518" y="652"/>
      <point x="518" y="542" type="curve" smooth="yes"/>
      <point x="518" y="434"/>
      <point x="446" y="382"/>
      <point x="315" y="382" type="curve" smooth="yes"/>
      <point x="213" y="382" type="line"/>
      <point x="213" y="372" type="line"/>
      <point x="323" y="372" type="line" smooth="yes"/>
      <point x="452" y="372"/>
      <point x="538" y="299"/>
      <point x="538" y="194" type="curve" smooth="yes"/>
      <point x="538" y="80"/>
      <point x="445" y="1"/>
      <point x="329" y="1" type="curve" smooth="yes"/>
      <point x="200" y="1"/>
      <point x="131" y="58"/>
      <point x="130" y="201" type="curve"/>
      <point x="75" y="201"/>
      <point x="51" y="179"/>
      <point x="51" y="142" type="curve" smooth="yes"/>
      <point x="51" y="49"/>
      <point x="157" y="-9"/>
    </contour>
  </outline>
</glyph>
<glyph name="uniA690" format="2">
  <advance width="732"/>
  <unicode hex="A690"/>
  <outline>
    <contour>
      <point x="255" y="-178" type="curve" smooth="yes"/>
      <point x="284" y="-178"/>
      <point x="320" y="-174"/>
      <point x="349" y="-165" type="curve"/>
      <point x="349" y="-155" type="line"/>
      <point x="322" y="-162"/>
      <point x="288" y="-167"/>
      <point x="264" y="-167" type="curve" smooth="yes"/>
      <point x="213" y="-167"/>
      <point x="175" y="-145"/>
      <point x="175" y="-87" type="curve" smooth="yes"/>
      <point x="175" y="-36"/>
      <point x="221" y="0"/>
      <point x="312" y="0" type="curve" smooth="yes"/>
      <point x="554" y="0" type="line"/>
      <point x="554" y="10" type="line"/>
      <point x="484" y="10" type="line" smooth="yes"/>
      <point x="438" y="10"/>
      <point x="420" y="15"/>
      <point x="420" y="85" type="curve" smooth="yes"/>
      <point x="420" y="698" type="line"/>
      <point x="588" y="698" type="line" smooth="yes"/>
      <point x="658" y="698"/>
      <point x="682" y="685"/>
      <point x="690" y="595" type="curve" smooth="yes"/>
      <point x="694" y="535" type="line"/>
      <point x="704" y="535" type="line"/>
      <point x="697" y="714" type="line"/>
      <point x="34" y="714" type="line"/>
      <point x="26" y="535" type="line"/>
      <point x="36" y="535" type="line"/>
      <point x="40" y="601" type="line" smooth="yes"/>
      <point x="44" y="678"/>
      <point x="70" y="698"/>
      <point x="139" y="698" type="curve" smooth="yes"/>
      <point x="309" y="698" type="line"/>
      <point x="309" y="101" type="line" smooth="yes"/>
      <point x="309" y="13"/>
      <point x="290" y="16"/>
      <point x="231" y="1" type="curve" smooth="yes"/>
      <point x="157" y="-19"/>
      <point x="124" y="-39"/>
      <point x="124" y="-89" type="curve" smooth="yes"/>
      <point x="124" y="-146"/>
      <point x="168" y="-178"/>
    </contour>
  </outline>
</glyph>
<glyph name="uniA691" format="2">
  <advance width="620"/>
  <unicode hex="A691"/>
  <outline>
    <contour>
      <point x="187" y="-178" type="curve" smooth="yes"/>
      <point x="217" y="-178"/>
      <point x="250" y="-174"/>
      <point x="284" y="-166" type="curve"/>
      <point x="284" y="-153" type="line"/>
      <point x="251" y="-164"/>
      <point x="220" y="-167"/>
      <point x="200" y="-167" type="curve" smooth="yes"/>
      <point x="144" y="-167"/>
      <point x="109" y="-137"/>
      <point x="109" y="-89" type="curve" smooth="yes"/>
      <point x="109" y="-35"/>
      <point x="145" y="0"/>
      <point x="231" y="0" type="curve" smooth="yes"/>
      <point x="475" y="0" type="line"/>
      <point x="475" y="10" type="line"/>
      <point x="441" y="10" type="line" smooth="yes"/>
      <point x="374" y="10"/>
      <point x="363" y="20"/>
      <point x="363" y="80" type="curve" smooth="yes"/>
      <point x="363" y="520" type="line"/>
      <point x="487" y="520" type="line" smooth="yes"/>
      <point x="560" y="520"/>
      <point x="579" y="498"/>
      <point x="587" y="420" type="curve" smooth="yes"/>
      <point x="592" y="354" type="line"/>
      <point x="602" y="354" type="line"/>
      <point x="596" y="536" type="line"/>
      <point x="25" y="536" type="line"/>
      <point x="18" y="354" type="line"/>
      <point x="29" y="354" type="line"/>
      <point x="34" y="420" type="line" smooth="yes"/>
      <point x="42" y="497"/>
      <point x="61" y="520"/>
      <point x="134" y="520" type="curve" smooth="yes"/>
      <point x="253" y="520" type="line"/>
      <point x="253" y="47" type="line" smooth="yes"/>
      <point x="253" y="8"/>
      <point x="237" y="15"/>
      <point x="177" y="4" type="curve" smooth="yes"/>
      <point x="108" y="-7"/>
      <point x="60" y="-32"/>
      <point x="60" y="-87" type="curve" smooth="yes"/>
      <point x="60" y="-143"/>
      <point x="107" y="-178"/>
    </contour>
  </outline>
</glyph>
<glyph name="uniA71C" format="2">
  <advance width="482"/>
  <unicode hex="A71C"/>
  <outline>
    <contour>
      <point x="233" y="589" type="curve"/>
      <point x="252" y="589" type="line"/>
      <point x="277" y="670"/>
      <point x="306" y="722"/>
      <point x="346" y="784" type="curve"/>
      <point x="346" y="789" type="line"/>
      <point x="332" y="789" type="line"/>
      <point x="309" y="761"/>
      <point x="280" y="721"/>
      <point x="253" y="650" type="curve"/>
      <point x="253" y="897" type="line"/>
      <point x="233" y="897" type="line"/>
      <point x="233" y="651" type="line"/>
      <point x="204" y="721"/>
      <point x="176" y="761"/>
      <point x="153" y="789" type="curve"/>
      <point x="139" y="789" type="line"/>
      <point x="139" y="784" type="line"/>
      <point x="179" y="722"/>
      <point x="208" y="670"/>
    </contour>
  </outline>
</glyph>
<glyph name="uniA733" format="2">
  <advance width="1045"/>
  <unicode hex="A733"/>
  <outline>
    <contour>
      <point x="249" y="-10" type="curve" smooth="yes"/>
      <point x="337" y="-10"/>
      <point x="396" y="27"/>
      <point x="443" y="98" type="curve"/>
      <point x="446" y="98" type="line"/>
      <point x="467" y="29"/>
      <point x="529" y="-10"/>
      <point x="624" y="-10" type="curve" smooth="yes"/>
      <point x="720" y="-10"/>
      <point x="786" y="44"/>
      <point x="813" y="103" type="curve"/>
      <point x="815" y="103" type="line"/>
      <point x="815" y="0" type="line"/>
      <point x="999" y="0" type="line"/>
      <point x="999" y="10" type="line"/>
      <point x="990" y="10" type="line" smooth="yes"/>
      <point x="927" y="10"/>
      <point x="922" y="29"/>
      <point x="922" y="90" type="curve" smooth="yes"/>
      <point x="922" y="398" type="line" smooth="yes"/>
      <point x="922" y="484"/>
      <point x="843" y="546"/>
      <point x="681" y="546" type="curve" smooth="yes"/>
      <point x="585" y="546"/>
      <point x="529" y="516"/>
      <point x="500" y="490" type="curve"/>
      <point x="471" y="521"/>
      <point x="417" y="546"/>
      <point x="319" y="546" type="curve" smooth="yes"/>
      <point x="168" y="546"/>
      <point x="113" y="490"/>
      <point x="113" y="444" type="curve" smooth="yes"/>
      <point x="113" y="400"/>
      <point x="139" y="386"/>
      <point x="197" y="386" type="curve"/>
      <point x="197" y="485"/>
      <point x="212" y="536"/>
      <point x="313" y="536" type="curve" smooth="yes"/>
      <point x="428" y="536"/>
      <point x="439" y="477"/>
      <point x="439" y="398" type="curve" smooth="yes"/>
      <point x="439" y="294" type="line"/>
      <point x="340" y="291" type="line" smooth="yes"/>
      <point x="149" y="285"/>
      <point x="61" y="250"/>
      <point x="61" y="143" type="curve" smooth="yes"/>
      <point x="61" y="40"/>
      <point x="140" y="-10"/>
    </contour>
    <contour>
      <point x="278" y="11" type="curve" smooth="yes"/>
      <point x="200" y="11"/>
      <point x="170" y="77"/>
      <point x="170" y="148" type="curve" smooth="yes"/>
      <point x="170" y="227"/>
      <point x="210" y="275"/>
      <point x="359" y="281" type="curve" smooth="yes"/>
      <point x="440" y="284" type="line"/>
      <point x="440" y="166" type="line" smooth="yes"/>
      <point x="440" y="103"/>
      <point x="369" y="11"/>
    </contour>
    <contour>
      <point x="654" y="18" type="curve" smooth="yes"/>
      <point x="577" y="18"/>
      <point x="545" y="82"/>
      <point x="545" y="148" type="curve" smooth="yes"/>
      <point x="545" y="227"/>
      <point x="585" y="275"/>
      <point x="735" y="281" type="curve" smooth="yes"/>
      <point x="816" y="284" type="line"/>
      <point x="816" y="150" type="line" smooth="yes"/>
      <point x="816" y="95"/>
      <point x="746" y="18"/>
    </contour>
    <contour>
      <point x="546" y="258" type="curve"/>
      <point x="546" y="388" type="line" smooth="yes"/>
      <point x="546" y="482"/>
      <point x="576" y="536"/>
      <point x="675" y="536" type="curve" smooth="yes"/>
      <point x="788" y="536"/>
      <point x="815" y="477"/>
      <point x="815" y="398" type="curve" smooth="yes"/>
      <point x="815" y="294" type="line"/>
      <point x="730" y="291" type="line" smooth="yes"/>
      <point x="641" y="289"/>
      <point x="578" y="284"/>
    </contour>
  </outline>
</glyph>
